SplineFontDB: 3.0
FontName: Orav-Regular
FullName: Orav Regular
FamilyName: Orav
Weight: Regular
Copyright: Copyright (c) 2014 by TipTopTyp. All rights reserved under SIL openfont License 1.1
Version: 1.0.1
FONDName: Orav 61
ItalicAngle: 0
UnderlinePosition: -204
UnderlineWidth: 102
Ascent: 1556
Descent: 492
UFOAscent: 1556.48
UFODescent: -471.04
LayerCount: 2
Layer: 0 1 "Back"  1
Layer: 1 1 "Fore"  0
FSType: 4
OS2Version: 3
OS2_WeightWidthSlopeOnly: 0
OS2_UseTypoMetrics: 0
CreationTime: 1417801963
ModificationTime: 1418025378
PfmFamily: 17
TTFWeight: 400
TTFWidth: 5
LineGap: 55
VLineGap: 0
Panose: 2 0 0 0 0 0 0 0 0 0
OS2TypoAscent: 1556
OS2TypoAOffset: 0
OS2TypoDescent: -471
OS2TypoDOffset: 0
OS2TypoLinegap: 110
OS2WinAscent: 1968
OS2WinAOffset: 0
OS2WinDescent: 506
OS2WinDOffset: 0
HheadAscent: 1968
HheadAOffset: 0
HheadDescent: -506
HheadDOffset: 0
OS2SubXSize: 1434
OS2SubYSize: 1331
OS2SubXOff: 0
OS2SubYOff: 287
OS2SupXSize: 1434
OS2SupYSize: 1331
OS2SupXOff: 0
OS2SupYOff: 977
OS2StrikeYSize: 102
OS2StrikeYPos: 512
OS2Vendor: 'KORK'
OS2CodePages: 00000001.00000000
OS2UnicodeRanges: 80008223.00002042.00000000.00000000
Lookup: 4 0 0 "halnHalantFormslookup29"  {"halnHalantFormslookup29 subtable"  } ['haln' ('deva' <'dflt' 'MAR ' 'NEP ' > 'DFLT' <'dflt' > ) ]
Lookup: 1 0 0 "LocalizedMrForms_lookup0"  {"LocalizedMrForms_lookup0 subtable"  } ['locl' ('deva' <'MAR ' > ) ]
Lookup: 4 0 0 "LocalizedMrHalfFormslookup1"  {"LocalizedMrHalfFormslookup1 subtable"  } ['locl' ('deva' <'MAR ' > ) ]
Lookup: 1 0 0 "LocalizedNpFormslookup2"  {"LocalizedNpFormslookup2 subtable"  } ['locl' ('deva' <'NEP ' > ) ]
Lookup: 4 0 0 "LocalizedNpFormslookup3"  {"LocalizedNpFormslookup3 subtable"  } ['locl' ('deva' <'NEP ' > ) ]
Lookup: 4 0 0 "NuktaFormslookup5"  {"NuktaFormslookup5 subtable"  } ['nukt' ('deva' <'dflt' 'MAR ' 'NEP ' > ) ]
Lookup: 4 0 0 "AkhandFormslookup6"  {"AkhandFormslookup6 subtable"  } ['akhn' ('deva' <'dflt' 'MAR ' 'NEP ' > ) ]

StartChar: .notdef
Encoding: 256 -1 0
Width: 1140
VWidth: 0
Flags: W
LayerCount: 2
Fore
SplineSet
205 1413 m 1,0,-1
 205 102 l 1,1,-1
 936 102 l 1,2,-1
 936 1413 l 1,3,-1
 205 1413 l 1,0,-1
102 0 m 1,4,-1
 102 1516 l 1,5,-1
 1038 1516 l 1,6,-1
 1038 0 l 1,7,-1
 102 0 l 1,4,-1
EndSplineSet
EndChar

StartChar: A
Encoding: 258 65 2
Width: 1542
VWidth: 0
Flags: W
LayerCount: 2
Fore
SplineSet
1040 0 m 1,0,-1
 1040 172 l 1,1,-1
 1166 172 l 1,2,-1
 1046 516 l 1,3,-1
 464 516 l 1,4,-1
 346 172 l 1,5,-1
 502 172 l 1,6,-1
 502 0 l 1,7,-1
 10 0 l 1,8,-1
 10 172 l 1,9,-1
 142 172 l 1,10,-1
 614 1516 l 1,11,-1
 909 1516 l 1,12,-1
 1381 172 l 1,13,-1
 1532 172 l 1,14,-1
 1532 0 l 1,15,-1
 1040 0 l 1,0,-1
520 682 m 1,16,-1
 988 682 l 1,17,-1
 752 1360 l 1,18,-1
 520 682 l 1,16,-1
EndSplineSet
EndChar

StartChar: AE
Encoding: 259 198 3
Width: 1914
VWidth: 0
Flags: W
LayerCount: 2
Fore
SplineSet
-2 0 m 1,0,-1
 -2 172 l 1,1,-1
 104 172 l 1,2,-1
 920 1516 l 1,3,-1
 1858 1516 l 1,4,-1
 1858 1087 l 1,5,-1
 1653 1087 l 1,6,-1
 1653 1343 l 1,7,-1
 1188 1343 l 1,8,-1
 1188 862 l 1,9,-1
 1567 862 l 1,10,-1
 1567 690 l 1,11,-1
 1188 690 l 1,12,-1
 1188 172 l 1,13,-1
 1653 172 l 1,14,-1
 1653 428 l 1,15,-1
 1858 428 l 1,16,-1
 1858 0 l 1,17,-1
 866 0 l 1,18,-1
 866 172 l 1,19,-1
 991 172 l 1,20,-1
 991 426 l 1,21,-1
 475 426 l 1,22,-1
 327 172 l 1,23,-1
 489 172 l 1,24,-1
 489 0 l 1,25,-1
 -2 0 l 1,0,-1
991 598 m 1,26,-1
 991 1312 l 1,27,-1
 575 598 l 1,28,-1
 991 598 l 1,26,-1
EndSplineSet
EndChar

StartChar: Aogonek
Encoding: 266 260 10
Width: 1542
VWidth: 0
Flags: W
LayerCount: 2
Fore
SplineSet
10 0 m 1,0,-1
 10 172 l 1,1,-1
 142 172 l 1,2,-1
 614 1516 l 1,3,-1
 909 1516 l 1,4,-1
 1381 172 l 1,5,-1
 1511 172 l 1,6,-1
 1511 0 l 1,7,-1
 1323 0 l 2,8,9
 1225 0 1225 0 1155 -60.5 c 128,-1,10
 1085 -121 1085 -121 1085 -199 c 0,11,12
 1085 -246 1085 -246 1126.5 -279.5 c 128,-1,13
 1168 -313 1168 -313 1227 -313 c 0,14,15
 1298 -313 1298 -313 1343 -293 c 1,16,-1
 1393 -444 l 1,17,18
 1321 -485 1321 -485 1221 -485 c 0,19,20
 1073 -485 1073 -485 993 -407 c 128,-1,21
 913 -329 913 -329 913 -225 c 0,22,23
 913 -181 913 -181 928 -138.5 c 128,-1,24
 943 -96 943 -96 970 -60.5 c 128,-1,25
 997 -25 997 -25 1032 -1 c 1,26,-1
 1032 172 l 1,27,-1
 1166 172 l 1,28,-1
 1046 516 l 1,29,-1
 464 516 l 1,30,-1
 346 172 l 1,31,-1
 502 172 l 1,32,-1
 502 0 l 1,33,-1
 10 0 l 1,0,-1
520 682 m 1,34,-1
 988 682 l 1,35,-1
 752 1360 l 1,36,-1
 520 682 l 1,34,-1
EndSplineSet
EndChar

StartChar: Aring
Encoding: 267 197 11
Width: 1542
VWidth: 0
Flags: W
LayerCount: 2
Fore
SplineSet
759.5 1948 m 128,-1,1
 864 1948 864 1948 940 1872 c 128,-1,2
 1016 1796 1016 1796 1016 1692 c 0,3,4
 1016 1570 1016 1570 918 1492 c 1,5,-1
 1381 172 l 1,6,-1
 1532 172 l 1,7,-1
 1532 0 l 1,8,-1
 1040 0 l 1,9,-1
 1040 172 l 1,10,-1
 1166 172 l 1,11,-1
 1046 516 l 1,12,-1
 464 516 l 1,13,-1
 346 172 l 1,14,-1
 502 172 l 1,15,-1
 502 0 l 1,16,-1
 10 0 l 1,17,-1
 10 172 l 1,18,-1
 142 172 l 1,19,-1
 605 1489 l 1,20,21
 504 1567 504 1567 504 1692 c 0,22,23
 504 1796 504 1796 579.5 1872 c 128,-1,0
 655 1948 655 1948 759.5 1948 c 128,-1,1
655 1692 m 128,-1,25
 655 1651 655 1651 687 1619 c 128,-1,26
 719 1587 719 1587 760 1587 c 128,-1,27
 801 1587 801 1587 832.5 1619 c 128,-1,28
 864 1651 864 1651 864 1692 c 128,-1,29
 864 1733 864 1733 832.5 1764.5 c 128,-1,30
 801 1796 801 1796 760 1796 c 128,-1,31
 719 1796 719 1796 687 1764.5 c 128,-1,24
 655 1733 655 1733 655 1692 c 128,-1,25
520 682 m 1,32,-1
 988 682 l 1,33,-1
 752 1360 l 1,34,-1
 520 682 l 1,32,-1
EndSplineSet
EndChar

StartChar: B
Encoding: 269 66 13
Width: 1351
VWidth: 0
Flags: W
LayerCount: 2
Fore
SplineSet
481 848 m 1,0,-1
 827 848 l 2,1,2
 922 848 922 848 988.5 917.5 c 128,-1,3
 1055 987 1055 987 1055 1079 c 0,4,5
 1055 1180 1055 1180 987 1261.5 c 128,-1,6
 919 1343 919 1343 827 1343 c 2,7,-1
 481 1343 l 1,8,-1
 481 848 l 1,0,-1
285 1343 m 1,9,-1
 143 1343 l 1,10,-1
 143 1516 l 1,11,-1
 825 1516 l 2,12,13
 1010 1516 1010 1516 1139 1387.5 c 128,-1,14
 1268 1259 1268 1259 1268 1073 c 0,15,16
 1268 977 1268 977 1213.5 896.5 c 128,-1,17
 1159 816 1159 816 1061 768 c 1,18,19
 1160 717 1160 717 1218 632 c 128,-1,20
 1276 547 1276 547 1276 451 c 0,21,22
 1276 262 1276 262 1147 131 c 128,-1,23
 1018 0 1018 0 834 0 c 2,24,-1
 143 0 l 1,25,-1
 143 172 l 1,26,-1
 285 172 l 1,27,-1
 285 1343 l 1,9,-1
481 172 m 1,28,-1
 836 172 l 2,29,30
 928 172 928 172 995.5 257 c 128,-1,31
 1063 342 1063 342 1063 446 c 0,32,33
 1063 535 1063 535 995.5 604.5 c 128,-1,34
 928 674 928 674 836 674 c 2,35,-1
 481 674 l 1,36,-1
 481 172 l 1,28,-1
EndSplineSet
EndChar

StartChar: C
Encoding: 270 67 14
Width: 1503
VWidth: 0
Flags: W
LayerCount: 2
Fore
SplineSet
1333 1294 m 1,0,1
 1427 1294 l 1,2,-1
 1427 1116 l 1,3,-1
 1212 1116 l 1,4,5
 1071 1358 1071 1358 788 1358 c 0,6,7
 561 1358 561 1358 414.5 1182 c 128,-1,8
 268 1006 268 1006 268 760 c 128,-1,9
 268 514 268 514 415.5 339 c 128,-1,10
 563 164 563 164 788 164 c 0,11,12
 956 164 956 164 1066.5 244 c 128,-1,13
 1177 324 1177 324 1257 494 c 1,14,-1
 1438 412 l 1,15,16
 1341 207 1341 207 1177 91 c 128,-1,17
 1013 -25 1013 -25 788 -25 c 0,18,19
 475 -25 475 -25 270.5 204.5 c 128,-1,20
 66 434 66 434 66 759.5 c 128,-1,21
 66 1085 66 1085 270.5 1314.5 c 128,-1,22
 475 1544 475 1544 788 1544 c 0,23,24
 968 1544 968 1544 1094.5 1481 c 128,-1,25
 1221 1418 1221 1418 1333 1294 c 1,0,1
EndSplineSet
EndChar

StartChar: D
Encoding: 275 68 19
Width: 1519
VWidth: 0
Flags: W
LayerCount: 2
Fore
SplineSet
299 1343 m 1,0,-1
 143 1343 l 1,1,-1
 143 1516 l 1,2,-1
 719 1516 l 2,3,4
 1028 1516 1028 1516 1238 1296.5 c 128,-1,5
 1448 1077 1448 1077 1448 762 c 0,6,7
 1448 442 1448 442 1238 221 c 128,-1,8
 1028 0 1028 0 719 0 c 2,9,-1
 143 0 l 1,10,-1
 143 172 l 1,11,-1
 299 172 l 1,12,-1
 299 1343 l 1,0,-1
496 1343 m 1,13,-1
 496 172 l 1,14,-1
 731 172 l 2,15,16
 942 172 942 172 1090.5 344 c 128,-1,17
 1239 516 1239 516 1239 762 c 0,18,19
 1239 1006 1239 1006 1090.5 1174.5 c 128,-1,20
 942 1343 942 1343 731 1343 c 2,21,-1
 496 1343 l 1,13,-1
EndSplineSet
EndChar

StartChar: D_E
Encoding: 276 -1 20
Width: 2805
VWidth: 0
Flags: W
LayerCount: 2
Fore
SplineSet
872 0 m 2,0,1
 563 0 563 0 353 221.5 c 128,-1,2
 143 443 143 443 143 762 c 0,3,4
 143 1077 143 1077 353 1296.5 c 128,-1,5
 563 1516 563 1516 872 1516 c 2,6,-1
 2042 1516 l 1,7,-1
 2042 1087 l 1,8,-1
 1837 1087 l 1,9,-1
 1837 1343 l 1,10,-1
 1296 1343 l 1,11,-1
 1296 858 l 1,12,-1
 1751 858 l 1,13,-1
 1751 686 l 1,14,-1
 1296 686 l 1,15,-1
 1296 172 l 1,16,-1
 1837 172 l 1,17,-1
 1837 428 l 1,18,-1
 2042 428 l 1,19,-1
 2042 0 l 1,20,-1
 872 0 l 2,0,1
1100 1343 m 1,21,-1
 860 1343 l 2,22,23
 649 1343 649 1343 500.5 1174.5 c 128,-1,24
 352 1006 352 1006 352 762 c 0,25,26
 352 516 352 516 500.5 344 c 128,-1,27
 649 172 649 172 860 172 c 2,28,-1
 1100 172 l 1,29,-1
 1100 1343 l 1,21,-1
EndSplineSet
EndChar

StartChar: E
Encoding: 279 69 23
Width: 1286
VWidth: 0
Flags: W
LayerCount: 2
Fore
SplineSet
143 0 m 1,0,-1
 143 172 l 1,1,-1
 287 172 l 1,2,-1
 287 1343 l 1,3,-1
 143 1343 l 1,4,-1
 143 1516 l 1,5,-1
 1229 1516 l 1,6,-1
 1229 1087 l 1,7,-1
 1024 1087 l 1,8,-1
 1024 1343 l 1,9,-1
 483 1343 l 1,10,-1
 483 858 l 1,11,-1
 938 858 l 1,12,-1
 938 686 l 1,13,-1
 483 686 l 1,14,-1
 483 172 l 1,15,-1
 1024 172 l 1,16,-1
 1024 428 l 1,17,-1
 1229 428 l 1,18,-1
 1229 0 l 1,19,-1
 143 0 l 1,0,-1
EndSplineSet
EndChar

StartChar: Eogonek
Encoding: 287 280 31
Width: 1286
VWidth: 0
Flags: W
LayerCount: 2
Fore
SplineSet
925 -0 m 1,0,1
 143 0 l 1,2,-1
 143 172 l 1,3,-1
 287 172 l 1,4,-1
 287 1343 l 1,5,-1
 143 1343 l 1,6,-1
 143 1516 l 1,7,-1
 1229 1516 l 1,8,-1
 1229 1087 l 1,9,-1
 1024 1087 l 1,10,-1
 1024 1343 l 1,11,-1
 483 1343 l 1,12,-1
 483 858 l 1,13,-1
 938 858 l 1,14,-1
 938 686 l 1,15,-1
 483 686 l 1,16,-1
 483 172 l 1,17,-1
 1024 172 l 1,18,-1
 1024 428 l 1,19,-1
 1229 428 l 1,20,-1
 1229 0 l 1,21,-1
 1210 0 l 1,22,23
 944 -88 944 -88 944 -225 c 0,24,25
 944 -268 944 -268 976 -296 c 128,-1,26
 1008 -324 1008 -324 1057 -324 c 0,27,28
 1137 -324 1137 -324 1186 -301 c 1,29,-1
 1229 -428 l 1,30,31
 1155 -471 1155 -471 1051 -471 c 0,32,33
 926 -471 926 -471 848 -414.5 c 128,-1,34
 770 -358 770 -358 770 -260 c 0,35,36
 770 -113 770 -113 925 -0 c 1,0,1
EndSplineSet
EndChar

StartChar: Eth
Encoding: 288 208 32
Width: 1515
VWidth: 0
Flags: W
LayerCount: 2
Fore
SplineSet
678 676 m 1,0,-1
 492 676 l 1,1,-1
 492 172 l 1,2,-1
 727 172 l 2,3,4
 938 172 938 172 1086.5 344 c 128,-1,5
 1235 516 1235 516 1235 762 c 0,6,7
 1235 1006 1235 1006 1086.5 1174.5 c 128,-1,8
 938 1343 938 1343 727 1343 c 2,9,-1
 492 1343 l 1,10,-1
 492 848 l 1,11,-1
 678 848 l 1,12,-1
 678 676 l 1,0,-1
295 1343 m 1,13,-1
 139 1343 l 1,14,-1
 139 1516 l 1,15,-1
 715 1516 l 2,16,17
 1024 1516 1024 1516 1234 1296.5 c 128,-1,18
 1444 1077 1444 1077 1444 762 c 0,19,20
 1444 442 1444 442 1234 221 c 128,-1,21
 1024 0 1024 0 715 0 c 2,22,-1
 139 0 l 1,23,-1
 139 172 l 1,24,-1
 295 172 l 1,25,-1
 295 676 l 1,26,-1
 127 676 l 1,27,-1
 127 848 l 1,28,-1
 295 848 l 1,29,-1
 295 1343 l 1,13,-1
EndSplineSet
EndChar

StartChar: Euro
Encoding: 289 8364 33
Width: 1503
VWidth: 0
Flags: W
LayerCount: 2
Fore
SplineSet
293 961 m 1,0,1
 901 961 l 1,2,-1
 793 774 l 1,3,-1
 268 774 l 1,4,5
 268 744 268 744 271 713.5 c 128,-1,6
 274 683 274 683 279 653 c 1,7,-1
 901 653 l 1,8,-1
 793 467 l 1,9,-1
 339 467 l 1,10,11
 365 413 365 413 399.5 367 c 128,-1,12
 434 321 434 321 477 283.5 c 128,-1,13
 520 246 520 246 568.5 219.5 c 128,-1,14
 617 193 617 193 673 178.5 c 128,-1,15
 729 164 729 164 788 164 c 0,16,17
 956 164 956 164 1066.5 244 c 128,-1,18
 1177 324 1177 324 1257 494 c 1,19,-1
 1438 412 l 1,20,21
 1341 207 1341 207 1177 91 c 128,-1,22
 1013 -25 1013 -25 788 -25 c 0,23,24
 475 -25 475 -25 270.5 204.5 c 128,-1,25
 66 434 66 434 66 759.5 c 128,-1,26
 66 1085 66 1085 270.5 1314.5 c 128,-1,27
 475 1544 475 1544 788 1544 c 0,28,29
 968 1544 968 1544 1094.5 1481 c 128,-1,30
 1221 1418 1221 1418 1333 1294 c 1,31,-1
 1427 1294 l 1,32,-1
 1427 1116 l 1,33,-1
 1212 1116 l 1,34,35
 1071 1358 1071 1358 788 1358 c 0,36,37
 608 1358 608 1358 475 1248 c 128,-1,38
 342 1138 342 1138 293 961 c 1,0,1
EndSplineSet
EndChar

StartChar: F
Encoding: 290 70 34
Width: 1247
VWidth: 0
Flags: W
LayerCount: 2
Fore
SplineSet
143 0 m 1,0,-1
 143 172 l 1,1,-1
 283 172 l 1,2,-1
 283 1343 l 1,3,-1
 147 1343 l 1,4,-1
 147 1516 l 1,5,-1
 1233 1516 l 1,6,-1
 1233 1087 l 1,7,-1
 1028 1087 l 1,8,-1
 1028 1343 l 1,9,-1
 479 1343 l 1,10,-1
 479 856 l 1,11,-1
 1008 856 l 1,12,-1
 1008 688 l 1,13,-1
 479 688 l 1,14,-1
 479 172 l 1,15,-1
 635 172 l 1,16,-1
 635 0 l 1,17,-1
 143 0 l 1,0,-1
EndSplineSet
EndChar

StartChar: G
Encoding: 291 71 35
Width: 1677
VWidth: 0
Flags: W
LayerCount: 2
Fore
SplineSet
1493 -6 m 1,0,-1
 1307 -6 l 1,1,-1
 1307 286 l 1,2,3
 1233 140 1233 140 1090.5 64 c 128,-1,4
 948 -12 948 -12 780 -12 c 0,5,6
 499 -12 499 -12 309 166 c 0,7,8
 72 387 72 387 72 760 c 0,9,10
 72 1094 72 1094 279 1320 c 128,-1,11
 486 1546 486 1546 795 1546 c 0,12,13
 985 1546 985 1546 1111 1477.5 c 128,-1,14
 1237 1409 1237 1409 1336 1294 c 1,15,-1
 1434 1294 l 1,16,-1
 1434 1116 l 1,17,-1
 1219 1116 l 1,18,19
 1074 1360 1074 1360 795 1360 c 0,20,21
 567 1360 567 1360 420.5 1183 c 128,-1,22
 274 1006 274 1006 274 760 c 0,23,24
 274 502 274 502 420 333 c 128,-1,25
 566 164 566 164 795 164 c 0,26,27
 1186 164 1186 164 1282 549 c 1,28,-1
 852 549 l 1,29,-1
 852 721 l 1,30,-1
 1491 721 l 1,31,-1
 1491 643 l 1,32,-1
 1493 643 l 1,33,-1
 1493 -6 l 1,0,-1
EndSplineSet
EndChar

StartChar: Gamma
Encoding: 292 915 36
Width: 1228
VWidth: 0
Flags: W
LayerCount: 2
Fore
SplineSet
143 0 m 1,0,-1
 143 172 l 1,1,-1
 283 172 l 1,2,-1
 283 1352 l 1,3,-1
 145 1352 l 1,4,-1
 145 1516 l 1,5,-1
 1217 1516 l 1,6,-1
 1217 1116 l 1,7,-1
 1012 1116 l 1,8,-1
 1012 1352 l 1,9,-1
 479 1352 l 1,10,-1
 479 172 l 1,11,-1
 635 172 l 1,12,-1
 635 0 l 1,13,-1
 143 0 l 1,0,-1
EndSplineSet
EndChar

StartChar: H
Encoding: 295 72 39
Width: 1843
VWidth: 0
Flags: W
LayerCount: 2
Fore
SplineSet
143 0 m 1,0,-1
 143 172 l 1,1,-1
 287 172 l 1,2,-1
 287 1343 l 1,3,-1
 143 1343 l 1,4,-1
 143 1516 l 1,5,-1
 635 1516 l 1,6,-1
 635 1343 l 1,7,-1
 483 1343 l 1,8,-1
 483 885 l 1,9,-1
 1360 885 l 1,10,-1
 1360 1343 l 1,11,-1
 1208 1343 l 1,12,-1
 1208 1516 l 1,13,-1
 1700 1516 l 1,14,-1
 1700 1343 l 1,15,-1
 1556 1343 l 1,16,-1
 1556 172 l 1,17,-1
 1700 172 l 1,18,-1
 1700 0 l 1,19,-1
 1208 0 l 1,20,-1
 1208 172 l 1,21,-1
 1360 172 l 1,22,-1
 1360 717 l 1,23,-1
 483 717 l 1,24,-1
 483 172 l 1,25,-1
 635 172 l 1,26,-1
 635 0 l 1,27,-1
 143 0 l 1,0,-1
EndSplineSet
EndChar

StartChar: I
Encoding: 296 73 40
Width: 770
VWidth: 0
Flags: W
LayerCount: 2
Fore
SplineSet
143 0 m 1,0,-1
 143 172 l 1,1,-1
 287 172 l 1,2,-1
 287 1343 l 1,3,-1
 143 1343 l 1,4,-1
 143 1516 l 1,5,-1
 627 1516 l 1,6,-1
 627 1343 l 1,7,-1
 483 1343 l 1,8,-1
 483 172 l 1,9,-1
 627 172 l 1,10,-1
 627 0 l 1,11,-1
 143 0 l 1,0,-1
EndSplineSet
EndChar

StartChar: Iogonek
Encoding: 303 302 47
Width: 780
VWidth: 0
Flags: W
LayerCount: 2
Fore
SplineSet
326 -0 m 1,0,1
 143 0 l 1,2,-1
 143 172 l 1,3,-1
 283 172 l 1,4,-1
 283 1343 l 1,5,-1
 145 1343 l 1,6,-1
 145 1516 l 1,7,-1
 637 1516 l 1,8,-1
 637 1343 l 1,9,-1
 479 1343 l 1,10,-1
 479 172 l 1,11,-1
 635 172 l 1,12,-1
 635 0 l 1,13,-1
 631 0 l 1,14,-1
 596 0 l 2,15,16
 508 0 508 0 430 -57.5 c 128,-1,17
 352 -115 352 -115 352 -211 c 0,18,19
 352 -262 352 -262 383 -293 c 128,-1,20
 414 -324 414 -324 465 -324 c 0,21,22
 545 -324 545 -324 594 -301 c 1,23,-1
 637 -428 l 1,24,25
 563 -471 563 -471 459 -471 c 0,26,27
 334 -471 334 -471 256 -414.5 c 128,-1,28
 178 -358 178 -358 178 -260 c 0,29,30
 179 -106 179 -106 326 -0 c 1,0,1
EndSplineSet
EndChar

StartChar: J
Encoding: 304 74 48
Width: 681
VWidth: 0
Flags: W
LayerCount: 2
Fore
SplineSet
274 -238 m 1,0,1
 102 -223 l 1,2,-1
 156 -140 l 2,3,4
 209 -57 209 -57 262 49.5 c 128,-1,5
 315 156 315 156 315 205 c 2,6,-1
 315 1343 l 1,7,-1
 150 1343 l 1,8,-1
 150 1516 l 1,9,-1
 641 1516 l 1,10,-1
 641 1343 l 1,11,-1
 514 1343 l 1,12,-1
 514 172 l 2,13,14
 514 121 514 121 447.5 10.5 c 128,-1,15
 381 -100 381 -100 341 -152.5 c 128,-1,16
 301 -205 301 -205 274 -238 c 1,0,1
EndSplineSet
EndChar

StartChar: K
Encoding: 305 75 49
Width: 1562
VWidth: 0
Flags: W
LayerCount: 2
Fore
SplineSet
143 0 m 1,0,-1
 143 172 l 1,1,-1
 287 172 l 1,2,-1
 287 1343 l 1,3,-1
 145 1343 l 1,4,-1
 145 1516 l 1,5,-1
 637 1516 l 1,6,-1
 637 1343 l 1,7,-1
 483 1343 l 1,8,-1
 483 172 l 1,9,-1
 635 172 l 1,10,-1
 635 0 l 1,11,-1
 143 0 l 1,0,-1
485 774 m 1,12,-1
 1147 1343 l 1,13,-1
 1147 1516 l 1,14,-1
 1495 1516 l 1,15,-1
 1495 1343 l 1,16,-1
 1376 1343 l 1,17,-1
 712 784 l 1,18,-1
 1333 172 l 1,19,-1
 1495 172 l 1,20,-1
 1495 0 l 1,21,-1
 1087 0 l 1,22,-1
 1087 172 l 1,23,-1
 485 774 l 1,12,-1
EndSplineSet
EndChar

StartChar: L
Encoding: 307 76 51
Width: 1296
VWidth: 0
Flags: W
LayerCount: 2
Fore
SplineSet
1096 449 m 1,0,-1
 1286 449 l 1,1,-1
 1286 0 l 1,2,-1
 143 0 l 1,3,-1
 143 172 l 1,4,-1
 287 172 l 1,5,-1
 287 1343 l 1,6,-1
 143 1343 l 1,7,-1
 143 1516 l 1,8,-1
 635 1516 l 1,9,-1
 635 1343 l 1,10,-1
 483 1343 l 1,11,-1
 483 172 l 1,12,-1
 1006 172 l 2,13,14
 1038 172 1038 172 1067 198.5 c 128,-1,15
 1096 225 1096 225 1096 258 c 2,16,-1
 1096 449 l 1,0,-1
EndSplineSet
EndChar

StartChar: Lslash
Encoding: 311 321 55
Width: 1296
VWidth: 0
Flags: W
LayerCount: 2
Fore
SplineSet
1090 449 m 1,0,-1
 1286 449 l 1,1,-1
 1286 0 l 1,2,-1
 143 0 l 1,3,-1
 143 172 l 1,4,-1
 281 172 l 1,5,-1
 281 473 l 1,6,-1
 143 399 l 1,7,-1
 143 608 l 1,8,-1
 281 682 l 1,9,-1
 281 1343 l 1,10,-1
 143 1343 l 1,11,-1
 143 1516 l 1,12,-1
 635 1516 l 1,13,-1
 635 1343 l 1,14,-1
 477 1343 l 1,15,-1
 477 788 l 1,16,-1
 1038 1090 l 1,17,-1
 1038 881 l 1,18,-1
 477 579 l 1,19,-1
 477 172 l 1,20,-1
 999 172 l 2,21,22
 1032 172 1032 172 1061 198.5 c 128,-1,23
 1090 225 1090 225 1090 258 c 2,24,-1
 1090 449 l 1,0,-1
EndSplineSet
EndChar

StartChar: M
Encoding: 312 77 56
Width: 2174
VWidth: 0
Flags: W
LayerCount: 2
Fore
SplineSet
1552 0 m 1,0,-1
 1552 172 l 1,1,-1
 1716 172 l 1,2,-1
 1716 1337 l 1,3,-1
 1186 0 l 1,4,-1
 1016 0 l 1,5,-1
 479 1338 l 1,6,-1
 479 172 l 1,7,-1
 631 172 l 1,8,-1
 631 0 l 1,9,-1
 143 0 l 1,10,-1
 143 172 l 1,11,-1
 287 172 l 1,12,-1
 287 1325 l 1,13,-1
 143 1325 l 1,14,-1
 143 1516 l 1,15,-1
 623 1516 l 1,16,-1
 1104 207 l 1,17,-1
 1591 1516 l 1,18,-1
 2044 1516 l 1,19,-1
 2044 1325 l 1,20,-1
 1903 1325 l 1,21,-1
 1903 172 l 1,22,-1
 2044 172 l 1,23,-1
 2044 0 l 1,24,-1
 1552 0 l 1,0,-1
EndSplineSet
EndChar

StartChar: N
Encoding: 313 78 57
Width: 1624
VWidth: 0
Flags: W
LayerCount: 2
Fore
SplineSet
143 0 m 1,0,-1
 143 172 l 1,1,-1
 283 172 l 1,2,-1
 283 1343 l 1,3,-1
 147 1343 l 1,4,-1
 147 1518 l 1,5,-1
 547 1518 l 1,6,-1
 1247 268 l 1,7,-1
 1247 1343 l 1,8,-1
 1077 1343 l 1,9,-1
 1077 1516 l 1,10,-1
 1569 1516 l 1,11,-1
 1569 1343 l 1,12,-1
 1440 1343 l 1,13,-1
 1440 0 l 1,14,-1
 1184 0 l 1,15,-1
 479 1258 l 1,16,-1
 479 172 l 1,17,-1
 635 172 l 1,18,-1
 635 0 l 1,19,-1
 143 0 l 1,0,-1
EndSplineSet
EndChar

StartChar: O
Encoding: 319 79 63
Width: 1601
VWidth: 0
Flags: W
LayerCount: 2
Fore
SplineSet
800.5 158 m 128,-1,1
 1032 158 1032 158 1176.5 333 c 128,-1,2
 1321 508 1321 508 1321 758 c 0,3,4
 1321 1006 1321 1006 1175.5 1183 c 128,-1,5
 1030 1360 1030 1360 801 1360 c 0,6,7
 569 1360 569 1360 422.5 1184 c 128,-1,8
 276 1008 276 1008 276 758 c 0,9,10
 276 510 276 510 422.5 334 c 128,-1,0
 569 158 569 158 800.5 158 c 128,-1,1
801 -31 m 0,11,12
 484 -31 484 -31 278 197.5 c 128,-1,13
 72 426 72 426 72 758 c 128,-1,14
 72 1090 72 1090 279 1318 c 128,-1,15
 486 1546 486 1546 801 1546 c 0,16,17
 1118 1546 1118 1546 1323 1319 c 128,-1,18
 1528 1092 1528 1092 1528 758 c 0,19,20
 1528 426 1528 426 1322 197.5 c 128,-1,21
 1116 -31 1116 -31 801 -31 c 0,11,12
EndSplineSet
EndChar

StartChar: OE
Encoding: 320 338 64
Width: 2334
VWidth: 0
Flags: W
LayerCount: 2
Fore
SplineSet
800.5 158 m 128,-1,1
 1032 158 1032 158 1176.5 333 c 128,-1,2
 1321 508 1321 508 1321 758 c 0,3,4
 1321 1006 1321 1006 1175.5 1183 c 128,-1,5
 1030 1360 1030 1360 801 1360 c 0,6,7
 569 1360 569 1360 422.5 1184 c 128,-1,8
 276 1008 276 1008 276 758 c 0,9,10
 276 510 276 510 422.5 334 c 128,-1,0
 569 158 569 158 800.5 158 c 128,-1,1
1335 0 m 1,11,-1
 1335 213 l 1,12,13
 1236 98 1236 98 1099 33.5 c 128,-1,14
 962 -31 962 -31 801 -31 c 0,15,16
 483 -31 483 -31 277.5 197.5 c 128,-1,17
 72 426 72 426 72 758 c 128,-1,18
 72 1090 72 1090 279 1318 c 128,-1,19
 486 1546 486 1546 801 1546 c 0,20,21
 963 1546 963 1546 1099.5 1482.5 c 128,-1,22
 1236 1419 1236 1419 1335 1305 c 1,23,-1
 1335 1516 l 1,24,-1
 2277 1516 l 1,25,-1
 2277 1087 l 1,26,-1
 2073 1087 l 1,27,-1
 2073 1343 l 1,28,-1
 1532 1343 l 1,29,-1
 1532 858 l 1,30,-1
 1987 858 l 1,31,-1
 1987 686 l 1,32,-1
 1532 686 l 1,33,-1
 1532 172 l 1,34,-1
 2073 172 l 1,35,-1
 2073 428 l 1,36,-1
 2277 428 l 1,37,-1
 2277 0 l 1,38,-1
 1335 0 l 1,11,-1
EndSplineSet
EndChar

StartChar: P
Encoding: 330 80 74
Width: 1271
VWidth: 0
Flags: W
LayerCount: 2
Fore
SplineSet
147 0 m 1,0,-1
 147 172 l 1,1,-1
 287 172 l 1,2,-1
 287 1343 l 1,3,-1
 143 1343 l 1,4,-1
 143 1516 l 1,5,-1
 758 1516 l 2,6,7
 967 1516 967 1516 1095 1409.5 c 128,-1,8
 1223 1303 1223 1303 1223 1106 c 0,9,10
 1223 936 1223 936 1092 819 c 128,-1,11
 961 702 961 702 754 702 c 2,12,-1
 483 702 l 1,13,-1
 483 172 l 1,14,-1
 639 172 l 1,15,-1
 639 0 l 1,16,-1
 147 0 l 1,0,-1
483 866 m 1,17,-1
 758 866 l 2,18,19
 874 866 874 866 945 928.5 c 128,-1,20
 1016 991 1016 991 1016 1106 c 0,21,22
 1016 1343 1016 1343 733 1343 c 2,23,-1
 483 1343 l 1,24,-1
 483 866 l 1,17,-1
EndSplineSet
EndChar

StartChar: Pi
Encoding: 331 928 75
Width: 1781
VWidth: 0
Flags: W
LayerCount: 2
Fore
SplineSet
143 0 m 1,0,-1
 143 172 l 1,1,-1
 287 172 l 1,2,-1
 287 1343 l 1,3,-1
 145 1343 l 1,4,-1
 145 1516 l 1,5,-1
 1638 1516 l 1,6,-1
 1638 1343 l 1,7,-1
 1495 1343 l 1,8,-1
 1495 172 l 1,9,-1
 1638 172 l 1,10,-1
 1638 0 l 1,11,-1
 1147 0 l 1,12,-1
 1147 172 l 1,13,-1
 1298 172 l 1,14,-1
 1298 1343 l 1,15,-1
 483 1343 l 1,16,-1
 483 172 l 1,17,-1
 635 172 l 1,18,-1
 635 0 l 1,19,-1
 143 0 l 1,0,-1
EndSplineSet
EndChar

StartChar: Q
Encoding: 332 81 76
Width: 1597
VWidth: 0
Flags: W
LayerCount: 2
Fore
SplineSet
800.5 158 m 128,-1,1
 1032 158 1032 158 1176.5 333 c 128,-1,2
 1321 508 1321 508 1321 758 c 0,3,4
 1321 1006 1321 1006 1175.5 1183 c 128,-1,5
 1030 1360 1030 1360 801 1360 c 0,6,7
 569 1360 569 1360 422.5 1184 c 128,-1,8
 276 1008 276 1008 276 758 c 0,9,10
 276 510 276 510 422.5 334 c 128,-1,0
 569 158 569 158 800.5 158 c 128,-1,1
702 -203 m 1,11,12
 702 -24 l 1,13,14
 423 12 423 12 247.5 233 c 128,-1,15
 72 454 72 454 72 758 c 0,16,17
 72 1090 72 1090 279 1318 c 128,-1,18
 486 1546 486 1546 801 1546 c 0,19,20
 1118 1546 1118 1546 1323 1319 c 128,-1,21
 1528 1092 1528 1092 1528 758 c 0,22,23
 1528 452 1528 452 1350.5 231 c 128,-1,24
 1173 10 1173 10 893 -25 c 1,25,26
 931 -36 931 -36 971 -58 c 128,-1,27
 1011 -80 1011 -80 1039.5 -99 c 128,-1,28
 1068 -118 1068 -118 1114 -132.5 c 128,-1,29
 1160 -147 1160 -147 1214 -147 c 0,30,31
 1274 -147 1274 -147 1317 -117.5 c 128,-1,32
 1360 -88 1360 -88 1374 -31 c 1,33,-1
 1526 -100 l 1,34,35
 1503 -207 1503 -207 1410.5 -266.5 c 128,-1,36
 1318 -326 1318 -326 1214 -326 c 0,37,38
 1118 -326 1118 -326 1043.5 -292 c 128,-1,39
 969 -258 969 -258 908 -224 c 128,-1,40
 847 -190 847 -190 786 -190 c 0,41,42
 729 -191 729 -191 702 -203 c 1,11,12
EndSplineSet
EndChar

StartChar: R
Encoding: 333 82 77
Width: 1464
VWidth: 0
Flags: W
LayerCount: 2
Fore
SplineSet
145 0 m 1,0,-1
 145 172 l 1,1,-1
 287 172 l 1,2,-1
 287 1343 l 1,3,-1
 143 1343 l 1,4,-1
 143 1516 l 1,5,-1
 774 1516 l 2,6,7
 983 1516 983 1516 1112 1409.5 c 128,-1,8
 1241 1303 1241 1303 1241 1106 c 0,9,10
 1241 992 1241 992 1163.5 891 c 128,-1,11
 1086 790 1086 790 968 750 c 1,12,13
 1021 727 1021 727 1068.5 665 c 128,-1,14
 1116 603 1116 603 1137 520 c 2,15,-1
 1221 190 l 1,16,-1
 1352 190 l 1,17,-1
 1354 0 l 1,18,-1
 1059 0 l 1,19,-1
 946 461 l 2,20,21
 915 586 915 586 852 644 c 128,-1,22
 789 702 789 702 678 702 c 2,23,-1
 483 702 l 1,24,-1
 483 172 l 1,25,-1
 637 172 l 1,26,-1
 637 0 l 1,27,-1
 145 0 l 1,0,-1
483 866 m 1,28,-1
 774 866 l 2,29,30
 891 866 891 866 962.5 927.5 c 128,-1,31
 1034 989 1034 989 1034 1104 c 0,32,33
 1035 1343 1035 1343 750 1343 c 2,34,-1
 483 1343 l 1,35,-1
 483 866 l 1,28,-1
EndSplineSet
EndChar

StartChar: Rastick
Encoding: 335 -1 79
Width: 618
VWidth: 0
Flags: W
LayerCount: 2
Fore
SplineSet
168 31 m 1,0,-1
 55 141 l 1,1,-1
 422 512 l 1,2,-1
 535 399 l 1,3,-1
 168 31 l 1,0,-1
EndSplineSet
EndChar

StartChar: S
Encoding: 338 83 82
Width: 1210
VWidth: 0
Flags: W
LayerCount: 2
Fore
SplineSet
920 1104 m 1,0,-1
 920 1171 l 1,1,2
 902 1253 902 1253 820 1302.5 c 128,-1,3
 738 1352 738 1352 641 1352 c 0,4,5
 496 1352 496 1352 417 1289.5 c 128,-1,6
 338 1227 338 1227 338 1133 c 0,7,8
 338 1096 338 1096 344 1066 c 128,-1,9
 350 1036 350 1036 368.5 1013.5 c 128,-1,10
 387 991 387 991 399.5 977 c 128,-1,11
 412 963 412 963 443.5 948.5 c 128,-1,12
 475 934 475 934 486.5 929 c 128,-1,13
 498 924 498 924 538 910.5 c 128,-1,14
 578 897 578 897 584 895 c 2,15,-1
 786 829 l 2,16,17
 977 768 977 768 1068 671 c 128,-1,18
 1159 574 1159 574 1159 406 c 0,19,20
 1159 217 1159 217 1011.5 92 c 128,-1,21
 864 -33 864 -33 639 -33 c 0,22,23
 254 -32 254 -32 156 283 c 1,24,-1
 80 283 l 1,25,-1
 80 455 l 1,26,-1
 332 455 l 1,27,-1
 332 406 l 2,28,29
 332 287 332 287 418 223.5 c 128,-1,30
 504 160 504 160 649 160 c 0,31,32
 786 160 786 160 865 222 c 128,-1,33
 944 284 944 284 944 395 c 0,34,35
 944 453 944 453 920.5 498 c 128,-1,36
 897 543 897 543 851 572.5 c 128,-1,37
 805 602 805 602 767 619.5 c 128,-1,38
 729 637 729 637 674 653 c 2,39,-1
 455 715 l 1,40,41
 133 813 133 813 133 1120 c 0,42,43
 133 1300 133 1300 271 1419 c 128,-1,44
 409 1538 409 1538 647 1538 c 0,45,46
 804 1538 804 1538 917 1468 c 128,-1,47
 1030 1398 1030 1398 1090 1276 c 1,48,-1
 1165 1276 l 1,49,-1
 1165 1104 l 1,50,-1
 920 1104 l 1,0,-1
EndSplineSet
EndChar

StartChar: T
Encoding: 344 84 88
Width: 1433
VWidth: 0
Flags: W
LayerCount: 2
Fore
SplineSet
453 0 m 1,0,-1
 453 172 l 1,1,-1
 592 172 l 1,2,-1
 592 1352 l 1,3,-1
 246 1352 l 1,4,-1
 246 1116 l 1,5,-1
 41 1116 l 1,6,-1
 41 1516 l 1,7,-1
 1393 1516 l 1,8,-1
 1393 1116 l 1,9,-1
 1188 1116 l 1,10,-1
 1188 1352 l 1,11,-1
 788 1352 l 1,12,-1
 788 172 l 1,13,-1
 944 172 l 1,14,-1
 944 0 l 1,15,-1
 453 0 l 1,0,-1
EndSplineSet
EndChar

StartChar: Thorn
Encoding: 347 222 91
Width: 1323
VWidth: 0
Flags: W
LayerCount: 2
Fore
SplineSet
104 0 m 1,0,-1
 104 172 l 1,1,-1
 244 172 l 1,2,-1
 244 1343 l 1,3,-1
 106 1343 l 1,4,-1
 106 1516 l 1,5,-1
 598 1516 l 1,6,-1
 598 1343 l 1,7,-1
 440 1343 l 1,8,-1
 440 1210 l 1,9,-1
 768 1208 l 2,10,11
 977 1208 977 1208 1106 1102 c 128,-1,12
 1235 996 1235 996 1235 799 c 0,13,14
 1235 629 1235 629 1103 512 c 128,-1,15
 971 395 971 395 764 395 c 2,16,-1
 440 395 l 1,17,-1
 440 172 l 1,18,-1
 596 172 l 1,19,-1
 596 0 l 1,20,-1
 104 0 l 1,0,-1
440 559 m 1,21,-1
 768 559 l 2,22,23
 885 559 885 559 956.5 621.5 c 128,-1,24
 1028 684 1028 684 1028 799 c 0,25,26
 1028 1036 1028 1036 743 1036 c 2,27,-1
 440 1036 l 1,28,-1
 440 559 l 1,21,-1
EndSplineSet
EndChar

StartChar: U
Encoding: 348 85 92
Width: 1558
VWidth: 0
Flags: W
LayerCount: 2
Fore
SplineSet
1219 1343 m 1,0,-1
 1055 1343 l 1,1,-1
 1055 1516 l 1,2,-1
 1546 1516 l 1,3,-1
 1546 1343 l 1,4,-1
 1411 1343 l 1,5,-1
 1411 659 l 2,6,7
 1411 342 1411 342 1245 161 c 128,-1,8
 1079 -20 1079 -20 825 -20 c 0,9,10
 575 -20 575 -20 413.5 158 c 128,-1,11
 252 336 252 336 252 641 c 2,12,-1
 252 1343 l 1,13,-1
 113 1343 l 1,14,-1
 113 1516 l 1,15,-1
 604 1516 l 1,16,-1
 604 1343 l 1,17,-1
 449 1343 l 1,18,-1
 449 641 l 2,19,20
 449 395 449 395 551.5 280.5 c 128,-1,21
 654 166 654 166 834 166 c 0,22,23
 1219 166 1219 166 1219 641 c 2,24,-1
 1219 1343 l 1,0,-1
EndSplineSet
EndChar

StartChar: Uogonek
Encoding: 355 370 99
Width: 1558
VWidth: 0
Flags: W
LayerCount: 2
Fore
SplineSet
1411 1343 m 1,0,-1
 1411 659 l 2,1,2
 1411 474 1411 474 1351.5 332.5 c 128,-1,3
 1292 191 1292 191 1185 103 c 1,4,5
 1118 37 1118 37 1085 -2.5 c 128,-1,6
 1052 -42 1052 -42 1032 -89 c 128,-1,7
 1012 -136 1012 -136 1012 -190 c 0,8,9
 1012 -254 1012 -254 1051 -289 c 128,-1,10
 1090 -324 1090 -324 1145 -324 c 0,11,12
 1229 -324 1229 -324 1286 -297 c 1,13,-1
 1329 -420 l 1,14,15
 1237 -471 1237 -471 1122 -471 c 0,16,17
 1004 -471 1004 -471 921 -407.5 c 128,-1,18
 838 -344 838 -344 838 -221 c 0,19,20
 838 -162 838 -162 856.5 -111 c 128,-1,21
 875 -60 875 -60 911 -15 c 1,22,23
 869 -20 869 -20 825 -20 c 0,24,25
 575 -20 575 -20 413.5 158 c 128,-1,26
 252 336 252 336 252 641 c 2,27,-1
 252 1343 l 1,28,-1
 113 1343 l 1,29,-1
 113 1516 l 1,30,-1
 604 1516 l 1,31,-1
 604 1343 l 1,32,-1
 449 1343 l 1,33,-1
 449 641 l 2,34,35
 449 395 449 395 551.5 280.5 c 128,-1,36
 654 166 654 166 834 166 c 0,37,38
 1219 166 1219 166 1219 641 c 2,39,-1
 1219 1343 l 1,40,-1
 1055 1343 l 1,41,-1
 1055 1516 l 1,42,-1
 1546 1516 l 1,43,-1
 1546 1343 l 1,44,-1
 1411 1343 l 1,0,-1
EndSplineSet
EndChar

StartChar: V
Encoding: 357 86 101
Width: 1484
VWidth: 0
Flags: W
LayerCount: 2
Fore
SplineSet
608 0 m 1,0,-1
 124 1343 l 1,1,-1
 -10 1343 l 1,2,-1
 -10 1516 l 1,3,-1
 481 1516 l 1,4,-1
 481 1343 l 1,5,-1
 351 1343 l 1,6,-1
 739 174 l 1,7,-1
 1152 1343 l 1,8,-1
 1014 1343 l 1,9,-1
 1014 1516 l 1,10,-1
 1505 1516 l 1,11,-1
 1505 1343 l 1,12,-1
 1374 1343 l 1,13,-1
 883 0 l 1,14,-1
 608 0 l 1,0,-1
EndSplineSet
EndChar

StartChar: W
Encoding: 358 87 102
Width: 2560
VWidth: 0
Flags: W
LayerCount: 2
Fore
SplineSet
588 0 m 1,0,-1
 141 1343 l 1,1,-1
 6 1343 l 1,2,-1
 6 1516 l 1,3,-1
 498 1516 l 1,4,-1
 498 1343 l 1,5,-1
 372 1343 l 1,6,-1
 737 178 l 1,7,-1
 1124 1516 l 1,8,-1
 1423 1516 l 1,9,-1
 1835 178 l 1,10,-1
 2209 1343 l 1,11,-1
 2060 1343 l 1,12,-1
 2060 1516 l 1,13,-1
 2552 1516 l 1,14,-1
 2552 1343 l 1,15,-1
 2418 1343 l 1,16,-1
 1985 0 l 1,17,-1
 1679 0 l 1,18,-1
 1268 1321 l 1,19,-1
 891 0 l 1,20,-1
 588 0 l 1,0,-1
EndSplineSet
EndChar

StartChar: X
Encoding: 359 88 103
Width: 1552
VWidth: 0
Flags: W
LayerCount: 2
Fore
SplineSet
170 0 m 1,0,-1
 170 172 l 1,1,-1
 269 172 l 1,2,-1
 702 775 l 1,3,-1
 293 1343 l 1,4,-1
 170 1343 l 1,5,-1
 170 1516 l 1,6,-1
 662 1516 l 1,7,-1
 662 1343 l 1,8,-1
 516 1343 l 1,9,-1
 811 928 l 1,10,-1
 1109 1343 l 1,11,-1
 950 1343 l 1,12,-1
 950 1516 l 1,13,-1
 1442 1516 l 1,14,-1
 1442 1343 l 1,15,-1
 1330 1343 l 1,16,-1
 920 775 l 1,17,-1
 1348 172 l 1,18,-1
 1442 172 l 1,19,-1
 1442 0 l 1,20,-1
 950 0 l 1,21,-1
 950 172 l 1,22,-1
 1135 172 l 1,23,-1
 811 623 l 1,24,-1
 485 172 l 1,25,-1
 662 172 l 1,26,-1
 662 0 l 1,27,-1
 170 0 l 1,0,-1
EndSplineSet
EndChar

StartChar: Y
Encoding: 360 89 104
Width: 1353
VWidth: 0
Flags: W
LayerCount: 2
Fore
SplineSet
432 0 m 1,0,-1
 432 172 l 1,1,-1
 571 172 l 1,2,-1
 571 701 l 1,3,-1
 169 1343 l 1,4,-1
 51 1343 l 1,5,-1
 51 1516 l 1,6,-1
 543 1516 l 1,7,-1
 543 1343 l 1,8,-1
 398 1343 l 1,9,-1
 684 856 l 1,10,-1
 989 1343 l 1,11,-1
 831 1343 l 1,12,-1
 831 1516 l 1,13,-1
 1323 1516 l 1,14,-1
 1323 1343 l 1,15,-1
 1194 1343 l 1,16,-1
 768 698 l 1,17,-1
 768 172 l 1,18,-1
 924 172 l 1,19,-1
 924 0 l 1,20,-1
 432 0 l 1,0,-1
EndSplineSet
EndChar

StartChar: Z
Encoding: 363 90 107
Width: 1214
VWidth: 0
Flags: W
LayerCount: 2
Fore
SplineSet
1163 1516 m 1,0,-1
 1163 1292 l 1,1,-1
 250 172 l 1,2,-1
 961 172 l 1,3,-1
 961 424 l 1,4,-1
 1157 424 l 1,5,-1
 1157 0 l 1,6,-1
 51 0 l 1,7,-1
 51 227 l 1,8,-1
 951 1343 l 1,9,-1
 264 1343 l 1,10,-1
 264 1087 l 1,11,-1
 68 1087 l 1,12,-1
 68 1516 l 1,13,-1
 1163 1516 l 1,0,-1
EndSplineSet
EndChar

StartChar: a
Encoding: 369 97 113
Width: 1120
VWidth: 0
Flags: W
LayerCount: 2
Fore
SplineSet
893 172 m 1,0,1
 1010 172 l 1,2,-1
 1010 0 l 1,3,-1
 893 0 l 1,4,-1
 715 0 l 1,5,-1
 709 0 l 1,6,-1
 709 97 l 1,7,8
 576 -29 576 -29 416 -29 c 0,9,10
 266 -29 266 -29 168 59 c 128,-1,11
 70 147 70 147 70 274 c 0,12,13
 70 367 70 367 111 435.5 c 128,-1,14
 152 504 152 504 218.5 538.5 c 128,-1,15
 285 573 285 573 355.5 589.5 c 128,-1,16
 426 606 426 606 500 606 c 0,17,18
 628 606 628 606 710 585 c 1,19,-1
 711 680 l 2,20,21
 711 786 711 786 651 840.5 c 128,-1,22
 591 895 591 895 489 895 c 0,23,24
 312 895 312 895 197 819 c 1,25,-1
 135 948 l 1,26,27
 307 1059 307 1059 508 1059 c 0,28,29
 895 1059 895 1059 895 690 c 0,30,31
 895 649 895 649 895 603.5 c 128,-1,32
 895 558 895 558 895 518 c 128,-1,33
 895 478 895 478 894.5 431 c 128,-1,34
 894 384 894 384 894 345 c 128,-1,35
 894 306 894 306 893.5 258 c 128,-1,36
 893 210 893 210 893 172 c 1,0,1
710 477 m 1,37,-1
 494 477 l 2,38,39
 383 477 383 477 316.5 429 c 128,-1,40
 250 381 250 381 250 295 c 0,41,42
 250 213 250 213 306.5 170 c 128,-1,43
 363 127 363 127 457 127 c 0,44,45
 528 127 528 127 598 159.5 c 128,-1,46
 668 192 668 192 709 239 c 1,47,-1
 710 477 l 1,37,-1
EndSplineSet
EndChar

StartChar: aasigndeva
Encoding: 372 2366 116
Width: 720
VWidth: 0
Flags: W
AnchorPoint: "DVAnchor0" 362 7 basechar 0
AnchorPoint: "DVAnchor3" 365 1360 basechar 0
LayerCount: 2
Fore
SplineSet
741 1376 m 1,0,-1
 741 1204 l 1,1,-1
 451 1204 l 1,2,-1
 451 172 l 1,3,-1
 606 172 l 1,4,-1
 606 0 l 1,5,-1
 451 0 l 1,6,-1
 270 0 l 1,7,-1
 115 0 l 1,8,-1
 115 172 l 1,9,-1
 270 172 l 1,10,-1
 270 1204 l 1,11,-1
 -20 1204 l 1,12,-1
 -20 1376 l 1,13,-1
 741 1376 l 1,0,-1
EndSplineSet
EndChar

StartChar: abbreviationsigndeva
Encoding: 373 2416 117
Width: 1116
VWidth: 0
Flags: W
LayerCount: 2
Fore
SplineSet
528 844 m 128,-1,1
 616 844 616 844 679.5 906.5 c 128,-1,2
 743 969 743 969 743 1057 c 128,-1,3
 743 1145 743 1145 679.5 1208.5 c 128,-1,4
 616 1272 616 1272 528 1272 c 128,-1,5
 440 1272 440 1272 377.5 1208.5 c 128,-1,6
 315 1145 315 1145 315 1057 c 128,-1,7
 315 969 315 969 377.5 906.5 c 128,-1,0
 440 844 440 844 528 844 c 128,-1,1
885 1060.5 m 128,-1,9
 885 915 885 915 781.5 813 c 128,-1,10
 678 711 678 711 530.5 711 c 128,-1,11
 383 711 383 711 279.5 813 c 128,-1,12
 176 915 176 915 176 1060.5 c 128,-1,13
 176 1206 176 1206 279.5 1307.5 c 128,-1,14
 383 1409 383 1409 530.5 1409 c 128,-1,15
 678 1409 678 1409 781.5 1307.5 c 128,-1,8
 885 1206 885 1206 885 1060.5 c 128,-1,9
EndSplineSet
EndChar

StartChar: acombiningletterdeva
Encoding: 377 43242 121
Width: 0
VWidth: 0
Flags: W
AnchorPoint: "DVAnchor3" -492 1229 mark 0
LayerCount: 2
Fore
SplineSet
-162 1958 m 1,0,-1
 -162 1835 l 1,1,-1
 -238 1835 l 1,2,-1
 -238 1329 l 1,3,-1
 -369 1329 l 1,4,-1
 -369 1532 l 1,5,-1
 -449 1532 l 1,6,7
 -453 1446 -453 1446 -516.5 1394.5 c 128,-1,8
 -580 1343 -580 1343 -670 1343 c 0,9,10
 -854 1344 -854 1344 -954 1526 c 1,11,-1
 -864 1577 l 1,12,13
 -793 1446 -793 1446 -670 1446 c 0,14,15
 -610 1446 -610 1446 -584.5 1469.5 c 128,-1,16
 -559 1493 -559 1493 -559 1542 c 0,17,18
 -559 1579 -559 1579 -594 1597.5 c 128,-1,19
 -629 1616 -629 1616 -668 1616 c 0,20,21
 -671 1616 -671 1616 -674 1616 c 2,22,-1
 -739 1616 l 1,23,-1
 -739 1718 l 1,24,-1
 -674 1718 l 2,25,26
 -637 1718 -637 1718 -607.5 1738.5 c 128,-1,27
 -578 1759 -578 1759 -578 1788 c 0,28,29
 -578 1827 -578 1827 -606.5 1847.5 c 128,-1,30
 -635 1868 -635 1868 -676 1868 c 0,31,32
 -733 1868 -733 1868 -803 1833 c 1,33,-1
 -848 1923 l 1,34,35
 -754 1970 -754 1970 -676 1970 c 0,36,37
 -588 1970 -588 1970 -527.5 1919 c 128,-1,38
 -467 1868 -467 1868 -467 1788 c 0,39,40
 -467 1722 -467 1722 -518 1674 c 1,41,42
 -512 1670 -512 1670 -506 1665 c 128,-1,43
 -500 1660 -500 1660 -495 1655 c 1,44,-1
 -369 1655 l 1,45,-1
 -369 1835 l 1,46,-1
 -444 1835 l 1,47,-1
 -444 1958 l 1,48,-1
 -162 1958 l 1,0,-1
EndSplineSet
EndChar

StartChar: acute
Encoding: 378 180 122
Width: 645
VWidth: 0
Flags: W
LayerCount: 2
Fore
SplineSet
84 1178 m 1,0,-1
 297 1477 l 1,1,-1
 537 1477 l 1,2,-1
 537 1460 l 1,3,-1
 238 1178 l 1,4,-1
 84 1178 l 1,0,-1
EndSplineSet
EndChar

StartChar: adeva
Encoding: 380 2309 124
Width: 1806
VWidth: 0
Flags: W
AnchorPoint: "DVAnchor3" 1448 1360 basechar 0
LayerCount: 2
Fore
SplineSet
1827 1376 m 1,0,-1
 1827 1204 l 1,1,-1
 1536 1204 l 1,2,-1
 1536 172 l 1,3,-1
 1692 172 l 1,4,-1
 1692 0 l 1,5,-1
 1536 0 l 1,6,-1
 1356 0 l 1,7,-1
 1200 0 l 1,8,-1
 1200 172 l 1,9,-1
 1356 172 l 1,10,-1
 1356 516 l 1,11,-1
 1033 516 l 1,12,13
 1036 493 1036 493 1036 469 c 0,14,15
 1036 289 1036 289 919.5 187.5 c 128,-1,16
 803 86 803 86 639 86 c 0,17,18
 578 86 578 86 517.5 101.5 c 128,-1,19
 457 117 457 117 383 155 c 128,-1,20
 309 193 309 193 238.5 272.5 c 128,-1,21
 168 352 168 352 113 467 c 1,22,-1
 246 535 l 1,23,24
 360 367 360 367 439.5 312.5 c 128,-1,25
 519 258 519 258 621 258 c 0,26,27
 717 258 717 258 786.5 314.5 c 128,-1,28
 856 371 856 371 856 469 c 0,29,30
 856 559 856 559 795.5 623.5 c 128,-1,31
 735 688 735 688 645 688 c 0,32,33
 639 688 639 688 633 688 c 2,34,-1
 502 688 l 1,35,-1
 502 836 l 1,36,-1
 633 836 l 2,37,38
 711 836 711 836 766 898 c 128,-1,39
 821 960 821 960 821 1040 c 0,40,41
 821 1124 821 1124 766 1177.5 c 128,-1,42
 711 1231 711 1231 629 1231 c 0,43,44
 516 1231 516 1231 383 1151 c 1,45,-1
 313 1274 l 1,46,47
 385 1321 385 1321 423 1342.5 c 128,-1,48
 461 1364 461 1364 525 1383.5 c 128,-1,49
 589 1403 589 1403 659 1403 c 0,50,51
 788 1403 788 1403 894.5 1298.5 c 128,-1,52
 1001 1194 1001 1194 1001 1040 c 0,53,54
 1002 879 1002 879 868 772 c 1,55,56
 924 737 924 737 963 686 c 1,57,-1
 1356 686 l 1,58,-1
 1356 1204 l 1,59,-1
 1065 1204 l 1,60,-1
 1065 1376 l 1,61,-1
 1827 1376 l 1,0,-1
EndSplineSet
Substitution2: "Single Substitution lookup 36 subtable" adeva_alt1
EndChar

StartChar: adeva_alt1
Encoding: 381 -1 125
Width: 1806
VWidth: 0
Flags: W
AnchorPoint: "DVAnchor0" 1448 7 basechar 0
LayerCount: 2
Fore
SplineSet
1827 1376 m 1,0,-1
 1827 1204 l 1,1,-1
 1536 1204 l 1,2,-1
 1536 0 l 1,3,-1
 1356 0 l 1,4,-1
 1356 516 l 1,5,-1
 1033 516 l 1,6,7
 1036 493 1036 493 1036 469 c 0,8,9
 1036 289 1036 289 919.5 187.5 c 128,-1,10
 803 86 803 86 639 86 c 0,11,12
 578 86 578 86 517.5 101.5 c 128,-1,13
 457 117 457 117 383 155 c 128,-1,14
 309 193 309 193 238.5 272.5 c 128,-1,15
 168 352 168 352 113 467 c 1,16,-1
 246 535 l 1,17,18
 360 367 360 367 439.5 312.5 c 128,-1,19
 519 258 519 258 621 258 c 0,20,21
 717 258 717 258 786.5 314.5 c 128,-1,22
 856 371 856 371 856 469 c 0,23,24
 856 559 856 559 795.5 623.5 c 128,-1,25
 735 688 735 688 645 688 c 0,26,27
 639 688 639 688 633 688 c 2,28,29
 502 688 l 1,30,-1
 502 836 l 1,31,-1
 633 836 l 2,32,33
 711 836 711 836 766 898 c 128,-1,34
 821 960 821 960 821 1040 c 0,35,36
 821 1124 821 1124 766 1177.5 c 128,-1,37
 711 1231 711 1231 629 1231 c 0,38,39
 516 1231 516 1231 383 1151 c 1,40,-1
 313 1274 l 1,41,42
 385 1321 385 1321 423 1342.5 c 128,-1,43
 461 1364 461 1364 525 1383.5 c 128,-1,44
 589 1403 589 1403 659 1403 c 0,45,46
 788 1403 788 1403 894.5 1298.5 c 128,-1,47
 1001 1194 1001 1194 1001 1040 c 0,48,49
 1002 879 1002 879 868 772 c 1,50,51
 924 737 924 737 963 686 c 1,52,-1
 1356 686 l 1,53,-1
 1356 1204 l 1,54,-1
 1065 1204 l 1,55,-1
 1065 1376 l 1,56,-1
 1827 1376 l 1,0,-1
EndSplineSet
EndChar

StartChar: ae
Encoding: 383 230 127
Width: 1783
VWidth: 0
Flags: W
LayerCount: 2
Fore
SplineSet
884 639 m 1,0,1
 1421 639 l 1,2,3
 1403 907 1403 907 1165 907 c 128,-1,4
 927 907 927 907 884 639 c 1,0,1
693 590 m 2,5,6
 694 680 l 2,7,8
 696 786 696 786 635.5 840.5 c 128,-1,9
 575 895 575 895 471 895 c 0,10,11
 293 895 293 895 178 819 c 1,12,-1
 117 948 l 1,13,14
 288 1059 288 1059 489 1059 c 0,15,16
 730 1059 730 1059 822 914 c 1,17,18
 954 1063 954 1063 1178 1063 c 0,19,20
 1559 1063 1559 1063 1612 647 c 0,21,22
 1620 580 1620 580 1620 494 c 1,23,-1
 875 494 l 1,24,25
 875 490 875 490 875 486 c 0,26,27
 876 407 876 407 899 344 c 0,28,29
 936 246 936 246 1016 194.5 c 128,-1,30
 1096 143 1096 143 1202 143 c 0,31,32
 1360 144 1360 144 1520 236 c 1,33,-1
 1595 109 l 1,34,35
 1395 -29 1395 -29 1176 -29 c 0,36,37
 931 -28 931 -28 800 143 c 1,38,39
 738 64 738 64 633.5 17.5 c 128,-1,40
 529 -29 529 -29 418 -29 c 0,41,42
 254 -29 254 -29 152.5 59 c 128,-1,43
 51 147 51 147 51 274 c 0,44,45
 51 367 51 367 92 435.5 c 128,-1,46
 133 504 133 504 199.5 538.5 c 128,-1,47
 266 573 266 573 336.5 589.5 c 128,-1,48
 407 606 407 606 481 606 c 0,49,50
 611 606 611 606 693 585 c 1,51,52
 693 587 693 587 693 590 c 2,5,6
691 477 m 1,53,-1
 475 477 l 2,54,55
 365 477 365 477 298 429 c 128,-1,56
 231 381 231 381 231 295 c 0,57,58
 231 213 231 213 287.5 170 c 128,-1,59
 344 127 344 127 438 127 c 0,60,61
 624 127 624 127 735 260 c 1,62,63
 697 356 697 356 691 477 c 1,53,-1
EndSplineSet
EndChar

StartChar: aisign_ra_virama.alt1
Encoding: 386 -1 130
Width: 0
VWidth: 0
Flags: W
AnchorPoint: "DVAnchor3" -272 1284 mark 0
LayerCount: 2
Fore
SplineSet
-772 1462 m 1,0,-1
 -772 1602 l 1,1,2
 -735 1616 -735 1616 -676 1616 c 0,3,4
 -605 1616 -605 1616 -519 1567 c 1,5,-1
 -522 1571 l 2,6,7
 -575 1642 -575 1642 -652 1690.5 c 128,-1,8
 -729 1739 -729 1739 -799 1739 c 2,9,-1
 -874 1739 l 1,10,-1
 -874 1878 l 1,11,-1
 -778 1892 l 1,12,13
 -572 1892 -572 1892 -455 1710 c 2,14,-1
 -422 1659 l 1,15,16
 -377 1731 -377 1731 -291 1769.5 c 128,-1,17
 -205 1808 -205 1808 -100 1808 c 2,18,19
 -18 1808 l 1,20,-1
 -18 1638 l 1,21,-1
 -100 1638 l 2,22,23
 -178 1638 -178 1638 -230.5 1599.5 c 128,-1,24
 -283 1561 -283 1561 -283 1491 c 0,25,26
 -283 1452 -283 1452 -253 1397 c 1,27,-1
 -184 1290 l 1,28,-1
 -209 1290 l 1,29,-1
 -317 1290 l 1,30,-1
 -375 1290 l 1,31,-1
 -399 1321 l 2,32,33
 -453 1386 -453 1386 -516.5 1419 c 128,-1,34
 -580 1452 -580 1452 -617.5 1457 c 128,-1,35
 -655 1462 -655 1462 -721 1462 c 2,36,-1
 -772 1462 l 1,0,-1
EndSplineSet
Ligature2: "AboveBaseSubstitutionslookup subtable" aisigndeva radeva_viramadeva
EndChar

StartChar: aisign_ra_virama_anusvara
Encoding: 387 -1 131
Width: 0
VWidth: 0
Flags: W
AnchorPoint: "DVAnchor3" -541 1270 mark 0
LayerCount: 2
Fore
SplineSet
-1010 1460 m 1,0,-1
 -1010 1599 l 1,1,2
 -972 1614 -972 1614 -913 1614 c 0,3,4
 -843 1614 -843 1614 -757 1565 c 1,5,-1
 -760 1569 l 2,6,7
 -813 1640 -813 1640 -889.5 1688.5 c 128,-1,8
 -966 1737 -966 1737 -1036 1737 c 2,9,-1
 -1112 1737 l 1,10,-1
 -1112 1876 l 1,11,-1
 -1016 1890 l 1,12,13
 -809 1890 -809 1890 -692 1708 c 2,14,-1
 -660 1658 l 1,15,16
 -615 1730 -615 1730 -529.5 1769 c 128,-1,17
 -444 1808 -444 1808 -338 1808 c 2,18,-1
 -256 1808 l 1,19,-1
 -256 1638 l 1,20,-1
 -338 1638 l 2,21,22
 -416 1638 -416 1638 -468 1599.5 c 128,-1,23
 -520 1561 -520 1561 -520 1491 c 0,24,25
 -520 1447 -520 1447 -482 1381 c 1,26,-1
 -458 1344 l 2,27,28
 -456 1341 -456 1341 -453 1337.5 c 128,-1,29
 -450 1334 -450 1334 -449 1331 c 2,30,-1
 -422 1288 l 1,31,-1
 -446 1288 l 1,32,-1
 -555 1288 l 1,33,-1
 -612 1288 l 1,34,-1
 -637 1319 l 2,35,36
 -690 1384 -690 1384 -753.5 1417 c 128,-1,37
 -817 1450 -817 1450 -854.5 1455 c 128,-1,38
 -892 1460 -892 1460 -958 1460 c 2,39,-1
 -1010 1460 l 1,0,-1
-449 1505 m 128,-1,41
 -449 1540 -449 1540 -423 1565.5 c 128,-1,42
 -397 1591 -397 1591 -362.5 1591 c 128,-1,43
 -328 1591 -328 1591 -302 1565.5 c 128,-1,44
 -276 1540 -276 1540 -276 1505 c 128,-1,45
 -276 1470 -276 1470 -302 1444.5 c 128,-1,46
 -328 1419 -328 1419 -362.5 1419 c 128,-1,47
 -397 1419 -397 1419 -423 1444.5 c 128,-1,40
 -449 1470 -449 1470 -449 1505 c 128,-1,41
EndSplineSet
Ligature2: "AboveBaseSubstitutionslookup subtable" aisigndeva radeva_viramadeva anusvaradeva
EndChar

StartChar: aisigndeva
Encoding: 388 2376 132
Width: 0
VWidth: 0
Flags: W
AnchorPoint: "DVAnchor3" -272 1296 mark 0
LayerCount: 2
Fore
SplineSet
-772 1462 m 1,0,-1
 -772 1602 l 1,1,2
 -735 1616 -735 1616 -676 1616 c 0,3,4
 -605 1616 -605 1616 -519 1567 c 1,5,-1
 -522 1571 l 2,6,7
 -575 1642 -575 1642 -652 1690.5 c 128,-1,8
 -729 1739 -729 1739 -799 1739 c 2,9,-1
 -874 1739 l 1,10,-1
 -874 1878 l 1,11,-1
 -778 1892 l 1,12,13
 -572 1892 -572 1892 -455 1710 c 2,14,-1
 -184 1290 l 1,15,-1
 -209 1290 l 1,16,-1
 -317 1290 l 1,17,-1
 -375 1290 l 1,18,-1
 -399 1321 l 2,19,20
 -453 1386 -453 1386 -516.5 1419 c 128,-1,21
 -580 1452 -580 1452 -617.5 1457 c 128,-1,22
 -655 1462 -655 1462 -721 1462 c 2,23,-1
 -772 1462 l 1,0,-1
EndSplineSet
EndChar

StartChar: ampersand
Encoding: 391 38 135
Width: 1468
VWidth: 0
Flags: W
LayerCount: 2
Fore
SplineSet
581 900 m 1,0,1
 722 964 722 964 784 1026 c 1,2,3
 845 1092 845 1092 846 1167 c 0,4,5
 846 1253 846 1253 778.5 1317.5 c 128,-1,6
 711 1382 711 1382 618 1382 c 0,7,8
 520 1382 520 1382 458.5 1321 c 128,-1,9
 397 1260 397 1260 397 1169 c 0,10,11
 397 1071 397 1071 492 983 c 2,12,-1
 581 900 l 1,0,1
1151 371 m 1,13,-1
 1427 115 l 1,14,-1
 1288 -6 l 1,15,-1
 1052 222 l 1,16,17
 861 -14 861 -14 606 -14 c 0,18,19
 411 -14 411 -14 277 113 c 128,-1,20
 143 240 143 240 143 426 c 0,21,22
 143 545 143 545 211 649.5 c 128,-1,23
 279 754 279 754 383 809 c 0,24,25
 402 819 402 819 424 829 c 1,26,-1
 358 893 l 1,27,28
 301 944 301 944 262 1020 c 128,-1,29
 223 1096 223 1096 223 1167 c 0,30,31
 223 1327 223 1327 338 1436.5 c 128,-1,32
 453 1546 453 1546 618 1546 c 0,33,34
 788 1546 788 1546 906 1433.5 c 128,-1,35
 1024 1321 1024 1321 1024 1167 c 0,36,37
 1024 1056 1024 1056 982 988 c 128,-1,38
 940 920 940 920 858 858 c 0,39,40
 837 843 837 843 813 828 c 128,-1,41
 789 813 789 813 765.5 801 c 128,-1,42
 742 789 742 789 715 775 c 1,43,-1
 1023 490 l 1,44,45
 1053 557 1053 557 1073 628 c 128,-1,46
 1093 699 1093 699 1104 764 c 1,47,-1
 1292 764 l 1,48,49
 1252 554 1252 554 1151 371 c 1,13,-1
555 703 m 1,50,51
 506 681 506 681 473 666 c 1,52,53
 405 639 405 639 363.5 572.5 c 128,-1,54
 322 506 322 506 322 430 c 0,55,56
 322 315 322 315 407 237.5 c 128,-1,57
 492 160 492 160 614 160 c 0,58,59
 803 160 803 160 934 336 c 1,60,-1
 555 703 l 1,50,51
EndSplineSet
EndChar

StartChar: anudattadeva
Encoding: 392 2386 136
Width: 0
VWidth: 0
Flags: W
LayerCount: 2
Fore
SplineSet
-227 -385 m 1,0,-1
 -1305 -385 l 1,1,-1
 -1305 -213 l 1,2,-1
 -227 -213 l 1,3,-1
 -227 -385 l 1,0,-1
EndSplineSet
EndChar

StartChar: anusvaradeva
Encoding: 393 2306 137
Width: 0
VWidth: 0
Flags: W
AnchorPoint: "DVAnchor3" -238 1556 mark 0
LayerCount: 2
Fore
SplineSet
-315 1806.5 m 128,-1,1
 -315 1841 -315 1841 -289.5 1866.5 c 128,-1,2
 -264 1892 -264 1892 -229.5 1892 c 128,-1,3
 -195 1892 -195 1892 -169 1866.5 c 128,-1,4
 -143 1841 -143 1841 -143 1806.5 c 128,-1,5
 -143 1772 -143 1772 -169 1746 c 128,-1,6
 -195 1720 -195 1720 -229.5 1720 c 128,-1,7
 -264 1720 -264 1720 -289.5 1746 c 128,-1,0
 -315 1772 -315 1772 -315 1806.5 c 128,-1,1
EndSplineSet
EndChar

StartChar: aogonek
Encoding: 394 261 138
Width: 1042
VWidth: 0
Flags: W
LayerCount: 2
Fore
SplineSet
690 45 m 1,0,-1
 690 97 l 1,1,2
 557 -29 557 -29 397 -29 c 0,3,4
 248 -29 248 -29 149.5 59 c 128,-1,5
 51 147 51 147 51 274 c 0,6,7
 51 367 51 367 92 435.5 c 128,-1,8
 133 504 133 504 199.5 538.5 c 128,-1,9
 266 573 266 573 336.5 589.5 c 128,-1,10
 407 606 407 606 481 606 c 0,11,12
 610 606 610 606 692 585 c 1,13,-1
 692 680 l 2,14,15
 692 786 692 786 632.5 840.5 c 128,-1,16
 573 895 573 895 471 895 c 0,17,18
 293 895 293 895 178 819 c 1,19,-1
 117 948 l 1,20,21
 288 1059 288 1059 489 1059 c 0,22,23
 877 1059 877 1059 877 690 c 0,24,25
 877 649 877 649 876.5 603.5 c 128,-1,26
 876 558 876 558 876 518 c 128,-1,27
 876 478 876 478 876 431 c 128,-1,28
 876 384 876 384 875.5 345 c 128,-1,29
 875 306 875 306 875 258 c 128,-1,30
 875 210 875 210 875 172 c 1,31,-1
 991 172 l 1,32,-1
 991 0 l 1,33,-1
 987 0 l 1,34,-1
 940 0 l 2,35,36
 815 0 815 0 754.5 -73.5 c 128,-1,37
 694 -147 694 -147 694 -225 c 0,38,39
 694 -274 694 -274 725 -300 c 128,-1,40
 756 -326 756 -326 803 -326 c 0,41,42
 860 -326 860 -326 913 -303 c 1,43,-1
 965 -442 l 1,44,45
 942 -457 942 -457 886.5 -471 c 128,-1,46
 831 -485 831 -485 786 -485 c 0,47,48
 649 -485 649 -485 577.5 -419.5 c 128,-1,49
 506 -354 506 -354 506 -270 c 0,50,51
 506 -79 506 -79 692 0 c 1,52,-1
 690 0 l 1,53,-1
 690 45 l 1,0,-1
691 477 m 1,54,-1
 475 477 l 2,55,56
 365 477 365 477 298 429 c 128,-1,57
 231 381 231 381 231 295 c 0,58,59
 231 213 231 213 287.5 170 c 128,-1,60
 344 127 344 127 438 127 c 0,61,62
 510 127 510 127 579.5 159.5 c 128,-1,63
 649 192 649 192 690 239 c 1,64,-1
 691 477 l 1,54,-1
EndSplineSet
EndChar

StartChar: apostrophe
Encoding: 395 700 139
Width: 339
VWidth: 0
Flags: W
LayerCount: 2
Fore
SplineSet
20 1141 m 1,0,-1
 133 1520 l 1,1,-1
 344 1436 l 1,2,-1
 164 1087 l 1,3,-1
 20 1141 l 1,0,-1
EndSplineSet
EndChar

StartChar: asciicircum
Encoding: 398 94 142
Width: 1228
VWidth: 0
Flags: W
LayerCount: 2
Fore
SplineSet
559 1513 m 1,0,-1
 672 1513 l 1,1,-1
 1075 723 l 1,2,-1
 932 723 l 1,3,-1
 617 1350 l 1,4,-1
 297 723 l 1,5,-1
 156 723 l 1,6,-1
 559 1513 l 1,0,-1
EndSplineSet
EndChar

StartChar: asciitilde
Encoding: 399 126 143
Width: 1228
VWidth: 0
Flags: W
LayerCount: 2
Fore
SplineSet
215 369 m 1,0,1
 141 483 l 1,2,3
 235 659 235 659 397 659 c 0,4,5
 481 659 481 659 636 587.5 c 128,-1,6
 791 516 791 516 834 516 c 0,7,8
 924 516 924 516 1014 668 c 1,9,-1
 1087 553 l 1,10,11
 993 377 993 377 831 377 c 0,12,13
 748 377 748 377 593 448.5 c 128,-1,14
 438 520 438 520 395 520 c 0,15,16
 305 521 305 521 215 369 c 1,0,1
EndSplineSet
EndChar

StartChar: ashortdeva
Encoding: 400 2308 144
Width: 1841
VWidth: 0
Flags: W
LayerCount: 2
Fore
SplineSet
111 467 m 1,0,1
 244 535 l 1,2,3
 358 367 358 367 437 312.5 c 128,-1,4
 516 258 516 258 618 258 c 0,5,6
 715 258 715 258 784.5 314.5 c 128,-1,7
 854 371 854 371 854 469 c 0,8,9
 854 559 854 559 793.5 623.5 c 128,-1,10
 733 688 733 688 643 688 c 0,11,12
 637 688 637 688 631 688 c 2,13,-1
 500 688 l 1,14,-1
 500 836 l 1,15,-1
 631 836 l 2,16,17
 709 836 709 836 764 898 c 128,-1,18
 819 960 819 960 819 1040 c 0,19,20
 819 1124 819 1124 764 1177.5 c 128,-1,21
 709 1231 709 1231 627 1231 c 0,22,23
 514 1231 514 1231 381 1151 c 1,24,-1
 311 1274 l 1,25,26
 383 1321 383 1321 421 1342.5 c 128,-1,27
 459 1364 459 1364 523 1383.5 c 128,-1,28
 587 1403 587 1403 657 1403 c 0,29,30
 786 1403 786 1403 892.5 1298.5 c 128,-1,31
 999 1194 999 1194 999 1040 c 0,32,33
 1000 879 1000 879 866 772 c 1,34,35
 917 740 917 740 954.5 695 c 128,-1,36
 992 650 992 650 1013 591.5 c 128,-1,37
 1034 533 1034 533 1034 469 c 0,38,39
 1034 289 1034 289 917.5 187.5 c 128,-1,40
 801 86 801 86 637 86 c 0,41,42
 575 86 575 86 515 101.5 c 128,-1,43
 455 117 455 117 381 155 c 128,-1,44
 307 193 307 193 236.5 272.5 c 128,-1,45
 166 352 166 352 111 467 c 1,0,1
672 1892 m 1,46,-1
 852 1892 l 1,47,-1
 852 1849 l 2,48,49
 852 1796 852 1796 877.5 1779.5 c 128,-1,50
 903 1763 903 1763 977 1763 c 2,51,-1
 1313 1763 l 2,52,53
 1573 1763 1573 1763 1573 1505 c 2,54,-1
 1573 1376 l 1,55,-1
 1864 1376 l 1,56,-1
 1864 1204 l 1,57,-1
 1573 1204 l 1,58,-1
 1573 172 l 1,59,-1
 1729 172 l 1,60,-1
 1729 0 l 1,61,-1
 1573 0 l 1,62,-1
 1393 0 l 1,63,-1
 1237 0 l 1,64,-1
 1237 172 l 1,65,-1
 1393 172 l 1,66,-1
 1393 516 l 1,67,-1
 1167 516 l 1,68,-1
 1167 686 l 1,69,-1
 1393 686 l 1,70,-1
 1393 1204 l 1,71,-1
 1102 1204 l 1,72,-1
 1102 1376 l 1,73,-1
 1393 1376 l 1,74,-1
 1393 1483 l 2,75,76
 1393 1499 1393 1499 1391 1513.5 c 128,-1,77
 1389 1528 1389 1528 1387.5 1538 c 128,-1,78
 1386 1548 1386 1548 1380 1556.5 c 128,-1,79
 1374 1565 1374 1565 1372 1570 c 128,-1,80
 1370 1575 1370 1575 1360 1578 c 128,-1,81
 1350 1581 1350 1581 1345.5 1583 c 128,-1,82
 1341 1585 1341 1585 1327 1586 c 128,-1,83
 1313 1587 1313 1587 1308 1588 c 128,-1,84
 1303 1589 1303 1589 1284 1589 c 128,-1,85
 1265 1589 1265 1589 1257 1589 c 0,86,87
 1190 1591 1190 1591 1010 1591 c 0,88,89
 672 1591 672 1591 672 1806 c 2,90,-1
 672 1892 l 1,46,-1
EndSplineSet
EndChar

StartChar: asterisk
Encoding: 401 42 145
Width: 835
VWidth: 0
Flags: W
LayerCount: 2
Fore
SplineSet
519 1178 m 1,0,-1
 676 963 l 1,1,-1
 567 891 l 1,2,-1
 418 1098 l 1,3,-1
 270 893 l 1,4,-1
 162 963 l 1,5,-1
 317 1175 l 1,6,-1
 59 1257 l 1,7,-1
 98 1382 l 1,8,-1
 350 1301 l 1,9,-1
 350 1546 l 1,10,-1
 483 1546 l 1,11,-1
 483 1296 l 1,12,-1
 731 1376 l 1,13,-1
 768 1257 l 1,14,-1
 519 1178 l 1,0,-1
EndSplineSet
EndChar

StartChar: at
Encoding: 402 64 146
Width: 2310
VWidth: 0
Flags: W
LayerCount: 2
Fore
SplineSet
1405 605 m 1,0,1
 1370 677 1370 677 1299.5 721.5 c 128,-1,2
 1229 766 1229 766 1141 766 c 0,3,4
 1016 766 1016 766 931 682 c 128,-1,5
 846 598 846 598 846 479 c 0,6,7
 846 358 846 358 928 276.5 c 128,-1,8
 1010 195 1010 195 1141 195 c 0,9,10
 1201 195 1201 195 1254 215 c 128,-1,11
 1307 235 1307 235 1344.5 270 c 128,-1,12
 1382 305 1382 305 1405 351 c 1,13,-1
 1405 605 l 1,0,1
1453 120 m 1,14,15
 1321 10 1321 10 1141 10 c 0,16,17
 934 10 934 10 798 146 c 128,-1,18
 662 282 662 282 662 479 c 0,19,20
 662 674 662 674 801 812 c 128,-1,21
 940 950 940 950 1141 950 c 0,22,23
 1285 950 1285 950 1405 873 c 1,24,-1
 1405 956 l 1,25,-1
 1589 956 l 1,26,-1
 1589 293 l 1,27,28
 1602 141 1602 141 1704 141 c 0,29,30
 1776 141 1776 141 1830 181 c 128,-1,31
 1884 221 1884 221 1910.5 285.5 c 128,-1,32
 1937 350 1937 350 1949.5 414.5 c 128,-1,33
 1962 479 1962 479 1962 547 c 0,34,35
 1962 856 1962 856 1723.5 1081.5 c 128,-1,36
 1485 1307 1485 1307 1145 1307 c 128,-1,37
 805 1307 805 1307 567.5 1069.5 c 128,-1,38
 330 832 330 832 330 494 c 0,39,40
 330 154 330 154 567.5 -84 c 128,-1,41
 805 -322 805 -322 1145 -322 c 0,42,43
 1372 -322 1372 -322 1567 -205 c 1,44,-1
 1661 -362 l 1,45,46
 1424 -506 1424 -506 1145 -506 c 0,47,48
 942 -506 942 -506 756.5 -427 c 128,-1,49
 571 -348 571 -348 437 -214 c 128,-1,50
 303 -80 303 -80 224 105.5 c 128,-1,51
 145 291 145 291 145 493.5 c 128,-1,52
 145 696 145 696 224 880.5 c 128,-1,53
 303 1065 303 1065 437 1199 c 128,-1,54
 571 1333 571 1333 756.5 1412 c 128,-1,55
 942 1491 942 1491 1145 1491 c 0,56,57
 1561 1491 1561 1491 1853.5 1212.5 c 128,-1,58
 2146 934 2146 934 2146 547 c 0,59,60
 2146 326 2146 326 2024.5 151.5 c 128,-1,61
 1903 -23 1903 -23 1704 -23 c 0,62,63
 1535 -22 1535 -22 1453 120 c 1,14,15
EndSplineSet
EndChar

StartChar: ausign_ra_virama_anusvara
Encoding: 406 -1 150
Width: 722
VWidth: 0
Flags: W
LayerCount: 2
Fore
SplineSet
463 1562.5 m 128,-1,1
 463 1597 463 1597 488.5 1623 c 128,-1,2
 514 1649 514 1649 549 1649 c 128,-1,3
 584 1649 584 1649 609.5 1623 c 128,-1,4
 635 1597 635 1597 635 1562.5 c 128,-1,5
 635 1528 635 1528 609.5 1502.5 c 128,-1,6
 584 1477 584 1477 549 1477 c 128,-1,7
 514 1477 514 1477 488.5 1502.5 c 128,-1,0
 463 1528 463 1528 463 1562.5 c 128,-1,1
-139 1546 m 1,8,-1
 -139 1686 l 1,9,10
 -102 1700 -102 1700 -43 1700 c 0,11,12
 28 1700 28 1700 114 1651 c 1,13,-1
 111 1655 l 2,14,15
 57 1726 57 1726 -19.5 1774.5 c 128,-1,16
 -96 1823 -96 1823 -166 1823 c 2,17,-1
 -242 1823 l 1,18,-1
 -242 1962 l 1,19,-1
 -145 1976 l 1,20,21
 61 1976 61 1976 178 1794 c 2,22,-1
 211 1743 l 1,23,24
 256 1815 256 1815 341.5 1853.5 c 128,-1,25
 427 1892 427 1892 532 1892 c 2,26,-1
 614 1892 l 1,27,-1
 614 1722 l 1,28,-1
 532 1722 l 2,29,30
 455 1722 455 1722 402.5 1683.5 c 128,-1,31
 350 1645 350 1645 350 1575 c 0,32,33
 350 1536 350 1536 380 1481 c 1,34,-1
 447 1376 l 1,35,-1
 741 1376 l 1,36,-1
 741 1204 l 1,37,-1
 451 1204 l 1,38,-1
 451 172 l 1,39,-1
 606 172 l 1,40,-1
 606 0 l 1,41,-1
 451 0 l 1,42,-1
 270 0 l 1,43,-1
 115 0 l 1,44,-1
 115 172 l 1,45,-1
 270 172 l 1,46,-1
 270 1204 l 1,47,-1
 -20 1204 l 1,48,-1
 -20 1376 l 1,49,-1
 256 1376 l 1,50,-1
 233 1405 l 2,51,52
 180 1470 180 1470 116.5 1503 c 128,-1,53
 53 1536 53 1536 15.5 1541 c 128,-1,54
 -22 1546 -22 1546 -88 1546 c 2,55,-1
 -139 1546 l 1,8,-1
EndSplineSet
Ligature2: "AboveBaseSubstitutionslookup subtable" ausigndeva radeva_viramadeva anusvaradeva
EndChar

StartChar: avagrahacombiningsigndeva
Encoding: 409 43249 153
Width: 0
VWidth: 0
Flags: W
AnchorPoint: "DVAnchor3" -281 1395 mark 0
LayerCount: 2
Fore
SplineSet
-117 2243 m 1,0,-1
 -117 2120 l 1,1,-1
 -291 2120 l 2,2,3
 -467 2120 -467 2120 -467 2034 c 0,4,5
 -467 1989 -467 1989 -426 1965.5 c 128,-1,6
 -385 1942 -385 1942 -319 1942 c 2,7,-1
 -279 1942 l 2,8,9
 -193 1942 -193 1942 -134.5 1919 c 128,-1,10
 -76 1896 -76 1896 -49.5 1859.5 c 128,-1,11
 -23 1823 -23 1823 -12.5 1790 c 128,-1,12
 -2 1757 -2 1757 -2 1722 c 0,13,14
 -2 1608 -2 1608 -84.5 1546.5 c 128,-1,15
 -167 1485 -167 1485 -276 1485 c 0,16,17
 -393 1485 -393 1485 -492.5 1538.5 c 128,-1,18
 -592 1592 -592 1592 -655 1686 c 1,19,-1
 -553 1759 l 1,20,21
 -446 1608 -446 1608 -276 1608 c 0,22,23
 -221 1608 -221 1608 -177 1635.5 c 128,-1,24
 -133 1663 -133 1663 -133 1722 c 0,25,26
 -133 1759 -133 1759 -169 1789 c 128,-1,27
 -205 1819 -205 1819 -279 1819 c 2,28,-1
 -319 1819 l 2,29,30
 -457 1819 -457 1819 -527.5 1878.5 c 128,-1,31
 -598 1938 -598 1938 -598 2034 c 0,32,33
 -598 2243 -598 2243 -291 2243 c 2,34,-1
 -117 2243 l 1,0,-1
EndSplineSet
EndChar

StartChar: avagrahadeva
Encoding: 410 2365 154
Width: 1124
VWidth: 0
Flags: W
LayerCount: 2
Fore
SplineSet
39 217 m 1,0,1
 158 328 l 1,2,3
 223 260 223 260 329.5 216 c 128,-1,4
 436 172 436 172 551 172 c 0,5,6
 686 172 686 172 771 231.5 c 128,-1,7
 856 291 856 291 856 385 c 0,8,9
 856 561 856 561 651 635 c 2,10,-1
 465 702 l 2,11,12
 135 821 135 821 135 1075 c 0,13,14
 135 1231 135 1231 245.5 1325 c 128,-1,15
 356 1419 356 1419 557 1419 c 2,16,-1
 954 1419 l 1,17,-1
 954 1247 l 1,18,-1
 557 1247 l 2,19,20
 446 1247 446 1247 380.5 1202 c 128,-1,21
 315 1157 315 1157 315 1075 c 0,22,23
 315 926 315 926 518 854 c 2,24,-1
 705 786 l 2,25,26
 1036 668 1036 668 1036 385 c 0,27,28
 1036 217 1036 217 908 108.5 c 128,-1,29
 780 0 780 0 551 0 c 0,30,31
 406 0 406 0 267.5 62.5 c 128,-1,32
 129 125 129 125 39 217 c 1,0,1
EndSplineSet
EndChar

StartChar: awsigndeva
Encoding: 412 2383 156
Width: 720
VWidth: 0
Flags: W
LayerCount: 2
Fore
SplineSet
-610 1704 m 1,0,-1
 -430 1704 l 1,1,-1
 -430 1661 l 2,2,3
 -430 1608 -430 1608 -404.5 1591.5 c 128,-1,4
 -379 1575 -379 1575 -305 1575 c 2,5,-1
 190 1575 l 2,6,7
 212 1575 212 1575 232 1573 c 128,-1,8
 252 1571 252 1571 270 1567 c 1,9,10
 269 1595 269 1595 263.5 1612.5 c 128,-1,11
 258 1630 258 1630 251 1639.5 c 128,-1,12
 244 1649 244 1649 227 1654 c 128,-1,13
 210 1659 210 1659 198 1660 c 128,-1,14
 186 1661 186 1661 158 1661 c 0,15,16
 143 1661 143 1661 135 1661 c 0,17,18
 67 1663 67 1663 -113 1663 c 0,19,20
 -451 1663 -451 1663 -451 1878 c 2,21,-1
 -451 1964 l 1,22,-1
 -270 1964 l 1,23,-1
 -270 1921 l 2,24,25
 -270 1868 -270 1868 -244.5 1851.5 c 128,-1,26
 -219 1835 -219 1835 -145 1835 c 2,27,-1
 190 1835 l 2,28,29
 451 1835 451 1835 451 1577 c 2,30,-1
 451 1376 l 1,31,-1
 741 1376 l 1,32,-1
 741 1204 l 1,33,-1
 451 1204 l 1,34,-1
 451 1102 l 1,35,-1
 451 172 l 1,36,-1
 606 172 l 1,37,-1
 606 0 l 1,38,-1
 451 0 l 1,39,-1
 270 0 l 1,40,-1
 115 0 l 1,41,-1
 115 172 l 1,42,-1
 270 172 l 1,43,-1
 270 1102 l 1,44,-1
 270 1204 l 1,45,-1
 -20 1204 l 1,46,-1
 -20 1376 l 1,47,-1
 253 1376 l 1,48,49
 249 1381 249 1381 244 1385 c 128,-1,50
 239 1389 239 1389 234.5 1391.5 c 128,-1,51
 230 1394 230 1394 222.5 1395.5 c 128,-1,52
 215 1397 215 1397 209 1398 c 128,-1,53
 203 1399 203 1399 192.5 1399.5 c 128,-1,54
 182 1400 182 1400 175.5 1400 c 128,-1,55
 169 1400 169 1400 156 1400.5 c 128,-1,56
 143 1401 143 1401 135 1401 c 0,57,58
 68 1403 68 1403 -272 1403 c 0,59,60
 -610 1403 -610 1403 -610 1618 c 2,61,-1
 -610 1704 l 1,0,-1
EndSplineSet
EndChar

StartChar: b
Encoding: 413 98 157
Width: 1253
VWidth: 0
Flags: W
LayerCount: 2
Fore
SplineSet
393 229 m 1,0,1
 475 146 475 146 643 145 c 0,2,3
 780 145 780 145 874.5 246.5 c 128,-1,4
 969 348 969 348 969 530 c 0,5,6
 969 700 969 700 877.5 798.5 c 128,-1,7
 786 897 786 897 649 897 c 0,8,9
 499 897 499 897 393 787 c 1,10,-1
 393 229 l 1,0,1
393 951 m 1,11,12
 538 1061 538 1061 698 1061 c 0,13,14
 901 1061 901 1061 1031 915.5 c 128,-1,15
 1161 770 1161 770 1161 537 c 0,16,17
 1161 289 1161 289 1018.5 136.5 c 128,-1,18
 876 -16 876 -16 653 -16 c 0,19,20
 499 -17 499 -17 393 65 c 1,21,-1
 393 0 l 1,22,-1
 207 0 l 1,23,-1
 207 1384 l 1,24,-1
 57 1384 l 1,25,-1
 57 1556 l 1,26,-1
 207 1556 l 1,27,-1
 385 1556 l 1,28,-1
 393 1556 l 1,29,-1
 393 951 l 1,11,12
EndSplineSet
EndChar

StartChar: ba_virama_ra_viramadeva
Encoding: 414 65533 158
Width: 946
VWidth: 0
Flags: W
LayerCount: 2
Fore
SplineSet
1057 1376 m 1,0,-1
 1057 1204 l 1,1,-1
 -20 1204 l 1,2,-1
 -20 1376 l 1,3,-1
 1057 1376 l 1,0,-1
381 0 m 1,4,-1
 293 121 l 1,5,-1
 516 258 l 1,6,7
 334 265 334 265 215 374.5 c 128,-1,8
 96 484 96 484 96 649.5 c 128,-1,9
 96 815 96 815 230.5 923.5 c 128,-1,10
 365 1032 365 1032 541 1032 c 0,11,12
 757 1032 757 1032 950 844 c 1,13,-1
 889 692 l 1,14,15
 856 725 856 725 838.5 741.5 c 128,-1,16
 821 758 821 758 773 792.5 c 128,-1,17
 725 827 725 827 663.5 843.5 c 128,-1,18
 602 860 602 860 528 860 c 0,19,20
 458 860 458 860 402 834 c 1,21,-1
 823 527 l 1,22,23
 884 572 884 572 934 635 c 1,24,-1
 981 432 l 1,25,-1
 891 369 l 1,26,-1
 381 0 l 1,4,-1
695 457 m 1,27,28
 301 744 l 1,29,30
 289 722 289 722 282.5 698 c 128,-1,31
 276 674 276 674 276 649 c 0,32,33
 276 553 276 553 346 491.5 c 128,-1,34
 416 430 416 430 545 430 c 0,35,36
 620 430 620 430 695 457 c 1,27,28
EndSplineSet
Ligature2: "VattuVariantslookup30 subtable" badeva_viramadeva viramadeva_radeva
Ligature2: "VattuVariantslookup30 subtable" badeva viramadeva_radeva viramadeva
Ligature2: "HalfFormslookup10 subtable" badeva_viramadeva_radeva viramadeva
EndChar

StartChar: backslash
Encoding: 415 92 159
Width: 948
VWidth: 0
Flags: W
LayerCount: 2
Fore
SplineSet
745 -25 m 1,0,-1
 41 1581 l 1,1,-1
 203 1581 l 1,2,-1
 907 -25 l 1,3,-1
 745 -25 l 1,0,-1
EndSplineSet
EndChar

StartChar: badeva_alt1
Encoding: 417 -1 161
Width: 1306
VWidth: 0
Flags: W
AnchorPoint: "DVAnchor0" 940 14 basechar 0
LayerCount: 2
Fore
SplineSet
730 474 m 1,0,1
 325 782 l 1,2,3
 299 755 299 755 285.5 720.5 c 128,-1,4
 272 686 272 686 272 649 c 0,5,6
 272 553 272 553 342 491.5 c 128,-1,7
 412 430 412 430 541 430 c 0,8,9
 637 430 637 430 730 474 c 1,0,1
472 856 m 1,10,-1
 856 564 l 1,11,-1
 856 725 l 1,12,13
 728 860 728 860 524 860 c 0,14,15
 497 860 497 860 472 856 c 1,10,-1
565 1204 m 1,16,-1
 -25 1204 l 1,17,-1
 -25 1376 l 1,18,-1
 565 1376 l 1,19,-1
 963 1376 l 1,20,-1
 1327 1376 l 1,21,-1
 1327 1204 l 1,22,-1
 1036 1204 l 1,23,-1
 1036 0 l 1,24,-1
 856 0 l 1,25,-1
 856 364 l 1,26,27
 707 258 707 258 532 258 c 0,28,29
 344 258 344 258 218 368.5 c 128,-1,30
 92 479 92 479 92 649 c 0,31,32
 92 815 92 815 225.5 923.5 c 128,-1,33
 359 1032 359 1032 541 1032 c 0,34,35
 699 1032 699 1032 856 919 c 1,36,-1
 856 1204 l 1,37,-1
 565 1204 l 1,16,-1
EndSplineSet
EndChar

StartChar: badeva_viramadeva
Encoding: 418 -1 162
Width: 944
VWidth: 0
Flags: W
LayerCount: 2
Fore
SplineSet
967 1376 m 1,0,-1
 967 1204 l 1,1,-1
 -20 1204 l 1,2,-1
 -20 1376 l 1,3,-1
 967 1376 l 1,0,-1
734 474 m 1,4,5
 329 782 l 1,6,7
 304 755 304 755 290 720.5 c 128,-1,8
 276 686 276 686 276 649 c 0,9,10
 276 553 276 553 346 491.5 c 128,-1,11
 416 430 416 430 545 430 c 0,12,13
 641 430 641 430 734 474 c 1,4,5
864 560 m 1,14,15
 883 577 883 577 900.5 595.5 c 128,-1,16
 918 614 918 614 934 635 c 1,17,-1
 944 434 l 1,18,19
 758 258 758 258 537 258 c 0,20,21
 348 258 348 258 222 368.5 c 128,-1,22
 96 479 96 479 96 649 c 0,23,24
 96 815 96 815 229.5 923.5 c 128,-1,25
 363 1032 363 1032 545 1032 c 0,26,27
 757 1032 757 1032 950 844 c 1,28,-1
 889 692 l 1,29,30
 747 860 747 860 528 860 c 0,31,32
 501 860 501 860 476 856 c 1,33,-1
 864 560 l 1,14,15
EndSplineSet
Ligature2: "HalfFormslookup10 subtable" badeva viramadeva
EndChar

StartChar: badeva_viramadeva_radeva
Encoding: 419 -1 163
Width: 1314
VWidth: 0
Flags: W
LayerCount: 2
Fore
SplineSet
903 0 m 1,0,-1
 748 0 l 1,1,-1
 748 172 l 1,2,-1
 903 172 l 1,3,-1
 903 366 l 1,4,-1
 397 0 l 1,5,-1
 309 121 l 1,6,-1
 532 258 l 1,7,8
 351 265 351 265 232 374.5 c 128,-1,9
 113 484 113 484 113 649.5 c 128,-1,10
 113 815 113 815 247 923.5 c 128,-1,11
 381 1032 381 1032 557 1032 c 0,12,13
 650 1032 650 1032 738.5 995.5 c 128,-1,14
 827 959 827 959 903 899 c 1,15,-1
 903 1204 l 1,16,-1
 612 1204 l 1,17,-1
 -4 1204 l 1,18,-1
 -4 1376 l 1,19,-1
 612 1376 l 1,20,-1
 1073 1376 l 1,21,-1
 1374 1376 l 1,22,-1
 1374 1204 l 1,23,-1
 1083 1204 l 1,24,-1
 1083 172 l 1,25,-1
 1239 172 l 1,26,-1
 1239 0 l 1,27,-1
 1083 0 l 1,28,-1
 903 0 l 1,0,-1
903 694 m 1,29,30
 873 726 873 726 853 743.5 c 128,-1,31
 833 761 833 761 786 794 c 128,-1,32
 739 827 739 827 678 843.5 c 128,-1,33
 617 860 617 860 545 860 c 0,34,35
 474 860 474 860 418 834 c 1,36,-1
 839 527 l 1,37,38
 873 552 873 552 903 582 c 1,39,-1
 903 694 l 1,29,30
712 457 m 1,40,41
 318 744 l 1,42,43
 305 722 305 722 299 698 c 128,-1,44
 293 674 293 674 293 649 c 0,45,46
 293 553 293 553 362.5 491.5 c 128,-1,47
 432 430 432 430 561 430 c 0,48,49
 637 430 637 430 712 457 c 1,40,41
EndSplineSet
Ligature2: "VattuVariantslookup30 subtable" badeva viramadeva_radeva
EndChar

StartChar: bar
Encoding: 420 124 164
Width: 454
VWidth: 0
Flags: W
LayerCount: 2
Fore
SplineSet
135 -270 m 1,0,-1
 135 1726 l 1,1,-1
 315 1726 l 1,2,-1
 315 -270 l 1,3,-1
 135 -270 l 1,0,-1
EndSplineSet
EndChar

StartChar: bbadeva
Encoding: 421 2431 165
Width: 1306
VWidth: 0
Flags: W
AnchorPoint: "DVAnchor3" 940 1360 basechar 0
LayerCount: 2
Fore
SplineSet
0 -172 m 1,0,-1
 0 0 l 1,1,-1
 854 0 l 1,2,-1
 854 360 l 1,3,4
 709 258 709 258 537 258 c 0,5,6
 348 258 348 258 222 368.5 c 128,-1,7
 96 479 96 479 96 649 c 0,8,9
 96 815 96 815 229.5 923.5 c 128,-1,10
 363 1032 363 1032 545 1032 c 0,11,12
 699 1032 699 1032 854 924 c 1,13,14
 854 1204 l 1,15,-1
 563 1204 l 1,16,-1
 -20 1204 l 1,17,-1
 -20 1376 l 1,18,-1
 563 1376 l 1,19,-1
 967 1376 l 1,20,-1
 1325 1376 l 1,21,-1
 1325 1204 l 1,22,-1
 1034 1204 l 1,23,-1
 1034 0 l 1,24,-1
 1036 0 l 1,25,-1
 1036 -172 l 1,26,-1
 0 -172 l 1,0,-1
854 731 m 1,27,28
 728 860 728 860 528 860 c 0,29,30
 501 860 501 860 476 856 c 1,31,-1
 854 568 l 1,32,-1
 854 731 l 1,27,28
734 474 m 1,33,-1
 329 782 l 1,34,35
 304 755 304 755 290 720.5 c 128,-1,36
 276 686 276 686 276 649 c 0,37,38
 276 553 276 553 346 491.5 c 128,-1,39
 416 430 416 430 545 430 c 0,40,41
 641 430 641 430 734 474 c 1,33,-1
EndSplineSet
EndChar

StartChar: bhadeva
Encoding: 422 2349 166
Width: 1667
VWidth: 0
Flags: W
AnchorPoint: "DVAnchor3" 1303 1360 basechar 0
LayerCount: 2
Fore
SplineSet
1688 1376 m 1,0,-1
 1688 1204 l 1,1,-1
 1397 1204 l 1,2,-1
 1397 172 l 1,3,-1
 1552 172 l 1,4,-1
 1552 0 l 1,5,-1
 1397 0 l 1,6,-1
 1217 0 l 1,7,-1
 1061 0 l 1,8,-1
 1061 172 l 1,9,-1
 1217 172 l 1,10,-1
 1217 516 l 1,11,-1
 651 516 l 1,12,-1
 651 371 l 1,13,-1
 514 371 l 1,14,-1
 340 541 l 1,15,-1
 340 688 l 1,16,-1
 475 688 l 1,17,-1
 475 874 l 1,18,19
 460 870 460 870 444.5 866.5 c 128,-1,20
 429 863 429 863 412.5 861.5 c 128,-1,21
 396 860 396 860 379 860 c 0,22,23
 256 860 256 860 175 935.5 c 128,-1,24
 94 1011 94 1011 94 1126 c 0,25,26
 94 1243 94 1243 174 1322 c 128,-1,27
 254 1401 254 1401 377 1401 c 128,-1,28
 500 1401 500 1401 578.5 1322 c 128,-1,29
 657 1243 657 1243 657 1126 c 0,30,31
 657 1117 657 1117 656.5 1108.5 c 128,-1,32
 656 1100 656 1100 655 1091 c 2,33,-1
 655 696 l 1,34,-1
 652 685 l 1,35,-1
 672 688 l 1,36,-1
 1217 688 l 1,37,-1
 1217 1204 l 1,38,-1
 926 1204 l 1,39,-1
 926 1376 l 1,40,-1
 1688 1376 l 1,0,-1
500 1131 m 1,41,42
 499 1181 499 1181 466 1214 c 128,-1,43
 433 1247 433 1247 387 1247 c 0,44,45
 340 1247 340 1247 307 1213.5 c 128,-1,46
 274 1180 274 1180 274 1135 c 128,-1,47
 274 1090 274 1090 307 1056 c 128,-1,48
 340 1022 340 1022 387 1022 c 0,49,50
 433 1022 433 1022 466 1052.5 c 128,-1,51
 499 1083 499 1083 500 1131 c 1,41,42
EndSplineSet
Substitution2: "Single Substitution lookup 36 subtable" bhadeva_alt1
EndChar

StartChar: bhadeva_alt1
Encoding: 423 -1 167
Width: 1667
VWidth: 0
Flags: W
AnchorPoint: "DVAnchor0" 1309 14 basechar 0
LayerCount: 2
Fore
SplineSet
1688 1376 m 1,0,-1
 1688 1204 l 1,1,-1
 1397 1204 l 1,2,-1
 1397 0 l 1,3,-1
 1217 0 l 1,4,-1
 1217 516 l 1,5,-1
 651 516 l 1,6,-1
 651 371 l 1,7,-1
 514 371 l 1,8,-1
 340 541 l 1,9,-1
 340 688 l 1,10,-1
 475 688 l 1,11,-1
 475 874 l 1,12,13
 460 870 460 870 444.5 866.5 c 128,-1,14
 429 863 429 863 412.5 861.5 c 128,-1,15
 396 860 396 860 379 860 c 0,16,17
 256 860 256 860 175 935.5 c 128,-1,18
 94 1011 94 1011 94 1126 c 0,19,20
 94 1243 94 1243 174 1322 c 128,-1,21
 254 1401 254 1401 377 1401 c 128,-1,22
 500 1401 500 1401 578.5 1322 c 128,-1,23
 657 1243 657 1243 657 1126 c 0,24,25
 657 1117 657 1117 656.5 1108.5 c 128,-1,26
 656 1100 656 1100 655 1091 c 2,27,-1
 655 696 l 1,28,-1
 652 685 l 1,29,-1
 672 688 l 1,30,-1
 1217 688 l 1,31,-1
 1217 1204 l 1,32,-1
 926 1204 l 1,33,-1
 926 1376 l 1,34,-1
 1688 1376 l 1,0,-1
500 1131 m 1,35,36
 499 1181 499 1181 466 1214 c 128,-1,37
 433 1247 433 1247 387 1247 c 0,38,39
 340 1247 340 1247 307 1213.5 c 128,-1,40
 274 1180 274 1180 274 1135 c 128,-1,41
 274 1090 274 1090 307 1056 c 128,-1,42
 340 1022 340 1022 387 1022 c 0,43,44
 433 1022 433 1022 466 1052.5 c 128,-1,45
 499 1083 499 1083 500 1131 c 1,35,36
EndSplineSet
EndChar

StartChar: bhadeva_viramadeva
Encoding: 424 -1 168
Width: 1216
VWidth: 0
Flags: W
LayerCount: 2
Fore
SplineSet
514 371 m 1,0,-1
 340 541 l 1,1,-1
 340 688 l 1,2,-1
 475 688 l 1,3,-1
 475 874 l 1,4,5
 460 870 460 870 444.5 866.5 c 128,-1,6
 429 863 429 863 412.5 861.5 c 128,-1,7
 396 860 396 860 379 860 c 0,8,9
 256 860 256 860 175 935.5 c 128,-1,10
 94 1011 94 1011 94 1126 c 0,11,12
 94 1243 94 1243 174 1322 c 128,-1,13
 254 1401 254 1401 377 1401 c 128,-1,14
 500 1401 500 1401 578.5 1322 c 128,-1,15
 657 1243 657 1243 657 1126 c 0,16,17
 657 1117 657 1117 656.5 1108.5 c 128,-1,18
 656 1100 656 1100 655 1091 c 2,19,-1
 655 696 l 1,20,-1
 652 685 l 1,21,-1
 672 688 l 1,22,-1
 1237 688 l 1,23,-1
 1237 516 l 1,24,-1
 651 516 l 1,25,-1
 651 371 l 1,26,-1
 514 371 l 1,0,-1
500 1131 m 1,27,28
 499 1181 499 1181 466 1214 c 128,-1,29
 433 1247 433 1247 387 1247 c 0,30,31
 340 1247 340 1247 307 1213.5 c 128,-1,32
 274 1180 274 1180 274 1135 c 128,-1,33
 274 1090 274 1090 307 1056 c 128,-1,34
 340 1022 340 1022 387 1022 c 0,35,36
 433 1022 433 1022 466 1052.5 c 128,-1,37
 499 1083 499 1083 500 1131 c 1,27,28
EndSplineSet
Ligature2: "HalfFormslookup10 subtable" bhadeva viramadeva
EndChar

StartChar: bhadeva_viramadeva_radeva
Encoding: 425 -1 169
Width: 1667
VWidth: 0
Flags: W
LayerCount: 2
Fore
SplineSet
514 371 m 1,0,-1
 340 541 l 1,1,-1
 340 688 l 1,2,-1
 475 688 l 1,3,-1
 475 874 l 1,4,5
 460 870 460 870 444.5 866.5 c 128,-1,6
 429 863 429 863 412.5 861.5 c 128,-1,7
 396 860 396 860 379 860 c 0,8,9
 256 860 256 860 175 935.5 c 128,-1,10
 94 1011 94 1011 94 1126 c 0,11,12
 94 1243 94 1243 174 1322 c 128,-1,13
 254 1401 254 1401 377 1401 c 128,-1,14
 500 1401 500 1401 578.5 1322 c 128,-1,15
 657 1243 657 1243 657 1126 c 0,16,17
 657 1117 657 1117 656.5 1108.5 c 128,-1,18
 656 1100 656 1100 655 1091 c 2,19,-1
 655 696 l 1,20,-1
 652 685 l 1,21,-1
 672 688 l 1,22,-1
 1057 688 l 1,23,-1
 1217 688 l 1,24,-1
 1217 1204 l 1,25,-1
 926 1204 l 1,26,-1
 926 1376 l 1,27,-1
 1688 1376 l 1,28,-1
 1688 1204 l 1,29,-1
 1397 1204 l 1,30,-1
 1397 172 l 1,31,-1
 1552 172 l 1,32,-1
 1552 0 l 1,33,-1
 1397 0 l 1,34,-1
 1217 0 l 1,35,-1
 1061 0 l 1,36,-1
 1061 172 l 1,37,-1
 1217 172 l 1,38,-1
 1217 516 l 1,39,-1
 702 0 l 1,40,-1
 590 111 l 1,41,-1
 994 516 l 1,42,-1
 651 516 l 1,43,-1
 651 371 l 1,44,-1
 514 371 l 1,0,-1
500 1131 m 1,45,46
 499 1181 499 1181 466 1214 c 128,-1,47
 433 1247 433 1247 387 1247 c 0,48,49
 340 1247 340 1247 307 1213.5 c 128,-1,50
 274 1180 274 1180 274 1135 c 128,-1,51
 274 1090 274 1090 307 1056 c 128,-1,52
 340 1022 340 1022 387 1022 c 0,53,54
 433 1022 433 1022 466 1052.5 c 128,-1,55
 499 1083 499 1083 500 1131 c 1,45,46
EndSplineSet
Ligature2: "VattuVariantslookup30 subtable" bhadeva viramadeva_radeva
EndChar

StartChar: braceleft
Encoding: 426 123 170
Width: 720
VWidth: 0
Flags: W
LayerCount: 2
Fore
SplineSet
133 526 m 1,0,1
 133 653 l 1,2,3
 211 653 211 653 256 732 c 128,-1,4
 301 811 301 811 301 920 c 2,5,-1
 301 1292 l 2,6,7
 301 1411 301 1411 364.5 1483.5 c 128,-1,8
 428 1556 428 1556 512 1556 c 2,9,-1
 649 1556 l 1,10,-1
 649 1430 l 1,11,-1
 580 1430 l 2,12,13
 485 1430 485 1430 485 1231 c 2,14,-1
 485 883 l 2,15,16
 485 653 485 653 317 592 c 1,17,-1
 317 588 l 1,18,19
 485 526 485 526 485 297 c 2,20,-1
 485 -51 l 2,21,22
 486 -250 486 -250 580 -250 c 2,23,-1
 649 -250 l 1,24,-1
 649 -377 l 1,25,-1
 512 -377 l 2,26,27
 428 -377 428 -377 364.5 -304.5 c 128,-1,28
 301 -232 301 -232 301 -113 c 2,29,-1
 301 260 l 2,30,31
 301 369 301 369 256 447.5 c 128,-1,32
 211 526 211 526 133 526 c 1,0,1
EndSplineSet
EndChar

StartChar: braceright
Encoding: 427 125 171
Width: 720
VWidth: 0
Flags: W
LayerCount: 2
Fore
SplineSet
72 -377 m 1,0,-1
 72 -250 l 1,1,-1
 141 -250 l 2,2,3
 235 -250 235 -250 236 -51 c 2,4,-1
 236 297 l 2,5,6
 236 526 236 526 403 588 c 1,7,-1
 403 592 l 1,8,9
 235 653 235 653 236 883 c 2,10,-1
 236 1231 l 2,11,12
 236 1430 236 1430 141 1430 c 2,13,-1
 72 1430 l 1,14,-1
 72 1556 l 1,15,-1
 209 1556 l 2,16,17
 293 1556 293 1556 356.5 1483.5 c 128,-1,18
 420 1411 420 1411 420 1292 c 2,19,-1
 420 1219 l 1,20,-1
 420 920 l 2,21,22
 420 811 420 811 465 732 c 128,-1,23
 510 653 510 653 588 653 c 1,24,-1
 588 526 l 1,25,26
 510 526 510 526 465 447.5 c 128,-1,27
 420 369 420 369 420 260 c 2,28,-1
 420 -39 l 1,29,-1
 420 -113 l 2,30,31
 420 -232 420 -232 356.5 -304.5 c 128,-1,32
 293 -377 293 -377 209 -377 c 2,33,-1
 72 -377 l 1,0,-1
EndSplineSet
EndChar

StartChar: bracketleft
Encoding: 428 91 172
Width: 720
VWidth: 0
Flags: W
LayerCount: 2
Fore
SplineSet
238 -377 m 1,0,-1
 238 1556 l 1,1,-1
 641 1556 l 1,2,-1
 641 1405 l 1,3,-1
 422 1405 l 1,4,-1
 422 -225 l 1,5,-1
 641 -225 l 1,6,-1
 641 -377 l 1,7,-1
 238 -377 l 1,0,-1
EndSplineSet
EndChar

StartChar: bracketright
Encoding: 429 93 173
Width: 720
VWidth: 0
Flags: W
LayerCount: 2
Fore
SplineSet
299 -225 m 1,0,-1
 299 1405 l 1,1,-1
 80 1405 l 1,2,-1
 80 1556 l 1,3,-1
 483 1556 l 1,4,-1
 483 -377 l 1,5,-1
 80 -377 l 1,6,-1
 80 -225 l 1,7,-1
 299 -225 l 1,0,-1
EndSplineSet
EndChar

StartChar: breve
Encoding: 430 728 174
Width: 1007
VWidth: 0
Flags: W
LayerCount: 2
Fore
SplineSet
487.5 1149 m 128,-1,1
 336 1149 336 1149 230.5 1243.5 c 128,-1,2
 125 1338 125 1338 119 1479 c 1,3,-1
 260 1479 l 1,4,5
 262 1391 262 1391 323.5 1335.5 c 128,-1,6
 385 1280 385 1280 487.5 1280 c 128,-1,7
 590 1280 590 1280 650.5 1334.5 c 128,-1,8
 711 1389 711 1389 715 1479 c 1,9,-1
 856 1479 l 1,10,11
 850 1337 850 1337 744.5 1243 c 128,-1,0
 639 1149 639 1149 487.5 1149 c 128,-1,1
EndSplineSet
EndChar

StartChar: breve.i
Encoding: 431 -1 175
Width: 1007
VWidth: 0
Flags: W
LayerCount: 2
Fore
SplineSet
487.5 1149 m 128,-1,1
 336 1149 336 1149 230.5 1243.5 c 128,-1,2
 125 1338 125 1338 119 1479 c 1,3,-1
 260 1479 l 1,4,5
 262 1391 262 1391 323.5 1335.5 c 128,-1,6
 385 1280 385 1280 487.5 1280 c 128,-1,7
 590 1280 590 1280 650.5 1334.5 c 128,-1,8
 711 1389 711 1389 715 1479 c 1,9,-1
 856 1479 l 1,10,11
 850 1337 850 1337 744.5 1243 c 128,-1,0
 639 1149 639 1149 487.5 1149 c 128,-1,1
EndSplineSet
EndChar

StartChar: brokenbar
Encoding: 432 166 176
Width: 512
VWidth: 0
Flags: W
LayerCount: 2
Fore
SplineSet
152 -268 m 1,0,-1
 152 481 l 1,1,-1
 307 481 l 1,2,-1
 307 -268 l 1,3,-1
 152 -268 l 1,0,-1
152 979 m 1,4,-1
 152 1729 l 1,5,-1
 307 1729 l 1,6,-1
 307 979 l 1,7,-1
 152 979 l 1,4,-1
EndSplineSet
EndChar

StartChar: bullet
Encoding: 433 8226 177
Width: 811
VWidth: 0
Flags: W
LayerCount: 2
Fore
SplineSet
154 780 m 0,0,1
 154 884 154 884 227 958 c 128,-1,2
 300 1032 300 1032 406 1032 c 0,3,4
 510 1032 510 1032 583.5 959.5 c 128,-1,5
 657 887 657 887 657 780.5 c 128,-1,6
 657 674 657 674 583.5 601 c 128,-1,7
 510 528 510 528 406 528 c 0,8,9
 299 528 299 528 226.5 601 c 128,-1,10
 154 674 154 674 154 780 c 0,0,1
EndSplineSet
EndChar

StartChar: c
Encoding: 434 99 178
Width: 1116
VWidth: 0
Flags: W
LayerCount: 2
Fore
SplineSet
870 324 m 1,0,1
 1024 248 l 1,2,3
 963 119 963 119 849 45 c 128,-1,4
 735 -29 735 -29 588 -29 c 0,5,6
 371 -29 371 -29 230.5 125.5 c 128,-1,7
 90 280 90 280 90 520 c 0,8,9
 90 758 90 758 235.5 913.5 c 128,-1,10
 381 1069 381 1069 590 1069 c 0,11,12
 800 1069 800 1069 930 932 c 1,13,-1
 1034 932 l 1,14,-1
 1034 760 l 1,15,-1
 852 760 l 1,16,-1
 848 758 l 2,17,18
 847 759 847 759 846 760 c 2,19,-1
 846 761 l 1,20,21
 762 905 762 905 590 905 c 0,22,23
 457 905 457 905 366.5 798.5 c 128,-1,24
 276 692 276 692 276 520 c 0,25,26
 276 350 276 350 366.5 245.5 c 128,-1,27
 457 141 457 141 590 141 c 0,28,29
 786 142 786 142 870 324 c 1,0,1
EndSplineSet
EndChar

StartChar: cadeva
Encoding: 436 2330 180
Width: 1396
VWidth: 0
Flags: W
AnchorPoint: "DVAnchor3" 1032 1360 basechar 0
LayerCount: 2
Fore
SplineSet
946 0 m 1,0,-1
 791 0 l 1,1,-1
 791 172 l 1,2,-1
 946 172 l 1,3,-1
 946 317 l 1,4,5
 823 258 823 258 692 258 c 0,6,7
 500 258 500 258 385 369.5 c 128,-1,8
 270 481 270 481 270 643 c 0,9,10
 271 762 271 762 346 860 c 1,11,-1
 90 860 l 1,12,-1
 90 1032 l 1,13,-1
 692 1032 l 1,14,-1
 692 1026 l 1,15,-1
 692 860 l 1,16,17
 643 860 643 860 592 842.5 c 128,-1,18
 541 825 541 825 496 773 c 128,-1,19
 451 721 451 721 451 643 c 0,20,21
 451 524 451 524 530.5 472 c 128,-1,22
 610 420 610 420 698 420 c 0,23,24
 857 419 857 419 946 505 c 1,25,-1
 946 1204 l 1,26,-1
 655 1204 l 1,27,-1
 -20 1204 l 1,28,-1
 -20 1376 l 1,29,-1
 655 1376 l 1,30,-1
 991 1376 l 1,31,-1
 1417 1376 l 1,32,-1
 1417 1204 l 1,33,-1
 1126 1204 l 1,34,-1
 1126 172 l 1,35,-1
 1282 172 l 1,36,-1
 1282 0 l 1,37,-1
 1126 0 l 1,38,-1
 946 0 l 1,0,-1
EndSplineSet
Substitution2: "Single Substitution lookup 36 subtable" cadeva_alt1
EndChar

StartChar: cadeva_alt1
Encoding: 437 -1 181
Width: 1396
VWidth: 0
Flags: W
AnchorPoint: "DVAnchor0" 1032 14 basechar 0
LayerCount: 2
Fore
SplineSet
1126 1204 m 1,0,-1
 1126 0 l 1,1,-1
 946 0 l 1,2,-1
 946 317 l 1,3,4
 823 258 823 258 692 258 c 0,5,6
 500 258 500 258 385 369.5 c 128,-1,7
 270 481 270 481 270 643 c 0,8,9
 271 762 271 762 346 860 c 1,10,-1
 90 860 l 1,11,-1
 90 1032 l 1,12,-1
 692 1032 l 1,13,-1
 692 1026 l 1,14,-1
 692 860 l 1,15,16
 643 860 643 860 592 842.5 c 128,-1,17
 541 825 541 825 496 773 c 128,-1,18
 451 721 451 721 451 643 c 0,19,20
 451 524 451 524 530.5 472 c 128,-1,21
 610 420 610 420 698 420 c 0,22,23
 857 419 857 419 946 505 c 1,24,-1
 946 1204 l 1,25,-1
 655 1204 l 1,26,-1
 -20 1204 l 1,27,-1
 -20 1376 l 1,28,-1
 655 1376 l 1,29,-1
 991 1376 l 1,30,-1
 1417 1376 l 1,31,-1
 1417 1204 l 1,32,-1
 1126 1204 l 1,0,-1
EndSplineSet
EndChar

StartChar: cadeva_viramadeva
Encoding: 438 -1 182
Width: 966
VWidth: 0
Flags: W
LayerCount: 2
Fore
SplineSet
967 528 m 1,0,1
 993 342 l 1,2,3
 844 258 844 258 692 258 c 0,4,5
 500 258 500 258 385 369.5 c 128,-1,6
 270 481 270 481 270 643 c 0,7,8
 271 762 271 762 346 860 c 1,9,-1
 90 860 l 1,10,-1
 90 1032 l 1,11,-1
 692 1032 l 1,12,-1
 692 1026 l 1,13,-1
 692 860 l 1,14,15
 643 860 643 860 592 842.5 c 128,-1,16
 541 825 541 825 496 773 c 128,-1,17
 451 721 451 721 451 643 c 0,18,19
 451 524 451 524 530.5 472 c 128,-1,20
 610 420 610 420 698 420 c 0,21,22
 885 419 885 419 967 528 c 1,0,1
991 1376 m 1,23,-1
 991 1204 l 1,24,-1
 -20 1204 l 1,25,-1
 -20 1376 l 1,26,-1
 991 1376 l 1,23,-1
EndSplineSet
Ligature2: "HalfFormslookup10 subtable" cadeva viramadeva
EndChar

StartChar: cadeva_viramadeva_cadeva
Encoding: 439 -1 183
Width: 1982
VWidth: 0
Flags: W
LayerCount: 2
Fore
SplineSet
1532 0 m 1,0,-1
 1376 0 l 1,1,-1
 1376 172 l 1,2,-1
 1532 172 l 1,3,-1
 1532 317 l 1,4,5
 1409 258 1409 258 1278 258 c 0,6,7
 1116 258 1116 258 1004 341 c 1,8,9
 855 258 855 258 705 258 c 0,10,11
 512 258 512 258 397.5 369.5 c 128,-1,12
 283 481 283 481 283 643 c 0,13,14
 283 762 283 762 358 860 c 1,15,-1
 102 860 l 1,16,-1
 102 1032 l 1,17,-1
 705 1032 l 1,18,-1
 705 1026 l 1,19,-1
 705 860 l 1,20,21
 655 860 655 860 604 842.5 c 128,-1,22
 553 825 553 825 508 773 c 128,-1,23
 463 721 463 721 463 643 c 0,24,25
 463 524 463 524 543 472 c 128,-1,26
 623 420 623 420 711 420 c 0,27,28
 820 420 820 420 900 463 c 1,29,30
 856 546 856 546 856 643 c 0,31,32
 856 762 856 762 931 860 c 1,33,-1
 811 860 l 1,34,-1
 811 1032 l 1,35,-1
 1278 1032 l 1,36,-1
 1278 1026 l 1,37,-1
 1278 860 l 1,38,39
 1229 860 1229 860 1177.5 842.5 c 128,-1,40
 1126 825 1126 825 1081 773 c 128,-1,41
 1036 721 1036 721 1036 643 c 0,42,43
 1036 524 1036 524 1116 472 c 128,-1,44
 1196 420 1196 420 1284 420 c 0,45,46
 1443 419 1443 419 1532 505 c 1,47,-1
 1532 1204 l 1,48,-1
 1241 1204 l 1,49,-1
 1004 1204 l 1,50,-1
 565 1204 l 1,51,-1
 -8 1204 l 1,52,-1
 -8 1376 l 1,53,-1
 565 1376 l 1,54,-1
 1004 1376 l 1,55,-1
 1241 1376 l 1,56,-1
 1577 1376 l 1,57,-1
 2003 1376 l 1,58,-1
 2003 1204 l 1,59,-1
 1712 1204 l 1,60,-1
 1712 172 l 1,61,-1
 1868 172 l 1,62,-1
 1868 0 l 1,63,-1
 1712 0 l 1,64,-1
 1532 0 l 1,0,-1
EndSplineSet
Ligature2: "PreBaseSubstitutionslookup1 subtable" cadeva_viramadeva cadeva
Ligature2: "LocalizedMrHalfFormslookup1 subtable" cadeva viramadeva cadeva
EndChar

StartChar: cadeva_viramadeva_radeva
Encoding: 440 -1 184
Width: 1396
VWidth: 0
Flags: W
LayerCount: 2
Fore
SplineSet
946 0 m 1,0,-1
 791 0 l 1,1,-1
 791 172 l 1,2,-1
 946 172 l 1,3,-1
 946 337 l 1,4,5
 927 327 927 327 910.5 318.5 c 128,-1,6
 894 310 894 310 878 302 c 1,7,-1
 465 0 l 1,8,-1
 365 129 l 1,9,-1
 571 272 l 1,10,11
 431 305 431 305 350.5 407 c 128,-1,12
 270 509 270 509 270 643 c 0,13,14
 271 762 271 762 346 860 c 1,15,-1
 90 860 l 1,16,-1
 90 1032 l 1,17,-1
 692 1032 l 1,18,-1
 692 1026 l 1,19,-1
 692 860 l 1,20,21
 643 860 643 860 592 842.5 c 128,-1,22
 541 825 541 825 496 773 c 128,-1,23
 451 721 451 721 451 643 c 0,24,25
 451 524 451 524 530.5 472 c 128,-1,26
 610 420 610 420 698 420 c 0,27,28
 857 419 857 419 946 505 c 1,29,-1
 946 1204 l 1,30,-1
 655 1204 l 1,31,-1
 -20 1204 l 1,32,-1
 -20 1376 l 1,33,-1
 655 1376 l 1,34,-1
 991 1376 l 1,35,-1
 1417 1376 l 1,36,-1
 1417 1204 l 1,37,-1
 1126 1204 l 1,38,-1
 1126 172 l 1,39,-1
 1282 172 l 1,40,-1
 1282 0 l 1,41,-1
 1126 0 l 1,42,-1
 946 0 l 1,0,-1
EndSplineSet
Ligature2: "VattuVariantslookup30 subtable" cadeva viramadeva_radeva
EndChar

StartChar: candrabinduavagrahadeva
Encoding: 441 43255 185
Width: 1282
VWidth: 0
Flags: W
LayerCount: 2
Fore
SplineSet
-829 109 m 1,0,1
 -727 213 l 1,2,3
 -684 174 -684 174 -607.5 144.5 c 128,-1,4
 -531 115 -531 115 -453 115 c 0,5,6
 -272 115 -272 115 -272 236 c 0,7,8
 -272 311 -272 311 -403 350 c 2,9,-1
 -528 389 l 2,10,11
 -786 469 -786 469 -786 637 c 0,12,13
 -786 745 -786 745 -700.5 815 c 128,-1,14
 -615 885 -615 885 -459 885 c 2,15,-1
 -188 885 l 1,16,-1
 -188 743 l 1,17,-1
 -459 743 l 2,18,19
 -528 743 -528 743 -569 724.5 c 128,-1,20
 -610 706 -610 706 -610 647 c 0,21,22
 -610 600 -610 600 -576 575 c 128,-1,23
 -542 550 -542 550 -479 532 c 2,24,-1
 -350 494 l 2,25,26
 -96 418 -96 418 -96 236 c 0,27,28
 -96 121 -96 121 -188.5 47 c 128,-1,29
 -281 -27 -281 -27 -463 -27 c 0,30,31
 -569 -27 -569 -27 -668.5 12.5 c 128,-1,32
 -768 52 -768 52 -829 109 c 1,0,1
-686 1348 m 1,33,34
 -686 1254 -686 1254 -620.5 1188 c 128,-1,35
 -555 1122 -555 1122 -461 1122 c 128,-1,36
 -367 1122 -367 1122 -301.5 1187.5 c 128,-1,37
 -236 1253 -236 1253 -236 1348 c 1,38,-1
 -100 1350 l 1,39,-1
 -100 1337 l 1,40,41
 -104 1192 -104 1192 -209.5 1090.5 c 128,-1,42
 -315 989 -315 989 -460.5 989 c 128,-1,43
 -606 989 -606 989 -711.5 1091.5 c 128,-1,44
 -817 1194 -817 1194 -821 1339 c 1,45,-1
 -821 1348 l 1,46,-1
 -686 1348 l 1,33,34
-551 1337.5 m 128,-1,48
 -551 1372 -551 1372 -525.5 1397.5 c 128,-1,49
 -500 1423 -500 1423 -465 1423 c 128,-1,50
 -430 1423 -430 1423 -404.5 1397.5 c 128,-1,51
 -379 1372 -379 1372 -379 1337.5 c 128,-1,52
 -379 1303 -379 1303 -404.5 1277 c 128,-1,53
 -430 1251 -430 1251 -465 1251 c 128,-1,54
 -500 1251 -500 1251 -525.5 1277 c 128,-1,47
 -551 1303 -551 1303 -551 1337.5 c 128,-1,48
EndSplineSet
EndChar

StartChar: candrabindudeva
Encoding: 442 2305 186
Width: 0
VWidth: 0
Flags: W
AnchorPoint: "DVAnchor3" -559 1366 mark 0
LayerCount: 2
Fore
SplineSet
-766 1817 m 1,0,1
 -766 1723 -766 1723 -700.5 1657 c 128,-1,2
 -635 1591 -635 1591 -540.5 1591 c 128,-1,3
 -446 1591 -446 1591 -380.5 1656.5 c 128,-1,4
 -315 1722 -315 1722 -315 1817 c 1,5,-1
 -180 1819 l 1,6,-1
 -180 1806 l 1,7,8
 -184 1661 -184 1661 -289.5 1559.5 c 128,-1,9
 -395 1458 -395 1458 -540.5 1458 c 128,-1,10
 -686 1458 -686 1458 -791.5 1560.5 c 128,-1,11
 -897 1663 -897 1663 -901 1808 c 1,12,-1
 -901 1817 l 1,13,-1
 -766 1817 l 1,0,1
-631 1806.5 m 128,-1,15
 -631 1841 -631 1841 -605.5 1866.5 c 128,-1,16
 -580 1892 -580 1892 -545 1892 c 128,-1,17
 -510 1892 -510 1892 -484.5 1866.5 c 128,-1,18
 -459 1841 -459 1841 -459 1806.5 c 128,-1,19
 -459 1772 -459 1772 -484.5 1746 c 128,-1,20
 -510 1720 -510 1720 -545 1720 c 128,-1,21
 -580 1720 -580 1720 -605.5 1746 c 128,-1,14
 -631 1772 -631 1772 -631 1806.5 c 128,-1,15
EndSplineSet
EndChar

StartChar: candrabindudigitthreedeva
Encoding: 443 43254 187
Width: 1331
VWidth: 0
Flags: W
LayerCount: 2
Fore
SplineSet
-629 1315 m 1,0,1
 -629 1221 -629 1221 -563.5 1155.5 c 128,-1,2
 -498 1090 -498 1090 -403.5 1090 c 128,-1,3
 -309 1090 -309 1090 -243.5 1155.5 c 128,-1,4
 -178 1221 -178 1221 -178 1315 c 1,5,-1
 -43 1317 l 1,6,-1
 -43 1305 l 1,7,8
 -47 1160 -47 1160 -152.5 1058 c 128,-1,9
 -258 956 -258 956 -403.5 956 c 128,-1,10
 -549 956 -549 956 -654.5 1058.5 c 128,-1,11
 -760 1161 -760 1161 -764 1307 c 1,12,-1
 -764 1315 l 1,13,-1
 -629 1315 l 1,0,1
-494 1304.5 m 128,-1,15
 -494 1339 -494 1339 -468 1365 c 128,-1,16
 -442 1391 -442 1391 -407.5 1391 c 128,-1,17
 -373 1391 -373 1391 -347.5 1365 c 128,-1,18
 -322 1339 -322 1339 -322 1304.5 c 128,-1,19
 -322 1270 -322 1270 -347.5 1244.5 c 128,-1,20
 -373 1219 -373 1219 -407.5 1219 c 128,-1,21
 -442 1219 -442 1219 -468 1244.5 c 128,-1,14
 -494 1270 -494 1270 -494 1304.5 c 128,-1,15
-426 377 m 1,22,-1
 -453 375 l 1,23,-1
 -524 375 l 1,24,-1
 -524 514 l 1,25,-1
 -487 514 l 1,26,-1
 -432 514 l 2,27,28
 -379 514 -379 514 -342 547 c 128,-1,29
 -305 580 -305 580 -305 631 c 0,30,31
 -305 678 -305 678 -344 711.5 c 128,-1,32
 -383 745 -383 745 -434 745 c 0,33,34
 -532 745 -532 745 -610 700 c 1,35,-1
 -666 815 l 1,36,37
 -545 885 -545 885 -434 885 c 0,38,39
 -313 885 -313 885 -226 817.5 c 128,-1,40
 -139 750 -139 750 -139 639 c 0,41,42
 -140 522 -140 522 -242 449 c 1,43,44
 -115 368 -115 368 -115 233 c 0,45,46
 -115 90 -115 90 -205 18.5 c 128,-1,47
 -295 -53 -295 -53 -428 -53 c 0,48,49
 -465 -53 -465 -53 -503 -46 c 1,50,-1
 -360 -281 l 1,51,-1
 -477 -365 l 1,52,-1
 -807 188 l 1,53,-1
 -690 262 l 1,54,-1
 -635 172 l 1,55,56
 -578 78 -578 78 -428 78 c 0,57,58
 -360 78 -360 78 -320.5 119.5 c 128,-1,59
 -281 161 -281 161 -281 233 c 0,60,61
 -281 289 -281 289 -324 332 c 128,-1,62
 -367 375 -367 375 -424 375 c 1,63,-1
 -426 377 l 1,22,-1
EndSplineSet
EndChar

StartChar: candrabindudigittwodeva
Encoding: 444 43253 188
Width: 1339
VWidth: 0
Flags: W
LayerCount: 2
Fore
SplineSet
-664 653 m 1,0,1
 -764 766 l 1,2,3
 -631 885 -631 885 -475 885 c 0,4,5
 -328 885 -328 885 -231.5 788.5 c 128,-1,6
 -135 692 -135 692 -135 530 c 0,7,8
 -135 387 -135 387 -227.5 288.5 c 128,-1,9
 -320 190 -320 190 -457 170 c 1,10,-1
 -221 -217 l 1,11,-1
 -354 -299 l 1,12,-1
 -682 252 l 1,13,-1
 -616 336 l 1,14,15
 -573 332 -573 332 -522 332 c 0,16,17
 -424 332 -424 332 -367.5 390 c 128,-1,18
 -311 448 -311 448 -311 530 c 0,19,20
 -311 616 -311 616 -359.5 669.5 c 128,-1,21
 -408 723 -408 723 -496 723 c 0,22,23
 -580 723 -580 723 -664 653 c 1,0,1
-727 1313 m 1,24,25
 -727 1219 -727 1219 -661.5 1153 c 128,-1,26
 -596 1087 -596 1087 -502 1087 c 128,-1,27
 -408 1087 -408 1087 -342 1153 c 128,-1,28
 -276 1219 -276 1219 -276 1313 c 1,29,-1
 -141 1315 l 1,30,-1
 -141 1303 l 1,31,32
 -145 1158 -145 1158 -250.5 1056 c 128,-1,33
 -356 954 -356 954 -501.5 954 c 128,-1,34
 -647 954 -647 954 -752.5 1056.5 c 128,-1,35
 -858 1159 -858 1159 -862 1305 c 1,36,-1
 -862 1313 l 1,37,-1
 -727 1313 l 1,24,25
-592 1302.5 m 128,-1,39
 -592 1337 -592 1337 -566.5 1363 c 128,-1,40
 -541 1389 -541 1389 -506 1389 c 128,-1,41
 -471 1389 -471 1389 -445.5 1363 c 128,-1,42
 -420 1337 -420 1337 -420 1302.5 c 128,-1,43
 -420 1268 -420 1268 -445.5 1242.5 c 128,-1,44
 -471 1217 -471 1217 -506 1217 c 128,-1,45
 -541 1217 -541 1217 -566.5 1242.5 c 128,-1,38
 -592 1268 -592 1268 -592 1302.5 c 128,-1,39
EndSplineSet
EndChar

StartChar: candrabinduinverteddeva
Encoding: 445 2304 189
Width: 0
VWidth: 0
Flags: W
AnchorPoint: "DVAnchor3" -547 1352 mark 0
LayerCount: 2
Fore
SplineSet
-631 1544 m 128,-1,1
 -631 1579 -631 1579 -605.5 1604.5 c 128,-1,2
 -580 1630 -580 1630 -545 1630 c 128,-1,3
 -510 1630 -510 1630 -484.5 1604.5 c 128,-1,4
 -459 1579 -459 1579 -459 1544 c 128,-1,5
 -459 1509 -459 1509 -484.5 1483.5 c 128,-1,6
 -510 1458 -510 1458 -545 1458 c 128,-1,7
 -580 1458 -580 1458 -605.5 1483.5 c 128,-1,0
 -631 1509 -631 1509 -631 1544 c 128,-1,1
-766 1534 m 1,8,9
 -901 1534 l 1,10,-1
 -901 1542 l 1,11,12
 -897 1688 -897 1688 -791.5 1790 c 128,-1,13
 -686 1892 -686 1892 -540.5 1892 c 128,-1,14
 -395 1892 -395 1892 -289.5 1790.5 c 128,-1,15
 -184 1689 -184 1689 -180 1544 c 1,16,-1
 -180 1532 l 1,17,-1
 -315 1534 l 1,18,19
 -315 1628 -315 1628 -380.5 1693.5 c 128,-1,20
 -446 1759 -446 1759 -540.5 1759 c 128,-1,21
 -635 1759 -635 1759 -700.5 1693.5 c 128,-1,22
 -766 1628 -766 1628 -766 1534 c 1,8,9
EndSplineSet
EndChar

StartChar: caretdeva
Encoding: 447 43258 191
Width: 1259
VWidth: 0
Flags: W
LayerCount: 2
Fore
SplineSet
381 1958 m 1,0,-1
 631 1604 l 1,1,-1
 850 1962 l 1,2,-1
 989 1876 l 1,3,-1
 731 1507 l 1,4,-1
 530 1507 l 1,5,-1
 258 1884 l 1,6,-1
 381 1958 l 1,0,-1
EndSplineSet
EndChar

StartChar: caron
Encoding: 448 711 192
Width: 860
VWidth: 0
Flags: W
LayerCount: 2
Fore
SplineSet
776 1468 m 1,0,-1
 524 1135 l 1,1,-1
 475 1135 l 1,2,-1
 223 1468 l 1,3,-1
 367 1468 l 1,4,-1
 500 1292 l 1,5,-1
 635 1468 l 1,6,-1
 776 1468 l 1,0,-1
EndSplineSet
EndChar

StartChar: caron.i
Encoding: 449 -1 193
Width: 860
VWidth: 0
Flags: W
LayerCount: 2
Fore
SplineSet
776 1468 m 1,0,-1
 524 1135 l 1,1,-1
 475 1135 l 1,2,-1
 223 1468 l 1,3,-1
 367 1468 l 1,4,-1
 500 1292 l 1,5,-1
 635 1468 l 1,6,-1
 776 1468 l 1,0,-1
EndSplineSet
EndChar

StartChar: cedilla
Encoding: 452 184 196
Width: 940
VWidth: 0
Flags: W
LayerCount: 2
Fore
SplineSet
193 -432 m 1,0,1
 182 -303 l 1,2,3
 287 -301 287 -301 356.5 -237.5 c 128,-1,4
 426 -174 426 -174 444 -78 c 1,5,-1
 594 -123 l 1,6,7
 557 -266 557 -266 447.5 -349 c 128,-1,8
 338 -432 338 -432 193 -432 c 1,0,1
EndSplineSet
EndChar

StartChar: cent
Encoding: 453 162 197
Width: 1210
VWidth: 0
Flags: W
LayerCount: 2
Fore
SplineSet
891 487 m 1,0,1
 1044 412 l 1,2,3
 995 307 995 307 909.5 238 c 128,-1,4
 824 169 824 169 713 146 c 1,5,-1
 713 -186 l 1,6,-1
 516 -186 l 1,7,-1
 516 143 l 1,8,9
 335 176 335 176 223 323.5 c 128,-1,10
 111 471 111 471 111 684 c 0,11,12
 111 892 111 892 225 1040.5 c 128,-1,13
 339 1189 339 1189 516 1224 c 1,14,-1
 516 1579 l 1,15,-1
 713 1579 l 1,16,-1
 713 1223 l 1,17,18
 759 1214 759 1214 800.5 1197 c 128,-1,19
 842 1180 842 1180 880 1154.5 c 128,-1,20
 918 1129 918 1129 950 1096 c 1,21,-1
 1055 1096 l 1,22,-1
 1055 924 l 1,23,-1
 872 924 l 1,24,-1
 868 922 l 2,25,26
 867 923 867 923 866 924 c 2,27,-1
 866 925 l 1,28,29
 782 1069 782 1069 610 1069 c 0,30,31
 477 1069 477 1069 387 962.5 c 128,-1,32
 297 856 297 856 297 684 c 0,33,34
 297 514 297 514 387 409.5 c 128,-1,35
 477 305 477 305 610 305 c 0,36,37
 807 305 807 305 891 487 c 1,0,1
EndSplineSet
EndChar

StartChar: chadeva
Encoding: 454 2331 198
Width: 1486
VWidth: 0
Flags: W
AnchorPoint: "DVAnchor0" 659 125 basechar 0
AnchorPoint: "DVAnchor3" 1077 1360 basechar 0
LayerCount: 2
Fore
SplineSet
641 260 m 0,0,1
 731 260 731 260 817.5 284 c 128,-1,2
 904 308 904 308 973 349 c 128,-1,3
 1042 390 1042 390 1097 446 c 1,4,5
 976 448 976 448 892.5 531.5 c 128,-1,6
 809 615 809 615 809 735 c 0,7,8
 809 841 809 841 873 921 c 128,-1,9
 937 1001 937 1001 1036 1023 c 1,10,-1
 1036 1204 l 1,11,-1
 -20 1204 l 1,12,-1
 -20 1376 l 1,13,-1
 1507 1376 l 1,14,-1
 1507 1204 l 1,15,-1
 1217 1204 l 1,16,-1
 1217 1008 l 1,17,-1
 1214 1008 l 1,18,19
 1295 974 1295 974 1344 901 c 128,-1,20
 1393 828 1393 828 1393 737 c 0,21,22
 1393 697 1393 697 1368 625 c 0,23,24
 1337 539 1337 539 1281 454 c 128,-1,25
 1225 369 1225 369 1134.5 282 c 128,-1,26
 1044 195 1044 195 905 140.5 c 128,-1,27
 766 86 766 86 602 86 c 0,28,29
 573 86 573 86 533.5 91 c 128,-1,30
 494 96 494 96 427 116.5 c 128,-1,31
 360 137 360 137 309 171 c 128,-1,32
 258 205 258 205 219 272.5 c 128,-1,33
 180 340 180 340 180 430 c 0,34,35
 180 529 180 529 246 595 c 1,36,37
 90 654 90 654 90 797 c 0,38,39
 90 911 90 911 172 971.5 c 128,-1,40
 254 1032 254 1032 385 1032 c 0,41,42
 582 1032 582 1032 676 860 c 1,43,-1
 532 778 l 1,44,45
 475 872 475 872 385 872 c 0,46,47
 270 872 270 872 270 776 c 0,48,49
 270 690 270 690 422 690 c 2,50,-1
 524 690 l 1,51,-1
 631 690 l 1,52,-1
 631 561 l 1,53,-1
 567 561 l 2,54,55
 463 561 463 561 411.5 534.5 c 128,-1,56
 360 508 360 508 360 430 c 0,57,58
 360 260 360 260 641 260 c 0,0,1
1229 735 m 0,59,60
 1229 788 1229 788 1192 826 c 128,-1,61
 1155 864 1155 864 1102 864 c 0,62,63
 1047 864 1047 864 1009 826 c 128,-1,64
 971 788 971 788 971 735 c 128,-1,65
 971 682 971 682 1008 644 c 128,-1,66
 1045 606 1045 606 1100 606 c 0,67,68
 1143 606 1143 606 1185 636.5 c 128,-1,69
 1227 667 1227 667 1229 735 c 0,59,60
EndSplineSet
EndChar

StartChar: chadeva_viramadeva
Encoding: 455 -1 199
Width: 1486
VWidth: 0
Flags: W
LayerCount: 2
Fore
SplineSet
641 260 m 0,0,1
 731 260 731 260 817.5 284 c 128,-1,2
 904 308 904 308 973 349 c 128,-1,3
 1042 390 1042 390 1097 446 c 1,4,5
 976 448 976 448 892.5 531.5 c 128,-1,6
 809 615 809 615 809 735 c 0,7,8
 809 858 809 858 894 944 c 128,-1,9
 979 1030 979 1030 1100 1030 c 0,10,11
 1223 1030 1223 1030 1308 945 c 128,-1,12
 1393 860 1393 860 1393 737 c 0,13,14
 1393 697 1393 697 1368 625 c 0,15,16
 1337 539 1337 539 1281 454 c 128,-1,17
 1225 369 1225 369 1134.5 282 c 128,-1,18
 1044 195 1044 195 905 140.5 c 128,-1,19
 766 86 766 86 602 86 c 0,20,21
 573 86 573 86 533.5 91 c 128,-1,22
 494 96 494 96 427 116.5 c 128,-1,23
 360 137 360 137 309 171 c 128,-1,24
 258 205 258 205 219 272.5 c 128,-1,25
 180 340 180 340 180 430 c 0,26,27
 180 529 180 529 246 595 c 1,28,29
 90 654 90 654 90 797 c 0,30,31
 90 911 90 911 172 971.5 c 128,-1,32
 254 1032 254 1032 385 1032 c 0,33,34
 582 1032 582 1032 676 860 c 1,35,-1
 532 778 l 1,36,37
 475 872 475 872 385 872 c 0,38,39
 270 872 270 872 270 776 c 0,40,41
 270 690 270 690 422 690 c 2,42,-1
 524 690 l 1,43,-1
 631 690 l 1,44,-1
 631 561 l 1,45,-1
 567 561 l 2,46,47
 463 561 463 561 411.5 534.5 c 128,-1,48
 360 508 360 508 360 430 c 0,49,50
 360 260 360 260 641 260 c 0,0,1
1507 1376 m 1,51,-1
 1507 1204 l 1,52,-1
 -20 1204 l 1,53,-1
 -20 1376 l 1,54,-1
 1507 1376 l 1,51,-1
1229 735 m 0,55,56
 1229 788 1229 788 1192 826 c 128,-1,57
 1155 864 1155 864 1102 864 c 0,58,59
 1047 864 1047 864 1009 826 c 128,-1,60
 971 788 971 788 971 735 c 128,-1,61
 971 682 971 682 1008 644 c 128,-1,62
 1045 606 1045 606 1100 606 c 0,63,64
 1143 606 1143 606 1185 636.5 c 128,-1,65
 1227 667 1227 667 1229 735 c 0,55,56
EndSplineSet
Ligature2: "HalfFormslookup10 subtable" chadeva viramadeva
EndChar

StartChar: chadeva_viramadeva_vadeva
Encoding: 456 -1 200
Width: 1486
VWidth: 0
Flags: W
AnchorPoint: "DVAnchor0" 1065 -492 basechar 0
LayerCount: 2
Fore
SplineSet
950 754 m 0,0,1
 950 709 950 709 981 677 c 128,-1,2
 1012 645 1012 645 1059 645 c 0,3,4
 1101 645 1101 645 1132 671.5 c 128,-1,5
 1163 698 1163 698 1169 747 c 0,6,7
 1169 751 1169 751 1169 754 c 0,8,9
 1169 799 1169 799 1137.5 831.5 c 128,-1,10
 1106 864 1106 864 1059 864 c 0,11,12
 1014 864 1014 864 982 832.5 c 128,-1,13
 950 801 950 801 950 754 c 0,0,1
1501 1376 m 1,14,-1
 1501 1204 l 1,15,-1
 1171 1204 l 1,16,-1
 1171 1008 l 1,17,18
 1252 974 1252 974 1301 901 c 128,-1,19
 1350 828 1350 828 1350 737 c 0,20,21
 1350 658 1350 658 1309 563 c 128,-1,22
 1268 468 1268 468 1171 394 c 1,23,-1
 1171 -332 l 1,24,-1
 1327 -332 l 1,25,-1
 1327 -504 l 1,26,-1
 1171 -504 l 1,27,-1
 991 -504 l 1,28,-1
 836 -504 l 1,29,-1
 836 -332 l 1,30,-1
 991 -332 l 1,31,-1
 991 -157 l 1,32,33
 822 -299 822 -299 621 -299 c 0,34,35
 428 -299 428 -299 304 -200.5 c 128,-1,36
 180 -102 180 -102 180 66 c 0,37,38
 180 222 180 222 301 323 c 1,39,40
 135 404 135 404 135 602 c 0,41,42
 135 786 135 786 301 871 c 1,43,44
 225 934 225 934 225 1036 c 2,45,-1
 225 1204 l 1,46,-1
 -20 1204 l 1,47,-1
 -20 1376 l 1,48,-1
 1501 1376 l 1,14,-1
991 152 m 1,49,50
 910 247 910 247 697 260 c 0,51,52
 690 260 690 260 682 260 c 0,53,54
 640 261 640 261 604 262 c 1,55,56
 560 259 560 259 521.5 249.5 c 128,-1,57
 483 240 483 240 444.5 220 c 128,-1,58
 406 200 406 200 383 160.5 c 128,-1,59
 360 121 360 121 360 66 c 0,60,61
 360 -20 360 -20 430 -73.5 c 128,-1,62
 500 -127 500 -127 631 -127 c 0,63,64
 726 -127 726 -127 820.5 -82.5 c 128,-1,65
 915 -38 915 -38 991 45 c 1,66,-1
 991 152 l 1,49,50
991 1024 m 1,67,68
 991 1204 l 1,69,-1
 406 1204 l 1,70,-1
 406 1063 l 2,71,72
 406 1012 406 1012 458 973 c 128,-1,73
 510 934 510 934 582 934 c 2,74,-1
 612 934 l 1,75,-1
 627 934 l 1,76,-1
 627 782 l 1,77,-1
 625 782 l 1,78,-1
 586 782 l 2,79,80
 317 782 317 782 317 612 c 0,81,82
 317 580 317 580 326.5 552 c 128,-1,83
 336 524 336 524 354.5 505.5 c 128,-1,84
 373 487 373 487 391.5 474 c 128,-1,85
 410 461 410 461 440.5 452.5 c 128,-1,86
 471 444 471 444 492.5 439 c 128,-1,87
 514 434 514 434 549 432 c 128,-1,88
 584 430 584 430 599 429 c 128,-1,89
 614 428 614 428 646 429 c 128,-1,90
 678 430 678 430 682 430 c 0,91,92
 900 430 900 430 1015 486 c 1,93,94
 907 499 907 499 836.5 574 c 128,-1,95
 766 649 766 649 766 758 c 0,96,97
 766 810 766 810 783 855.5 c 128,-1,98
 800 901 800 901 830 934.5 c 128,-1,99
 860 968 860 968 901 991.5 c 128,-1,100
 942 1015 942 1015 991 1024 c 1,67,68
EndSplineSet
Ligature2: "PreBaseSubstitutionslookup1 subtable" chadeva_viramadeva vadeva
Ligature2: "LocalizedMrHalfFormslookup1 subtable" cadeva viramadeva vadeva
EndChar

StartChar: circumflex
Encoding: 457 710 201
Width: 860
VWidth: 0
Flags: W
LayerCount: 2
Fore
SplineSet
217 1176 m 1,0,-1
 467 1489 l 1,1,-1
 530 1489 l 1,2,-1
 782 1176 l 1,3,-1
 633 1176 l 1,4,-1
 500 1331 l 1,5,-1
 365 1176 l 1,6,-1
 217 1176 l 1,0,-1
EndSplineSet
EndChar

StartChar: circumflex.i
Encoding: 458 -1 202
Width: 860
VWidth: 0
Flags: W
LayerCount: 2
Fore
SplineSet
217 1176 m 1,0,-1
 467 1489 l 1,1,-1
 530 1489 l 1,2,-1
 782 1176 l 1,3,-1
 633 1176 l 1,4,-1
 500 1331 l 1,5,-1
 365 1176 l 1,6,-1
 217 1176 l 1,0,-1
EndSplineSet
EndChar

StartChar: comma
Encoding: 460 44 204
Width: 569
VWidth: 0
Flags: W
LayerCount: 2
Fore
SplineSet
20 -287 m 1,0,-1
 205 283 l 1,1,-1
 424 197 l 1,2,-1
 164 -340 l 1,3,-1
 20 -287 l 1,0,-1
EndSplineSet
EndChar

StartChar: commaaccent
Encoding: 461 -1 205
Width: 339
VWidth: 0
Flags: W
LayerCount: 2
Fore
SplineSet
344 1507 m 1,0,-1
 231 1128 l 1,1,-1
 20 1212 l 1,2,-1
 201 1561 l 1,3,-1
 344 1507 l 1,0,-1
EndSplineSet
EndChar

StartChar: commabelow
Encoding: 462 -1 206
Width: 569
VWidth: 0
Flags: W
LayerCount: 2
Fore
SplineSet
20 -420 m 1,0,-1
 133 -41 l 1,1,-1
 344 -125 l 1,2,-1
 164 -473 l 1,3,-1
 20 -420 l 1,0,-1
EndSplineSet
EndChar

StartChar: copyright
Encoding: 463 169 207
Width: 1918
VWidth: 0
Flags: W
LayerCount: 2
Fore
SplineSet
1331 1190 m 1,0,1
 1190 1059 l 1,2,3
 1157 1098 1157 1098 1095.5 1122.5 c 128,-1,4
 1034 1147 1034 1147 979 1147 c 0,5,6
 852 1147 852 1147 762 1055 c 128,-1,7
 672 963 672 963 672 834 c 0,8,9
 672 707 672 707 762 616.5 c 128,-1,10
 852 526 852 526 979 526 c 0,11,12
 1101 526 1101 526 1171 606 c 1,13,-1
 1305 477 l 1,14,15
 1257 416 1257 416 1165 374 c 128,-1,16
 1073 332 1073 332 979 332 c 0,17,18
 770 332 770 332 623.5 478.5 c 128,-1,19
 477 625 477 625 477 833.5 c 128,-1,20
 477 1042 477 1042 623.5 1189.5 c 128,-1,21
 770 1337 770 1337 979 1337 c 0,22,23
 1179 1337 1179 1337 1331 1190 c 1,0,1
283 831 m 0,24,25
 283 546 283 546 479.5 350 c 128,-1,26
 676 154 676 154 958.5 154 c 128,-1,27
 1241 154 1241 154 1437.5 350 c 128,-1,28
 1634 546 1634 546 1634 831 c 0,29,30
 1634 1114 1634 1114 1437.5 1310.5 c 128,-1,31
 1241 1507 1241 1507 958.5 1507 c 128,-1,32
 676 1507 676 1507 479.5 1310.5 c 128,-1,33
 283 1114 283 1114 283 831 c 0,24,25
102 831 m 0,34,35
 102 1185 102 1185 352 1435.5 c 128,-1,36
 602 1686 602 1686 958 1686 c 0,37,38
 1313 1686 1313 1686 1565 1435.5 c 128,-1,39
 1817 1185 1817 1185 1817 831 c 0,40,41
 1817 475 1817 475 1566 225 c 128,-1,42
 1315 -25 1315 -25 958.5 -25 c 128,-1,43
 602 -25 602 -25 352 225 c 128,-1,44
 102 475 102 475 102 831 c 0,34,35
EndSplineSet
EndChar

StartChar: currency
Encoding: 464 164 208
Width: 1128
VWidth: 0
Flags: W
LayerCount: 2
Fore
SplineSet
295 747.5 m 128,-1,1
 295 631 295 631 377 549 c 128,-1,2
 459 467 459 467 575.5 467 c 128,-1,3
 692 467 692 467 774 549 c 128,-1,4
 856 631 856 631 856 747.5 c 128,-1,5
 856 864 856 864 774 946 c 128,-1,6
 692 1028 692 1028 575.5 1028 c 128,-1,7
 459 1028 459 1028 377 946 c 128,-1,0
 295 864 295 864 295 747.5 c 128,-1,1
368 1142 m 1,8,9
 399 1158 399 1158 432 1169 c 128,-1,10
 465 1180 465 1180 500.5 1186 c 128,-1,11
 536 1192 536 1192 573 1192 c 0,12,13
 682 1192 682 1192 777 1143 c 1,14,-1
 913 1307 l 1,15,-1
 1073 1192 l 1,16,-1
 928 1018 l 1,17,18
 1022 897 1022 897 1022 743 c 0,19,20
 1022 591 1022 591 930 471 c 1,21,-1
 1077 295 l 1,22,-1
 926 176 l 1,23,-1
 784 347 l 1,24,25
 736 322 736 322 682.5 308.5 c 128,-1,26
 629 295 629 295 573 295 c 0,27,28
 464 295 464 295 367 345 c 1,29,-1
 221 170 l 1,30,-1
 55 281 l 1,31,-1
 216 472 l 1,32,33
 125 592 125 592 125 743 c 0,34,35
 124 899 124 899 221 1021 c 1,36,-1
 74 1198 l 1,37,-1
 219 1321 l 1,38,-1
 368 1142 l 1,8,9
EndSplineSet
EndChar

StartChar: cyr.dotlessi
Encoding: 465 -1 209
Width: 612
VWidth: 0
Flags: W
LayerCount: 2
Fore
SplineSet
397 172 m 1,0,-1
 553 172 l 1,1,-1
 553 0 l 1,2,-1
 397 0 l 1,3,-1
 209 0 l 1,4,-1
 61 0 l 1,5,-1
 61 172 l 1,6,-1
 209 172 l 1,7,-1
 209 864 l 1,8,-1
 61 864 l 1,9,-1
 61 1036 l 1,10,-1
 209 1036 l 1,11,-1
 397 1036 l 1,12,-1
 553 1036 l 1,13,-1
 553 864 l 1,14,-1
 397 864 l 1,15,-1
 397 172 l 1,0,-1
EndSplineSet
EndChar

StartChar: d
Encoding: 466 100 210
Width: 1267
VWidth: 0
Flags: W
LayerCount: 2
Fore
SplineSet
1038 172 m 1,0,-1
 1190 172 l 1,1,-1
 1190 0 l 1,2,-1
 1038 0 l 1,3,-1
 862 0 l 1,4,-1
 852 0 l 1,5,-1
 852 85 l 1,6,7
 747 -23 747 -23 586 -23 c 0,8,9
 369 -23 369 -23 230.5 123.5 c 128,-1,10
 92 270 92 270 92 528 c 0,11,12
 92 768 92 768 230.5 914.5 c 128,-1,13
 369 1061 369 1061 596 1061 c 0,14,15
 748 1061 748 1061 852 987 c 1,16,-1
 852 1384 l 1,17,-1
 711 1384 l 1,18,-1
 711 1556 l 1,19,-1
 1038 1556 l 1,20,-1
 1038 1554 l 1,21,-1
 1038 1384 l 1,22,-1
 1038 172 l 1,0,-1
852 818 m 1,23,24
 758 897 758 897 604 897 c 0,25,26
 467 897 467 897 376 798.5 c 128,-1,27
 285 700 285 700 285 530 c 0,28,29
 285 344 285 344 374 241.5 c 128,-1,30
 463 139 463 139 610 139 c 0,31,32
 766 139 766 139 852 238 c 1,33,-1
 852 818 l 1,23,24
EndSplineSet
EndChar

StartChar: da_ddha_ra_yadeva
Encoding: 467 -1 211
Width: 2885
VWidth: 0
Flags: W
AnchorPoint: "DVAnchor0" 2513 14 basechar 0
LayerCount: 2
Fore
SplineSet
438 142 m 1,0,1
 416 139 416 139 393 139 c 0,2,3
 272 139 272 139 185 226 c 128,-1,4
 98 313 98 313 98 434 c 0,5,6
 98 551 98 551 182 640 c 128,-1,7
 266 729 266 729 393 729 c 0,8,9
 467 730 467 730 539 707 c 1,10,-1
 463 557 l 1,11,12
 436 565 436 565 395 565 c 0,13,14
 344 565 344 565 310 529 c 128,-1,15
 276 493 276 493 276 446 c 0,16,17
 276 385 276 385 314.5 347 c 128,-1,18
 353 309 353 309 406 309 c 0,19,20
 443 309 443 309 500 344 c 2,21,-1
 628 422 l 2,22,23
 637 428 637 428 646 434 c 128,-1,24
 655 440 655 440 666 447 c 1,25,26
 647 522 647 522 647 606 c 0,27,28
 647 801 647 801 781 916.5 c 128,-1,29
 915 1032 915 1032 1130 1032 c 2,30,-1
 1233 1032 l 1,31,-1
 1233 1204 l 1,32,-1
 586 1204 l 1,33,-1
 549 1204 l 1,34,-1
 -20 1204 l 1,35,-1
 -20 1376 l 1,36,-1
 549 1376 l 1,37,-1
 586 1376 l 1,38,-1
 1331 1376 l 1,39,-1
 1806 1376 l 1,40,-1
 2144 1376 l 1,41,-1
 2781 1376 l 1,42,-1
 2906 1376 l 1,43,-1
 2906 1204 l 1,44,-1
 2781 1204 l 1,45,-1
 2615 1204 l 1,46,-1
 2615 172 l 1,47,-1
 2771 172 l 1,48,-1
 2771 0 l 1,49,-1
 2615 0 l 1,50,-1
 2435 0 l 1,51,-1
 2279 0 l 1,52,-1
 2279 172 l 1,53,-1
 2435 172 l 1,54,-1
 2435 342 l 1,55,56
 2295 215 2295 215 2099 215 c 0,57,58
 1898 215 1898 215 1763 339 c 128,-1,59
 1628 463 1628 463 1624 688 c 1,60,-1
 1757 688 l 1,61,-1
 1767 688 l 2,62,63
 1886 688 1886 688 1886 774 c 0,64,65
 1886 809 1886 809 1862.5 834.5 c 128,-1,66
 1839 860 1839 860 1798 860 c 2,67,-1
 1331 860 l 1,68,-1
 1331 862 l 1,69,-1
 1102 862 l 2,70,71
 983 862 983 862 907 791.5 c 128,-1,72
 831 721 831 721 831 590 c 0,73,74
 831 453 831 453 913 355.5 c 128,-1,75
 995 258 995 258 1159 258 c 0,76,77
 1211 258 1211 258 1258 267 c 1,78,79
 1233 311 1233 311 1233 362 c 0,80,81
 1233 442 1233 442 1289.5 499.5 c 128,-1,82
 1346 557 1346 557 1425.5 557 c 128,-1,83
 1505 557 1505 557 1562.5 499.5 c 128,-1,84
 1620 442 1620 442 1620 362 c 0,85,86
 1620 315 1620 315 1597 270 c 1,87,-1
 1430 363 l 1,88,-1
 1763 -86 l 1,89,-1
 1632 -184 l 1,90,-1
 1392 139 l 1,91,92
 1337 117 1337 117 1280 104 c 1,93,94
 1249 -8 1249 -8 1184 -98.5 c 128,-1,95
 1119 -189 1119 -189 1018 -245 c 128,-1,96
 917 -301 917 -301 799 -301 c 0,97,98
 649 -301 649 -301 541.5 -195 c 128,-1,99
 434 -89 434 -89 434 63 c 0,100,101
 434 106 434 106 438 142 c 1,0,1
1103 87 m 1,102,103
 862 99 862 99 736 287 c 1,104,-1
 713 272 l 2,105,106
 614 211 614 211 614 86 c 0,107,108
 614 -4 614 -4 676.5 -66.5 c 128,-1,109
 739 -129 739 -129 829 -129 c 0,110,111
 934 -129 934 -129 1006 -68.5 c 128,-1,112
 1078 -8 1078 -8 1103 87 c 1,102,103
1413 1032 m 1,113,-1
 1798 1032 l 2,114,115
 1915 1032 1915 1032 1988.5 965.5 c 128,-1,116
 2062 899 2062 899 2062 797 c 0,117,118
 2062 696 2062 696 1990.5 627.5 c 128,-1,119
 1919 559 1919 559 1806 559 c 2,120,-1
 1792 559 l 1,121,122
 1850 387 1850 387 2097 387 c 0,123,124
 2236 387 2236 387 2335.5 479 c 128,-1,125
 2435 571 2435 571 2435 692 c 2,126,-1
 2435 1204 l 1,127,-1
 2144 1204 l 1,128,-1
 1806 1204 l 1,129,-1
 1413 1204 l 1,130,-1
 1413 1032 l 1,113,-1
EndSplineSet
Ligature2: "ConjunctFormslookup11 subtable" dadeva_viramadeva dhadeva_viramadeva_radeva viramadeva yadeva
Ligature2: "ConjunctFormslookup11 subtable" dadeva_viramadeva_dhadeva viramadeva_radeva viramadeva yadeva
EndChar

StartChar: dadeva
Encoding: 468 2342 212
Width: 1216
VWidth: 0
Flags: W
AnchorPoint: "DVAnchor0" 938 14 basechar 0
AnchorPoint: "DVAnchor3" 756 1360 basechar 0
LayerCount: 2
Fore
SplineSet
1237 1376 m 1,0,-1
 1237 1204 l 1,1,-1
 844 1204 l 1,2,-1
 844 1032 l 1,3,-1
 844 991 l 1,4,-1
 844 862 l 1,5,-1
 532 862 l 2,6,7
 414 862 414 862 338 791.5 c 128,-1,8
 262 721 262 721 262 590 c 0,9,10
 262 453 262 453 344 355.5 c 128,-1,11
 426 258 426 258 590 258 c 0,12,13
 642 258 642 258 689 267 c 1,14,15
 684 276 684 276 680 284.5 c 128,-1,16
 676 293 676 293 673 302.5 c 128,-1,17
 670 312 670 312 668 322 c 128,-1,18
 666 332 666 332 665 342 c 128,-1,19
 664 352 664 352 664 362 c 0,20,21
 664 442 664 442 720 499.5 c 128,-1,22
 776 557 776 557 856 557 c 128,-1,23
 936 557 936 557 993.5 499.5 c 128,-1,24
 1051 442 1051 442 1051 362 c 0,25,26
 1051 315 1051 315 1028 270 c 1,27,-1
 860 363 l 1,28,-1
 1194 -86 l 1,29,-1
 1063 -184 l 1,30,-1
 823 139 l 1,31,32
 684 86 684 86 563 86 c 0,33,34
 344 86 344 86 211 231.5 c 128,-1,35
 78 377 78 377 78 606 c 0,36,37
 78 801 78 801 212 916.5 c 128,-1,38
 346 1032 346 1032 561 1032 c 2,39,-1
 664 1032 l 1,40,-1
 664 1204 l 1,41,-1
 -20 1204 l 1,42,-1
 -20 1376 l 1,43,-1
 1237 1376 l 1,0,-1
EndSplineSet
EndChar

StartChar: dadeva_rvocalicsigndeva
Encoding: 469 -1 213
Width: 1216
VWidth: 0
Flags: W
LayerCount: 2
Fore
SplineSet
1253 -260 m 1,0,1
 1417 -326 l 1,2,3
 1397 -393 1397 -393 1326 -451.5 c 128,-1,4
 1255 -510 1255 -510 1153 -510 c 0,5,6
 1038 -510 1038 -510 959.5 -432.5 c 128,-1,7
 881 -355 881 -355 881 -238 c 0,8,9
 881 -112 881 -112 965 -52 c 1,10,-1
 823 139 l 1,11,12
 684 86 684 86 563 86 c 0,13,14
 344 86 344 86 211 231.5 c 128,-1,15
 78 377 78 377 78 606 c 0,16,17
 78 801 78 801 212 916.5 c 128,-1,18
 346 1032 346 1032 561 1032 c 2,19,-1
 664 1032 l 1,20,-1
 664 1204 l 1,21,-1
 -20 1204 l 1,22,-1
 -20 1376 l 1,23,-1
 1237 1376 l 1,24,-1
 1237 1204 l 1,25,-1
 844 1204 l 1,26,-1
 844 1032 l 1,27,-1
 844 991 l 1,28,-1
 844 862 l 1,29,-1
 532 862 l 2,30,31
 414 862 414 862 338 791.5 c 128,-1,32
 262 721 262 721 262 590 c 0,33,34
 262 453 262 453 344 355.5 c 128,-1,35
 426 258 426 258 590 258 c 0,36,37
 642 258 642 258 689 267 c 1,38,39
 684 276 684 276 680 284.5 c 128,-1,40
 676 293 676 293 673 302.5 c 128,-1,41
 670 312 670 312 668 322 c 128,-1,42
 666 332 666 332 665 342 c 128,-1,43
 664 352 664 352 664 362 c 0,44,45
 664 442 664 442 720 499.5 c 128,-1,46
 776 557 776 557 856 557 c 128,-1,47
 936 557 936 557 993.5 499.5 c 128,-1,48
 1051 442 1051 442 1051 362 c 0,49,50
 1051 315 1051 315 1028 270 c 1,51,-1
 860 363 l 1,52,-1
 1114 23 l 1,53,-1
 1115 21 l 1,54,-1
 1194 -86 l 1,55,-1
 1153 -117 l 1,56,-1
 1153 -119 l 1,57,58
 1104 -152 1104 -152 1081.5 -180.5 c 128,-1,59
 1059 -209 1059 -209 1059 -254 c 0,60,61
 1059 -287 1059 -287 1085.5 -313.5 c 128,-1,62
 1112 -340 1112 -340 1149 -340 c 0,63,64
 1230 -340 1230 -340 1253 -260 c 1,0,1
EndSplineSet
Ligature2: "BlwsSub_Ligature_Ukaar subtable" dadeva rvocalicsigndeva
EndChar

StartChar: dadeva_viramadeva_badeva
Encoding: 471 -1 215
Width: 1218
VWidth: 0
Flags: W
AnchorPoint: "DVAnchor0" 938 27 basechar 0
LayerCount: 2
Fore
SplineSet
1237 1376 m 1,0,-1
 1237 1204 l 1,1,-1
 844 1204 l 1,2,-1
 844 1032 l 1,3,-1
 844 991 l 1,4,-1
 844 862 l 1,5,-1
 532 862 l 2,6,7
 397 862 397 862 331.5 828.5 c 128,-1,8
 266 795 266 795 266 686 c 0,9,10
 267 481 267 481 578 481 c 0,11,12
 638 481 638 481 688 492 c 1,13,14
 682 515 682 515 682 539 c 0,15,16
 682 618 682 618 738.5 675.5 c 128,-1,17
 795 733 795 733 874.5 733 c 128,-1,18
 954 733 954 733 1011.5 676 c 128,-1,19
 1069 619 1069 619 1069 539 c 0,20,21
 1070 491 1070 491 1047 446 c 1,22,-1
 885 536 l 1,23,-1
 1208 98 l 1,24,-1
 1077 0 l 1,25,-1
 880 266 l 1,26,27
 868 233 868 233 849 196 c 128,-1,28
 830 159 830 159 793 111 c 128,-1,29
 756 63 756 63 712 26.5 c 128,-1,30
 668 -10 668 -10 602.5 -35.5 c 128,-1,31
 537 -61 537 -61 463 -61 c 0,32,33
 340 -61 340 -61 258 -3 c 128,-1,34
 176 55 176 55 176 164 c 0,35,36
 176 293 176 293 289 363 c 1,37,38
 189 412 189 412 135.5 499.5 c 128,-1,39
 82 587 82 587 82 702 c 0,40,41
 82 887 82 887 206 959.5 c 128,-1,42
 330 1032 330 1032 561 1032 c 2,43,-1
 664 1032 l 1,44,-1
 664 1204 l 1,45,-1
 -20 1204 l 1,46,-1
 -20 1376 l 1,47,-1
 1237 1376 l 1,0,-1
571 91 m 1,48,49
 363 253 l 1,50,51
 342 217 342 217 342 168 c 128,-1,52
 342 119 342 119 377 88 c 128,-1,53
 412 57 412 57 469 57 c 0,54,55
 518 57 518 57 571 91 c 1,48,49
669 183 m 1,56,57
 697 219 697 219 719 259.5 c 128,-1,58
 741 300 741 300 755 343 c 1,59,60
 645 309 645 309 551 309 c 0,61,62
 527 310 527 310 504 311 c 1,63,-1
 669 183 l 1,56,57
EndSplineSet
Ligature2: "PreBaseSubstitutionslookup1 subtable" dadeva_viramadeva badeva
Ligature2: "ConjunctFormslookup11 subtable" dadeva viramadeva badeva
Ligature2: "LocalizedMrHalfFormslookup1 subtable" dadeva viramadeva badeva
EndChar

StartChar: dadeva_viramadeva_bhadeva
Encoding: 472 -1 216
Width: 1755
VWidth: 0
Flags: W
AnchorPoint: "DVAnchor0" 1419 -41 basechar 0
LayerCount: 2
Fore
SplineSet
467 195 m 1,0,1
 436 232 436 232 390 237 c 128,-1,2
 344 242 344 242 309 215 c 0,3,4
 272 186 272 186 266 139 c 128,-1,5
 260 92 260 92 289 57 c 0,6,7
 317 20 317 20 364.5 14 c 128,-1,8
 412 8 412 8 448.5 37 c 128,-1,9
 485 66 485 66 491.5 110 c 128,-1,10
 498 154 498 154 467 195 c 1,0,1
948 -397 m 1,11,-1
 707 -371 l 1,12,-1
 616 -256 l 1,13,-1
 723 -173 l 1,14,-1
 607 -25 l 1,15,16
 581 -65 581 -65 541 -96 c 0,17,18
 444 -172 444 -172 334 -161.5 c 128,-1,19
 224 -151 224 -151 152 -61 c 0,20,21
 80 31 80 31 95.5 142.5 c 128,-1,22
 111 254 111 254 207 330 c 1,23,24
 305 403 305 403 413.5 391 c 128,-1,25
 522 379 522 379 596 287 c 0,26,27
 610 270 610 270 621 251 c 1,28,-1
 860 -55 l 1,29,-1
 864 -66 l 1,30,-1
 877 -51 l 1,31,-1
 1055 88 l 1,32,33
 922 99 922 99 822 168 c 128,-1,34
 722 237 722 237 669 350.5 c 128,-1,35
 616 464 616 464 616 606 c 0,36,37
 616 801 616 801 750.5 916.5 c 128,-1,38
 885 1032 885 1032 1100 1032 c 2,39,-1
 1202 1032 l 1,40,-1
 1202 1204 l 1,41,-1
 575 1204 l 1,42,-1
 518 1204 l 1,43,-1
 -20 1204 l 1,44,-1
 -20 1376 l 1,45,-1
 518 1376 l 1,46,-1
 575 1376 l 1,47,-1
 1776 1376 l 1,48,-1
 1776 1204 l 1,49,-1
 1382 1204 l 1,50,-1
 1382 1032 l 1,51,-1
 1382 991 l 1,52,-1
 1382 862 l 1,53,-1
 1071 862 l 2,54,55
 952 862 952 862 876.5 791.5 c 128,-1,56
 801 721 801 721 801 590 c 0,57,58
 801 453 801 453 882.5 355.5 c 128,-1,59
 964 258 964 258 1128 258 c 0,60,61
 1180 258 1180 258 1227 267 c 1,62,63
 1202 311 1202 311 1202 362 c 0,64,65
 1202 442 1202 442 1258.5 499.5 c 128,-1,66
 1315 557 1315 557 1395 557 c 128,-1,67
 1475 557 1475 557 1532 499.5 c 128,-1,68
 1589 442 1589 442 1589 362 c 0,69,70
 1590 315 1590 315 1567 270 c 1,71,-1
 1399 363 l 1,72,-1
 1733 -86 l 1,73,-1
 1602 -184 l 1,74,-1
 1362 139 l 1,75,76
 1349 134 1349 134 1337 130 c 1,77,-1
 961 -191 l 1,78,-1
 1057 -313 l 1,79,-1
 948 -397 l 1,11,-1
EndSplineSet
Ligature2: "PreBaseSubstitutionslookup1 subtable" dadeva_viramadeva bhadeva
Ligature2: "ConjunctFormslookup11 subtable" dadeva viramadeva bhadeva
Ligature2: "LocalizedMrHalfFormslookup1 subtable" dadeva viramadeva bhadeva
EndChar

StartChar: dadeva_viramadeva_dhadeva
Encoding: 474 -1 218
Width: 1800
VWidth: 0
Flags: W
AnchorPoint: "DVAnchor0" 1362 -168 basechar 0
LayerCount: 2
Fore
SplineSet
438 142 m 1,0,1
 416 139 416 139 393 139 c 0,2,3
 272 139 272 139 185 226 c 128,-1,4
 98 313 98 313 98 434 c 0,5,6
 98 551 98 551 182 640 c 128,-1,7
 266 729 266 729 393 729 c 0,8,9
 467 730 467 730 539 707 c 1,10,-1
 463 557 l 1,11,12
 436 565 436 565 395 565 c 0,13,14
 344 565 344 565 310 529 c 128,-1,15
 276 493 276 493 276 446 c 0,16,17
 276 385 276 385 314.5 347 c 128,-1,18
 353 309 353 309 406 309 c 0,19,20
 443 309 443 309 500 344 c 2,21,-1
 628 422 l 2,22,23
 646 434 646 434 670 449 c 2,24,-1
 681 455 l 1,25,26
 664 527 664 527 664 606 c 0,27,28
 664 801 664 801 798 916.5 c 128,-1,29
 932 1032 932 1032 1147 1032 c 2,30,-1
 1249 1032 l 1,31,-1
 1249 1204 l 1,32,-1
 586 1204 l 1,33,-1
 565 1204 l 1,34,-1
 -20 1204 l 1,35,-1
 -20 1376 l 1,36,-1
 565 1376 l 1,37,-1
 586 1376 l 1,38,-1
 1823 1376 l 1,39,-1
 1823 1204 l 1,40,-1
 1430 1204 l 1,41,-1
 1430 1032 l 1,42,-1
 1430 991 l 1,43,-1
 1430 862 l 1,44,-1
 1118 862 l 2,45,46
 999 862 999 862 923.5 791.5 c 128,-1,47
 848 721 848 721 848 590 c 0,48,49
 848 453 848 453 930 355.5 c 128,-1,50
 1012 258 1012 258 1176 258 c 0,51,52
 1227 258 1227 258 1274 267 c 1,53,54
 1249 311 1249 311 1249 362 c 0,55,56
 1249 442 1249 442 1305.5 499.5 c 128,-1,57
 1362 557 1362 557 1442 557 c 128,-1,58
 1522 557 1522 557 1579 499.5 c 128,-1,59
 1636 442 1636 442 1636 362 c 0,60,61
 1637 315 1637 315 1614 270 c 1,62,-1
 1446 363 l 1,63,-1
 1780 -86 l 1,64,-1
 1649 -184 l 1,65,-1
 1409 139 l 1,66,67
 1345 115 1345 115 1279 101 c 1,68,69
 1231 -72 1231 -72 1102.5 -186.5 c 128,-1,70
 974 -301 974 -301 799 -301 c 0,71,72
 649 -301 649 -301 541.5 -195 c 128,-1,73
 434 -89 434 -89 434 63 c 0,74,75
 434 106 434 106 438 142 c 1,0,1
1103 88 m 1,76,77
 987 97 987 97 896.5 150.5 c 128,-1,78
 806 204 806 204 748 294 c 1,79,-1
 713 272 l 2,80,81
 614 211 614 211 614 86 c 0,82,83
 614 -4 614 -4 676.5 -66.5 c 128,-1,84
 739 -129 739 -129 829 -129 c 0,85,86
 934 -129 934 -129 1006 -68.5 c 128,-1,87
 1078 -8 1078 -8 1103 88 c 1,76,77
EndSplineSet
Ligature2: "PreBaseSubstitutionslookup1 subtable" dadeva_viramadeva dhadeva
Ligature2: "ConjunctFormslookup11 subtable" dadeva viramadeva dhadeva
Ligature2: "LocalizedMrHalfFormslookup1 subtable" dadeva viramadeva dhadeva
EndChar

StartChar: dadeva_viramadeva_gadeva
Encoding: 475 -1 219
Width: 1216
VWidth: 0
Flags: W
AnchorPoint: "DVAnchor0" 915 10 basechar 0
LayerCount: 2
Fore
SplineSet
356 -319 m 1,0,-1
 182 -147 l 1,1,-1
 182 0 l 1,2,-1
 317 0 l 1,3,-1
 317 147 l 1,4,5
 204 211 204 211 141 331.5 c 128,-1,6
 78 452 78 452 78 606 c 0,7,8
 78 801 78 801 212 916.5 c 128,-1,9
 346 1032 346 1032 561 1032 c 2,10,-1
 664 1032 l 1,11,-1
 664 1204 l 1,12,-1
 -20 1204 l 1,13,-1
 -20 1376 l 1,14,-1
 1237 1376 l 1,15,-1
 1237 1204 l 1,16,-1
 844 1204 l 1,17,-1
 844 1032 l 1,18,-1
 844 991 l 1,19,-1
 844 862 l 1,20,-1
 532 862 l 2,21,22
 414 862 414 862 338 791.5 c 128,-1,23
 262 721 262 721 262 590 c 0,24,25
 262 453 262 453 344 355.5 c 128,-1,26
 426 258 426 258 590 258 c 0,27,28
 642 258 642 258 689 267 c 1,29,30
 684 276 684 276 680 284.5 c 128,-1,31
 676 293 676 293 673 302.5 c 128,-1,32
 670 312 670 312 668 322 c 128,-1,33
 666 332 666 332 665 342 c 128,-1,34
 664 352 664 352 664 362 c 0,35,36
 664 442 664 442 720 499.5 c 128,-1,37
 776 557 776 557 856 557 c 128,-1,38
 936 557 936 557 993.5 499.5 c 128,-1,39
 1051 442 1051 442 1051 362 c 0,40,41
 1051 315 1051 315 1028 270 c 1,42,-1
 860 363 l 1,43,-1
 1194 -86 l 1,44,-1
 1063 -184 l 1,45,-1
 823 139 l 1,46,47
 684 86 684 86 563 86 c 0,48,49
 530 86 530 86 498 90 c 1,50,-1
 498 0 l 1,51,-1
 498 -29 l 1,52,-1
 498 -319 l 1,53,-1
 356 -319 l 1,0,-1
EndSplineSet
Ligature2: "PreBaseSubstitutionslookup1 subtable" dadeva_viramadeva gadeva
Ligature2: "ConjunctFormslookup11 subtable" dadeva viramadeva gadeva
Ligature2: "LocalizedMrHalfFormslookup1 subtable" dadeva viramadeva gadeva
EndChar

StartChar: dadeva_viramadeva_vadeva
Encoding: 480 -1 224
Width: 1216
VWidth: 0
Flags: W
AnchorPoint: "DVAnchor0" 981 20 basechar 0
LayerCount: 2
Fore
SplineSet
1237 1376 m 1,0,-1
 1237 1204 l 1,1,-1
 844 1204 l 1,2,-1
 844 1032 l 1,3,-1
 844 991 l 1,4,-1
 844 862 l 1,5,-1
 532 862 l 2,6,7
 397 862 397 862 331.5 828.5 c 128,-1,8
 266 795 266 795 266 686 c 0,9,10
 267 481 267 481 578 481 c 0,11,12
 638 481 638 481 688 492 c 1,13,14
 682 515 682 515 682 539 c 0,15,16
 682 618 682 618 738.5 675.5 c 128,-1,17
 795 733 795 733 874.5 733 c 128,-1,18
 954 733 954 733 1011.5 676 c 128,-1,19
 1069 619 1069 619 1069 539 c 0,20,21
 1070 491 1070 491 1047 446 c 1,22,-1
 885 536 l 1,23,-1
 1208 98 l 1,24,-1
 1077 0 l 1,25,-1
 880 266 l 1,26,27
 868 233 868 233 849 196 c 128,-1,28
 830 159 830 159 793 111 c 128,-1,29
 756 63 756 63 712 26.5 c 128,-1,30
 668 -10 668 -10 602.5 -35.5 c 128,-1,31
 537 -61 537 -61 463 -61 c 0,32,33
 340 -61 340 -61 258 -3 c 128,-1,34
 176 55 176 55 176 164 c 0,35,36
 176 293 176 293 289 363 c 1,37,38
 189 412 189 412 135.5 499.5 c 128,-1,39
 82 587 82 587 82 702 c 0,40,41
 82 887 82 887 206 959.5 c 128,-1,42
 330 1032 330 1032 561 1032 c 2,43,-1
 664 1032 l 1,44,-1
 664 1204 l 1,45,-1
 -20 1204 l 1,46,-1
 -20 1376 l 1,47,-1
 1237 1376 l 1,0,-1
755 343 m 1,48,49
 644 309 644 309 551 309 c 0,50,51
 489 310 489 310 433 319 c 1,52,53
 342 269 342 269 342 168 c 0,54,55
 342 119 342 119 377 88 c 128,-1,56
 412 57 412 57 469 57 c 0,57,58
 550 57 550 57 633.5 143 c 128,-1,59
 717 229 717 229 755 343 c 1,48,49
EndSplineSet
Ligature2: "PreBaseSubstitutionslookup1 subtable" dadeva_viramadeva vadeva
Ligature2: "ConjunctFormslookup11 subtable" dadeva viramadeva vadeva
Ligature2: "LocalizedMrHalfFormslookup1 subtable" dadeva viramadeva vadeva
EndChar

StartChar: dadeva_viramadeva_yadeva
Encoding: 481 -1 225
Width: 1486
VWidth: 0
Flags: W
LayerCount: 2
Fore
SplineSet
1036 1204 m 1,0,-1
 844 1204 l 1,1,-1
 809 1204 l 1,2,-1
 809 860 l 1,3,-1
 737 860 l 1,4,-1
 629 860 l 1,5,-1
 399 860 l 2,6,7
 276 860 276 860 276 774 c 0,8,9
 276 725 276 725 315 706.5 c 128,-1,10
 354 688 354 688 436 688 c 2,11,-1
 637 688 l 1,12,-1
 674 688 l 1,13,-1
 674 516 l 1,14,-1
 479 516 l 2,15,16
 426 516 426 516 388 478 c 128,-1,17
 350 440 350 440 350 387 c 0,18,19
 350 332 350 332 397 295 c 128,-1,20
 444 258 444 258 520 258 c 0,21,22
 760 258 760 258 1036 586 c 1,23,-1
 1036 1204 l 1,0,-1
1036 0 m 1,24,-1
 881 0 l 1,25,-1
 881 172 l 1,26,-1
 1036 172 l 1,27,-1
 1036 354 l 1,28,29
 783 86 783 86 520 86 c 0,30,31
 367 86 367 86 268.5 173 c 128,-1,32
 170 260 170 260 170 387 c 0,33,34
 170 482 170 482 238 552 c 1,35,36
 96 612 96 612 96 774 c 0,37,38
 96 899 96 899 181 965.5 c 128,-1,39
 266 1032 266 1032 399 1032 c 2,40,-1
 629 1032 l 1,41,-1
 629 1204 l 1,42,-1
 -20 1204 l 1,43,-1
 -20 1376 l 1,44,-1
 745 1376 l 1,45,-1
 844 1376 l 1,46,-1
 1507 1376 l 1,47,-1
 1507 1204 l 1,48,-1
 1217 1204 l 1,49,-1
 1217 172 l 1,50,-1
 1372 172 l 1,51,-1
 1372 0 l 1,52,-1
 1217 0 l 1,53,-1
 1036 0 l 1,24,-1
EndSplineSet
Ligature2: "PreBaseSubstitutionslookup1 subtable" dadeva_viramadeva yadeva
Ligature2: "ConjunctFormslookup11 subtable" dadeva viramadeva yadeva
Ligature2: "LocalizedMrHalfFormslookup1 subtable" dadeva viramadeva yadeva
EndChar

StartChar: dagger
Encoding: 482 8224 226
Width: 1126
VWidth: 0
Flags: W
LayerCount: 2
Fore
SplineSet
467 -471 m 1,0,-1
 467 864 l 1,1,-1
 51 864 l 1,2,-1
 51 1036 l 1,3,-1
 467 1036 l 1,4,-1
 467 1513 l 1,5,-1
 664 1513 l 1,6,-1
 664 1036 l 1,7,-1
 1075 1036 l 1,8,-1
 1075 864 l 1,9,-1
 664 864 l 1,10,-1
 664 -471 l 1,11,-1
 467 -471 l 1,0,-1
EndSplineSet
EndChar

StartChar: daggerdbl
Encoding: 483 8225 227
Width: 1126
VWidth: 0
Flags: W
LayerCount: 2
Fore
SplineSet
467 -471 m 1,0,-1
 467 -2 l 1,1,-1
 51 -2 l 1,2,-1
 51 170 l 1,3,-1
 467 170 l 1,4,-1
 467 864 l 1,5,-1
 51 864 l 1,6,-1
 51 1036 l 1,7,-1
 467 1036 l 1,8,-1
 467 1513 l 1,9,-1
 664 1513 l 1,10,-1
 664 1036 l 1,11,-1
 1075 1036 l 1,12,-1
 1075 864 l 1,13,-1
 664 864 l 1,14,-1
 664 170 l 1,15,-1
 1075 170 l 1,16,-1
 1075 -2 l 1,17,-1
 664 -2 l 1,18,-1
 664 -471 l 1,19,-1
 467 -471 l 1,0,-1
EndSplineSet
EndChar

StartChar: danda
Encoding: 484 2404 228
Width: 720
VWidth: 0
Flags: W
LayerCount: 2
Fore
SplineSet
451 0 m 1,0,-1
 270 0 l 1,1,-1
 270 1376 l 1,2,-1
 451 1376 l 1,3,-1
 451 0 l 1,0,-1
EndSplineSet
EndChar

StartChar: dbldanda
Encoding: 485 2405 229
Width: 901
VWidth: 0
Flags: W
LayerCount: 2
Fore
SplineSet
721 0 m 1,0,-1
 541 0 l 1,1,-1
 541 1376 l 1,2,-1
 721 1376 l 1,3,-1
 721 0 l 1,0,-1
360 0 m 1,4,-1
 180 0 l 1,5,-1
 180 1376 l 1,6,-1
 360 1376 l 1,7,-1
 360 0 l 1,4,-1
EndSplineSet
EndChar

StartChar: dcroat
Encoding: 487 273 231
Width: 1267
VWidth: 0
Flags: W
LayerCount: 2
Fore
SplineSet
1190 1120 m 1,0,-1
 1038 1120 l 1,1,-1
 1038 172 l 1,2,-1
 1190 172 l 1,3,-1
 1190 0 l 1,4,-1
 1038 0 l 1,5,-1
 862 0 l 1,6,-1
 852 0 l 1,7,-1
 852 85 l 1,8,9
 747 -23 747 -23 586 -23 c 0,10,11
 369 -23 369 -23 230.5 123.5 c 128,-1,12
 92 270 92 270 92 528 c 0,13,14
 92 768 92 768 230.5 914.5 c 128,-1,15
 369 1061 369 1061 596 1061 c 0,16,17
 748 1061 748 1061 852 987 c 1,18,-1
 852 1120 l 1,19,-1
 657 1120 l 1,20,-1
 657 1292 l 1,21,-1
 852 1292 l 1,22,-1
 852 1384 l 1,23,-1
 711 1384 l 1,24,-1
 711 1556 l 1,25,-1
 1038 1556 l 1,26,-1
 1038 1554 l 1,27,-1
 1038 1384 l 1,28,-1
 1038 1292 l 1,29,-1
 1190 1292 l 1,30,-1
 1190 1120 l 1,0,-1
852 818 m 1,31,32
 758 897 758 897 604 897 c 0,33,34
 467 897 467 897 376 798.5 c 128,-1,35
 285 700 285 700 285 530 c 0,36,37
 285 344 285 344 374 241.5 c 128,-1,38
 463 139 463 139 610 139 c 0,39,40
 766 139 766 139 852 238 c 1,41,-1
 852 818 l 1,31,32
EndSplineSet
EndChar

StartChar: ddadeva
Encoding: 488 2337 232
Width: 1259
VWidth: 0
Flags: W
AnchorPoint: "DVAnchor0" 774 0 basechar 0
AnchorPoint: "DVAnchor3" 1032 1360 basechar 0
LayerCount: 2
Fore
SplineSet
1280 1376 m 1,0,-1
 1280 1204 l 1,1,-1
 1126 1204 l 1,2,-1
 1126 860 l 1,3,-1
 1020 860 l 1,4,-1
 946 860 l 1,5,-1
 766 860 l 2,6,7
 651 860 651 860 589.5 836.5 c 128,-1,8
 528 813 528 813 528 745 c 0,9,10
 528 682 528 682 582.5 650 c 128,-1,11
 637 618 637 618 727 618 c 2,12,-1
 801 618 l 2,13,14
 915 618 915 618 996 588.5 c 128,-1,15
 1077 559 1077 559 1114 510 c 128,-1,16
 1151 461 1151 461 1165.5 417 c 128,-1,17
 1180 373 1180 373 1180 326 c 0,18,19
 1180 168 1180 168 1067.5 84 c 128,-1,20
 955 0 955 0 803 0 c 0,21,22
 493 0 493 0 106 326 c 1,23,-1
 215 440 l 1,24,25
 520 172 520 172 803 172 c 0,26,27
 887 172 887 172 943 208 c 128,-1,28
 999 244 999 244 999 326 c 0,29,30
 999 379 999 379 951 421 c 128,-1,31
 903 463 903 463 801 463 c 2,32,-1
 727 463 l 2,33,34
 543 463 543 463 445.5 541.5 c 128,-1,35
 348 620 348 620 348 745 c 0,36,37
 348 1032 348 1032 766 1032 c 2,38,-1
 946 1032 l 1,39,-1
 946 1204 l 1,40,-1
 -20 1204 l 1,41,-1
 -20 1376 l 1,42,-1
 1280 1376 l 1,0,-1
EndSplineSet
Colour: ff0000
EndChar

StartChar: ddadeva_viramadeva_ddadeva
Encoding: 490 -1 234
Width: 1306
VWidth: 0
Flags: W
AnchorPoint: "DVAnchor0" 1980 -55 basechar 0
LayerCount: 2
Fore
SplineSet
1325 1376 m 1,0,-1
 1325 1204 l 1,1,-1
 1171 1204 l 1,2,-1
 1171 860 l 1,3,-1
 1069 860 l 1,4,-1
 991 860 l 1,5,-1
 811 860 l 2,6,7
 748 860 748 860 718 859 c 128,-1,8
 688 858 688 858 651 851 c 128,-1,9
 614 844 614 844 600 827.5 c 128,-1,10
 586 811 586 811 586 784 c 0,11,12
 586 756 586 756 603.5 737.5 c 128,-1,13
 621 719 621 719 654.5 713 c 128,-1,14
 688 707 688 707 711.5 704.5 c 128,-1,15
 735 702 735 702 772 702 c 2,16,-1
 846 702 l 2,17,18
 961 702 961 702 1041.5 674.5 c 128,-1,19
 1122 647 1122 647 1159 603 c 128,-1,20
 1196 559 1196 559 1210.5 522.5 c 128,-1,21
 1225 486 1225 486 1225 451 c 0,22,23
 1225 303 1225 303 1114.5 236.5 c 128,-1,24
 1004 170 1004 170 848 170 c 0,25,26
 840 170 840 170 831 170 c 2,27,-1
 821 170 l 2,28,29
 805 170 805 170 778.5 170 c 128,-1,30
 752 170 752 170 736.5 170 c 128,-1,31
 721 170 721 170 698.5 170 c 128,-1,32
 676 170 676 170 663.5 168 c 128,-1,33
 651 166 651 166 634.5 164 c 128,-1,34
 618 162 618 162 609 157 c 128,-1,35
 600 152 600 152 592 145.5 c 128,-1,36
 584 139 584 139 579.5 128.5 c 128,-1,37
 575 118 575 118 575 106 c 0,38,39
 575 78 575 78 592.5 59.5 c 128,-1,40
 610 41 610 41 644 35 c 128,-1,41
 678 29 678 29 701.5 27 c 128,-1,42
 725 25 725 25 762 25 c 2,43,-1
 836 25 l 2,44,45
 950 25 950 25 1031 -3 c 128,-1,46
 1112 -31 1112 -31 1149 -75 c 128,-1,47
 1186 -119 1186 -119 1200 -155.5 c 128,-1,48
 1214 -192 1214 -192 1214 -227 c 0,49,50
 1214 -375 1214 -375 1104 -441.5 c 128,-1,51
 994 -508 994 -508 838 -508 c 0,52,53
 721 -508 721 -508 566.5 -450.5 c 128,-1,54
 412 -393 412 -393 328 -346 c 128,-1,55
 244 -299 244 -299 86 -205 c 1,56,-1
 170 -78 l 1,57,58
 589 -336 589 -336 874 -336 c 0,59,60
 1034 -336 1034 -336 1034 -238 c 0,61,62
 1035 -147 1035 -147 836 -147 c 2,63,-1
 762 -147 l 2,64,65
 578 -147 578 -147 481.5 -76 c 128,-1,66
 385 -5 385 -5 385 106 c 0,67,68
 385 220 385 220 459 273 c 1,69,70
 336 329 336 329 117 460 c 0,71,72
 103 469 103 469 96 473 c 1,73,-1
 180 600 l 1,74,75
 600 342 600 342 885 342 c 0,76,77
 1044 342 1044 342 1044 440 c 0,78,79
 1045 530 1045 530 846 530 c 2,80,-1
 772 530 l 2,81,82
 588 530 588 530 491.5 601.5 c 128,-1,83
 395 673 395 673 395 784 c 0,84,85
 395 1032 395 1032 815 1032 c 2,86,-1
 991 1032 l 1,87,-1
 991 1204 l 1,88,-1
 -20 1204 l 1,89,-1
 -20 1376 l 1,90,-1
 1325 1376 l 1,0,-1
EndSplineSet
Ligature2: "PreBaseSubstitutionslookup1 subtable" ddadeva_viramadeva ddadeva
Ligature2: "LocalizedMrHalfFormslookup1 subtable" ddadeva viramadeva ddadeva
EndChar

StartChar: ddadeva_viramadeva_ddhadeva
Encoding: 491 -1 235
Width: 1259
VWidth: 0
Flags: W
AnchorPoint: "DVAnchor0" 840 -365 basechar 0
LayerCount: 2
Fore
SplineSet
1280 1376 m 1,0,-1
 1280 1204 l 1,1,-1
 1130 1204 l 1,2,-1
 1130 860 l 1,3,-1
 1014 860 l 1,4,-1
 950 860 l 1,5,-1
 762 860 l 2,6,7
 739 860 739 860 707.5 861 c 128,-1,8
 676 862 676 862 657.5 862 c 128,-1,9
 639 862 639 862 614.5 861 c 128,-1,10
 590 860 590 860 576.5 857 c 128,-1,11
 563 854 563 854 550 847 c 128,-1,12
 537 840 537 840 531.5 827.5 c 128,-1,13
 526 815 526 815 526 799 c 0,14,15
 526 776 526 776 539.5 762 c 128,-1,16
 553 748 553 748 582.5 741.5 c 128,-1,17
 612 735 612 735 643 733 c 128,-1,18
 674 731 674 731 723 731 c 2,19,-1
 797 731 l 2,20,21
 889 731 889 731 960.5 710.5 c 128,-1,22
 1032 690 1032 690 1071 660.5 c 128,-1,23
 1110 631 1110 631 1134.5 592 c 128,-1,24
 1159 553 1159 553 1166.5 521.5 c 128,-1,25
 1174 490 1174 490 1174 459 c 0,26,27
 1174 328 1174 328 1060 250 c 128,-1,28
 946 172 946 172 799 172 c 0,29,30
 692 172 692 172 579 209 c 1,31,-1
 537 213 l 1,32,33
 418 213 418 213 342 140.5 c 128,-1,34
 266 68 266 68 266 -63 c 0,35,36
 266 -178 266 -178 329.5 -262.5 c 128,-1,37
 393 -347 393 -347 527 -365 c 1,38,39
 457 -302 457 -302 457 -201 c 0,40,41
 457 -78 457 -78 542 8 c 128,-1,42
 627 94 627 94 748 94 c 0,43,44
 870 94 870 94 956 8 c 128,-1,45
 1042 -78 1042 -78 1042 -201 c 0,46,47
 1042 -336 1042 -336 934.5 -421 c 128,-1,48
 827 -506 827 -506 643 -506 c 0,49,50
 375 -506 375 -506 228.5 -384 c 128,-1,51
 82 -262 82 -262 82 -47 c 0,52,53
 82 86 82 86 147.5 184 c 128,-1,54
 213 282 213 282 329 332 c 1,55,56
 223 399 223 399 106 498 c 1,57,-1
 215 612 l 1,58,59
 520 344 520 344 799 344 c 0,60,61
 874 344 874 344 933.5 373 c 128,-1,62
 993 402 993 402 993 455 c 0,63,64
 993 512 993 512 950.5 535.5 c 128,-1,65
 908 559 908 559 797 559 c 2,66,-1
 723 559 l 2,67,68
 541 559 541 559 443.5 624 c 128,-1,69
 346 689 346 689 346 793 c 0,70,71
 346 909 346 909 436 970.5 c 128,-1,72
 526 1032 526 1032 762 1032 c 2,73,-1
 950 1032 l 1,74,-1
 950 1204 l 1,75,-1
 -20 1204 l 1,76,-1
 -20 1376 l 1,77,-1
 1280 1376 l 1,0,-1
602 -200.5 m 128,-1,79
 602 -260 602 -260 645 -303 c 128,-1,80
 688 -346 688 -346 747.5 -346 c 128,-1,81
 807 -346 807 -346 849 -303 c 128,-1,82
 891 -260 891 -260 891 -200.5 c 128,-1,83
 891 -141 891 -141 849 -99 c 128,-1,84
 807 -57 807 -57 747.5 -57 c 128,-1,85
 688 -57 688 -57 645 -99 c 128,-1,78
 602 -141 602 -141 602 -200.5 c 128,-1,79
EndSplineSet
Ligature2: "PreBaseSubstitutionslookup1 subtable" ddadeva_viramadeva ddhadeva
Ligature2: "LocalizedMrHalfFormslookup1 subtable" ddadeva viramadeva ddhadeva
EndChar

StartChar: dddadeva
Encoding: 493 2430 237
Width: 1259
VWidth: 0
Flags: W
AnchorPoint: "DVAnchor3" 1024 1360 basechar 0
LayerCount: 2
Fore
SplineSet
0 -215 m 1,0,-1
 0 -43 l 1,1,-1
 1262 -43 l 1,2,-1
 1262 -215 l 1,3,-1
 0 -215 l 1,0,-1
1280 1376 m 1,4,-1
 1280 1204 l 1,5,-1
 1126 1204 l 1,6,-1
 1126 860 l 1,7,-1
 1020 860 l 1,8,-1
 946 860 l 1,9,-1
 766 860 l 2,10,11
 651 860 651 860 589.5 836.5 c 128,-1,12
 528 813 528 813 528 745 c 0,13,14
 528 682 528 682 582.5 650 c 128,-1,15
 637 618 637 618 727 618 c 2,16,-1
 801 618 l 2,17,18
 915 618 915 618 996 588.5 c 128,-1,19
 1077 559 1077 559 1114 510 c 128,-1,20
 1151 461 1151 461 1165.5 417 c 128,-1,21
 1180 373 1180 373 1180 326 c 0,22,23
 1180 168 1180 168 1067.5 84 c 128,-1,24
 955 0 955 0 803 0 c 0,25,26
 493 0 493 0 106 326 c 1,27,-1
 215 440 l 1,28,29
 520 172 520 172 803 172 c 0,30,31
 887 172 887 172 943 208 c 128,-1,32
 999 244 999 244 999 326 c 0,33,34
 999 379 999 379 951 421 c 128,-1,35
 903 463 903 463 801 463 c 2,36,-1
 727 463 l 2,37,38
 543 463 543 463 445.5 541.5 c 128,-1,39
 348 620 348 620 348 745 c 0,40,41
 348 1032 348 1032 766 1032 c 2,42,-1
 946 1032 l 1,43,-1
 946 1204 l 1,44,-1
 -20 1204 l 1,45,-1
 -20 1376 l 1,46,-1
 1280 1376 l 1,4,-1
EndSplineSet
EndChar

StartChar: ddhadeva
Encoding: 495 2338 239
Width: 1126
VWidth: 0
Flags: W
AnchorPoint: "DVAnchor0" 680 96 basechar 0
AnchorPoint: "DVAnchor3" 813 1360 basechar 0
LayerCount: 2
Fore
SplineSet
612 391.5 m 128,-1,1
 612 332 612 332 655 289 c 128,-1,2
 698 246 698 246 757.5 246 c 128,-1,3
 817 246 817 246 859 289 c 128,-1,4
 901 332 901 332 901 391.5 c 128,-1,5
 901 451 901 451 859 493 c 128,-1,6
 817 535 817 535 757.5 535 c 128,-1,7
 698 535 698 535 655 493 c 128,-1,0
 612 451 612 451 612 391.5 c 128,-1,1
1147 1376 m 1,8,-1
 1147 1204 l 1,9,-1
 903 1204 l 1,10,-1
 903 1032 l 1,11,-1
 903 889 l 1,12,-1
 903 862 l 1,13,-1
 547 862 l 2,14,15
 428 862 428 862 352 791.5 c 128,-1,16
 276 721 276 721 276 590 c 0,17,18
 276 506 276 506 300 434 c 128,-1,19
 324 362 324 362 384.5 303 c 128,-1,20
 445 244 445 244 535 229 c 1,21,22
 467 291 467 291 467 391 c 0,23,24
 467 514 467 514 552 600 c 128,-1,25
 637 686 637 686 758 686 c 0,26,27
 881 686 881 686 967 600 c 128,-1,28
 1053 514 1053 514 1053 391 c 0,29,30
 1053 256 1053 256 945 171 c 128,-1,31
 837 86 837 86 653 86 c 0,32,33
 387 86 387 86 239.5 230.5 c 128,-1,34
 92 375 92 375 92 606 c 0,35,36
 92 801 92 801 227 916.5 c 128,-1,37
 362 1032 362 1032 575 1032 c 2,38,-1
 721 1032 l 1,39,-1
 721 1204 l 1,40,-1
 -18 1204 l 1,41,-1
 -18 1376 l 1,42,-1
 1147 1376 l 1,8,-1
EndSplineSet
EndChar

StartChar: degree
Encoding: 499 176 243
Width: 681
VWidth: 0
Flags: W
LayerCount: 2
Fore
SplineSet
205 1497 m 128,-1,1
 205 1442 205 1442 245 1402 c 128,-1,2
 285 1362 285 1362 340 1362 c 128,-1,3
 395 1362 395 1362 436 1402 c 128,-1,4
 477 1442 477 1442 477 1497 c 128,-1,5
 477 1552 477 1552 436 1593 c 128,-1,6
 395 1634 395 1634 340 1634 c 128,-1,7
 285 1634 285 1634 245 1593 c 128,-1,0
 205 1552 205 1552 205 1497 c 128,-1,1
340 1737 m 128,-1,9
 438 1737 438 1737 509 1666 c 128,-1,10
 580 1595 580 1595 580 1497 c 128,-1,11
 580 1399 580 1399 509 1329.5 c 128,-1,12
 438 1260 438 1260 340 1260 c 128,-1,13
 242 1260 242 1260 172 1329.5 c 128,-1,14
 102 1399 102 1399 102 1497 c 128,-1,15
 102 1595 102 1595 172 1666 c 128,-1,8
 242 1737 242 1737 340 1737 c 128,-1,9
EndSplineSet
EndChar

StartChar: dhadeva
Encoding: 500 2343 244
Width: 1394
VWidth: 0
Flags: W
AnchorPoint: "DVAnchor3" 1065 1360 basechar 0
LayerCount: 2
Fore
SplineSet
1415 1376 m 1,0,-1
 1415 1204 l 1,1,-1
 1126 1204 l 1,2,-1
 1126 172 l 1,3,-1
 1280 172 l 1,4,-1
 1280 0 l 1,5,-1
 1126 0 l 1,6,-1
 946 0 l 1,7,-1
 788 0 l 1,8,-1
 788 172 l 1,9,-1
 946 172 l 1,10,-1
 946 359 l 1,11,12
 790 215 790 215 578 215 c 0,13,14
 408 215 408 215 293 322.5 c 128,-1,15
 178 430 178 430 178 590 c 0,16,17
 178 726 178 726 300 843 c 1,18,19
 240 863 240 863 195 896 c 128,-1,20
 150 929 150 929 120 986.5 c 128,-1,21
 90 1044 90 1044 90 1118 c 0,22,23
 90 1245 90 1245 177 1324 c 128,-1,24
 264 1403 264 1403 393 1403 c 0,25,26
 590 1403 590 1403 684 1231 c 1,27,-1
 541 1149 l 1,28,29
 483 1243 483 1243 393 1243 c 0,30,31
 338 1243 338 1243 304 1205 c 128,-1,32
 270 1167 270 1167 270 1118 c 0,33,34
 270 989 270 989 430 989 c 2,35,-1
 631 989 l 1,36,-1
 737 989 l 1,37,-1
 737 817 l 1,38,-1
 575 817 l 2,39,40
 483 817 483 817 421.5 754.5 c 128,-1,41
 360 692 360 692 360 602 c 0,42,43
 360 506 360 506 426 446.5 c 128,-1,44
 492 387 492 387 598 387 c 0,45,46
 800 387 800 387 946 574 c 1,47,-1
 946 1204 l 1,48,-1
 946 1290 l 1,49,-1
 946 1376 l 1,50,-1
 1415 1376 l 1,0,-1
EndSplineSet
Substitution2: "Single Substitution lookup 36 subtable" dhadeva_alt1
EndChar

StartChar: dhadeva_alt1
Encoding: 501 -1 245
Width: 1394
VWidth: 0
Flags: W
AnchorPoint: "DVAnchor0" 1038 14 basechar 0
LayerCount: 2
Fore
SplineSet
1415 1376 m 1,0,-1
 1415 1204 l 1,1,-1
 1126 1204 l 1,2,-1
 1126 0 l 1,3,-1
 946 0 l 1,4,-1
 946 359 l 1,5,6
 790 215 790 215 578 215 c 0,7,8
 408 215 408 215 293 322.5 c 128,-1,9
 178 430 178 430 178 590 c 0,10,11
 178 726 178 726 300 843 c 1,12,13
 240 863 240 863 195 896 c 128,-1,14
 150 929 150 929 120 986.5 c 128,-1,15
 90 1044 90 1044 90 1118 c 0,16,17
 90 1245 90 1245 177 1324 c 128,-1,18
 264 1403 264 1403 393 1403 c 0,19,20
 590 1403 590 1403 684 1231 c 1,21,-1
 541 1149 l 1,22,23
 483 1243 483 1243 393 1243 c 0,24,25
 338 1243 338 1243 304 1205 c 128,-1,26
 270 1167 270 1167 270 1118 c 0,27,28
 270 989 270 989 430 989 c 2,29,-1
 631 989 l 1,30,-1
 737 989 l 1,31,-1
 737 817 l 1,32,-1
 575 817 l 2,33,34
 483 817 483 817 421.5 754.5 c 128,-1,35
 360 692 360 692 360 602 c 0,36,37
 360 506 360 506 426 446.5 c 128,-1,38
 492 387 492 387 598 387 c 0,39,40
 800 387 800 387 946 574 c 1,41,-1
 946 1204 l 1,42,-1
 946 1290 l 1,43,-1
 946 1376 l 1,44,-1
 1415 1376 l 1,0,-1
EndSplineSet
EndChar

StartChar: dhadeva_viramadeva
Encoding: 502 -1 246
Width: 1003
VWidth: 0
Flags: W
LayerCount: 2
Fore
SplineSet
1030 705 m 1,0,1
 1098 549 l 1,2,3
 895 215 895 215 578 215 c 0,4,5
 408 215 408 215 293 322.5 c 128,-1,6
 178 430 178 430 178 590 c 0,7,8
 178 726 178 726 300 843 c 1,9,10
 240 863 240 863 195 896 c 128,-1,11
 150 929 150 929 120 986.5 c 128,-1,12
 90 1044 90 1044 90 1118 c 0,13,14
 90 1245 90 1245 177 1324 c 128,-1,15
 264 1403 264 1403 393 1403 c 0,16,17
 590 1403 590 1403 684 1231 c 1,18,-1
 541 1149 l 1,19,20
 483 1243 483 1243 393 1243 c 0,21,22
 338 1243 338 1243 304 1205 c 128,-1,23
 270 1167 270 1167 270 1118 c 0,24,25
 270 989 270 989 430 989 c 2,26,-1
 631 989 l 1,27,-1
 737 989 l 1,28,-1
 737 817 l 1,29,-1
 575 817 l 2,30,31
 483 817 483 817 421.5 754.5 c 128,-1,32
 360 692 360 692 360 602 c 0,33,34
 360 506 360 506 426 446.5 c 128,-1,35
 492 387 492 387 598 387 c 0,36,37
 858 388 858 388 1030 705 c 1,0,1
EndSplineSet
Ligature2: "HalfFormslookup10 subtable" dhadeva viramadeva
EndChar

StartChar: dhadeva_viramadeva_radeva
Encoding: 503 -1 247
Width: 1396
VWidth: 0
Flags: W
LayerCount: 2
Fore
SplineSet
473 0 m 1,0,-1
 377 125 l 1,1,-1
 520 219 l 1,2,3
 372 237 372 237 275 341 c 128,-1,4
 178 445 178 445 178 590 c 0,5,6
 178 726 178 726 300 843 c 1,7,8
 240 863 240 863 195 896 c 128,-1,9
 150 929 150 929 120 986.5 c 128,-1,10
 90 1044 90 1044 90 1118 c 0,11,12
 90 1245 90 1245 177 1324 c 128,-1,13
 264 1403 264 1403 393 1403 c 0,14,15
 590 1403 590 1403 684 1231 c 1,16,-1
 541 1149 l 1,17,18
 483 1243 483 1243 393 1243 c 0,19,20
 338 1243 338 1243 304 1205 c 128,-1,21
 270 1167 270 1167 270 1118 c 0,22,23
 270 989 270 989 430 989 c 2,24,-1
 631 989 l 1,25,-1
 737 989 l 1,26,-1
 737 817 l 1,27,-1
 575 817 l 2,28,29
 483 817 483 817 421.5 754.5 c 128,-1,30
 360 692 360 692 360 602 c 0,31,32
 360 506 360 506 426 446.5 c 128,-1,33
 492 387 492 387 598 387 c 0,34,35
 800 387 800 387 946 574 c 1,36,-1
 946 1204 l 1,37,-1
 946 1290 l 1,38,-1
 946 1376 l 1,39,-1
 1417 1376 l 1,40,-1
 1417 1204 l 1,41,-1
 1126 1204 l 1,42,-1
 1126 172 l 1,43,-1
 1280 172 l 1,44,-1
 1280 0 l 1,45,-1
 1126 0 l 1,46,-1
 946 0 l 1,47,-1
 788 0 l 1,48,-1
 788 172 l 1,49,-1
 946 172 l 1,50,-1
 946 355 l 1,51,-1
 825 264 l 1,52,-1
 473 0 l 1,0,-1
EndSplineSet
Ligature2: "VattuVariantslookup30 subtable" dhadeva viramadeva_radeva
EndChar

StartChar: dieresis
Encoding: 504 168 248
Width: 612
VWidth: 0
Flags: W
LayerCount: 2
Fore
SplineSet
498 1360 m 128,-1,1
 498 1413 498 1413 536 1451 c 128,-1,2
 574 1489 574 1489 627 1489 c 0,3,4
 678 1489 678 1489 715 1451 c 128,-1,5
 752 1413 752 1413 752 1360 c 128,-1,6
 752 1307 752 1307 715 1267 c 128,-1,7
 678 1227 678 1227 626.5 1227 c 128,-1,8
 575 1227 575 1227 536.5 1267 c 128,-1,0
 498 1307 498 1307 498 1360 c 128,-1,1
39 1360 m 128,-1,10
 39 1413 39 1413 77 1451 c 128,-1,11
 115 1489 115 1489 168 1489 c 0,12,13
 219 1489 219 1489 256 1451 c 128,-1,14
 293 1413 293 1413 293 1360 c 128,-1,15
 293 1307 293 1307 256 1267 c 128,-1,16
 219 1227 219 1227 168 1227 c 128,-1,17
 117 1227 117 1227 78 1267 c 128,-1,9
 39 1307 39 1307 39 1360 c 128,-1,10
EndSplineSet
EndChar

StartChar: dieresis.i
Encoding: 505 -1 249
Width: 788
VWidth: 0
Flags: W
LayerCount: 2
Fore
SplineSet
446 1360 m 128,-1,1
 446 1413 446 1413 485 1451 c 128,-1,2
 524 1489 524 1489 575.5 1489 c 128,-1,3
 627 1489 627 1489 663.5 1451 c 128,-1,4
 700 1413 700 1413 700 1360 c 128,-1,5
 700 1307 700 1307 663.5 1267 c 128,-1,6
 627 1227 627 1227 575.5 1227 c 128,-1,7
 524 1227 524 1227 485 1267 c 128,-1,0
 446 1307 446 1307 446 1360 c 128,-1,1
131 1360 m 128,-1,9
 131 1413 131 1413 170 1451 c 128,-1,10
 209 1489 209 1489 260 1489 c 128,-1,11
 311 1489 311 1489 348 1451 c 128,-1,12
 385 1413 385 1413 385 1360 c 128,-1,13
 385 1307 385 1307 348 1267 c 128,-1,14
 311 1227 311 1227 260 1227 c 128,-1,15
 209 1227 209 1227 170 1267 c 128,-1,8
 131 1307 131 1307 131 1360 c 128,-1,9
EndSplineSet
EndChar

StartChar: divisionslash
Encoding: 507 8725 251
Width: 800
VWidth: 0
Flags: W
LayerCount: 2
Fore
SplineSet
-203 -61 m 1,0,-1
 1073 1577 l 1,1,-1
 1272 1577 l 1,2,-1
 -4 -61 l 1,3,-1
 -203 -61 l 1,0,-1
EndSplineSet
EndChar

StartChar: dollar
Encoding: 508 36 252
Width: 1210
VWidth: 0
Flags: W
LayerCount: 2
Fore
SplineSet
401 465 m 1,0,-1
 403 465 l 1,1,2
 404 299 404 299 625 299 c 0,3,4
 725 299 725 299 783.5 339 c 128,-1,5
 842 379 842 379 842 449 c 0,6,7
 842 477 842 477 827.5 500.5 c 128,-1,8
 813 524 813 524 796.5 537.5 c 128,-1,9
 780 551 780 551 746.5 564.5 c 128,-1,10
 713 578 713 578 695.5 583 c 128,-1,11
 678 588 678 588 639 598 c 2,12,-1
 463 645 l 2,13,14
 203 715 203 715 203 944 c 0,15,16
 203 1061 203 1061 285.5 1139 c 128,-1,17
 368 1217 368 1217 516 1238 c 1,18,-1
 516 1579 l 1,19,-1
 713 1579 l 1,20,-1
 713 1237 l 1,21,22
 877 1208 877 1208 961 1090 c 1,23,-1
 1061 1090 l 1,24,-1
 1061 918 l 1,25,-1
 846 918 l 1,26,-1
 829 915 l 2,27,28
 829 917 829 917 829 918 c 2,29,-1
 827 918 l 1,30,-1
 827 942 l 1,31,32
 817 1006 817 1006 760.5 1045.5 c 128,-1,33
 704 1085 704 1085 616 1085 c 0,34,35
 508 1085 508 1085 450.5 1049 c 128,-1,36
 393 1013 393 1013 393 952 c 0,37,38
 393 926 393 926 402.5 904.5 c 128,-1,39
 412 883 412 883 423 869.5 c 128,-1,40
 434 856 434 856 458.5 843.5 c 128,-1,41
 483 831 483 831 496.5 827 c 128,-1,42
 510 823 510 823 543 814 c 128,-1,43
 576 805 576 805 584 803 c 2,44,-1
 758 750 l 2,45,46
 899 707 899 707 969.5 640.5 c 128,-1,47
 1040 574 1040 574 1040 459 c 0,48,49
 1040 336 1040 336 950.5 247.5 c 128,-1,50
 861 159 861 159 713 136 c 1,51,-1
 713 -186 l 1,52,-1
 516 -186 l 1,53,-1
 516 136 l 1,54,55
 344 164 344 164 268 303 c 1,56,-1
 150 303 l 1,57,-1
 150 475 l 1,58,-1
 401 475 l 1,59,-1
 401 465 l 1,0,-1
EndSplineSet
EndChar

StartChar: dotaccent
Encoding: 509 729 253
Width: 612
VWidth: 0
Flags: W
LayerCount: 2
Fore
SplineSet
174 1403 m 128,-1,1
 174 1456 174 1456 213 1494 c 128,-1,2
 252 1532 252 1532 305 1532 c 0,3,4
 356 1532 356 1532 395 1493 c 128,-1,5
 434 1454 434 1454 434 1403 c 0,6,7
 434 1350 434 1350 395 1310 c 128,-1,8
 356 1270 356 1270 305 1270 c 0,9,10
 252 1270 252 1270 213 1310 c 128,-1,0
 174 1350 174 1350 174 1403 c 128,-1,1
EndSplineSet
EndChar

StartChar: dotlessi
Encoding: 510 305 254
Width: 612
VWidth: 0
Flags: W
LayerCount: 2
Fore
SplineSet
397 172 m 1,0,-1
 553 172 l 1,1,-1
 553 0 l 1,2,-1
 397 0 l 1,3,-1
 209 0 l 1,4,-1
 61 0 l 1,5,-1
 61 172 l 1,6,-1
 209 172 l 1,7,-1
 209 864 l 1,8,-1
 59 864 l 1,9,-1
 59 1036 l 1,10,-1
 209 1036 l 1,11,-1
 387 1036 l 1,12,-1
 397 1036 l 1,13,-1
 397 172 l 1,0,-1
EndSplineSet
EndChar

StartChar: dottedcircle
Encoding: 511 9676 255
Width: 1880
VWidth: 0
Flags: W
LayerCount: 2
Fore
SplineSet
940 1417 m 128,-1,1
 981 1417 981 1417 1009.5 1388.5 c 128,-1,2
 1038 1360 1038 1360 1038 1319 c 0,3,4
 1038 1280 1038 1280 1009.5 1251.5 c 128,-1,5
 981 1223 981 1223 940 1223 c 128,-1,6
 899 1223 899 1223 870.5 1251.5 c 128,-1,7
 842 1280 842 1280 842 1319 c 0,8,9
 842 1360 842 1360 870.5 1388.5 c 128,-1,0
 899 1417 899 1417 940 1417 c 128,-1,1
940 141 m 128,-1,11
 981 141 981 141 1009.5 112.5 c 128,-1,12
 1038 84 1038 84 1038 43 c 128,-1,13
 1038 2 1038 2 1009.5 -26.5 c 128,-1,14
 981 -55 981 -55 940 -55 c 128,-1,15
 899 -55 899 -55 870.5 -26.5 c 128,-1,16
 842 2 842 2 842 43 c 128,-1,17
 842 84 842 84 870.5 112.5 c 128,-1,10
 899 141 899 141 940 141 c 128,-1,11
303 780 m 128,-1,19
 344 780 344 780 372.5 751.5 c 128,-1,20
 401 723 401 723 401 682 c 128,-1,21
 401 641 401 641 372.5 612.5 c 128,-1,22
 344 584 344 584 303 584 c 128,-1,23
 262 584 262 584 233.5 612.5 c 128,-1,24
 205 641 205 641 205 682 c 128,-1,25
 205 723 205 723 233.5 751.5 c 128,-1,18
 262 780 262 780 303 780 c 128,-1,19
1579 780 m 128,-1,27
 1620 780 1620 780 1648.5 751.5 c 128,-1,28
 1677 723 1677 723 1677 682 c 128,-1,29
 1677 641 1677 641 1648.5 612.5 c 128,-1,30
 1620 584 1620 584 1579 584 c 128,-1,31
 1538 584 1538 584 1509.5 612.5 c 128,-1,32
 1481 641 1481 641 1481 682 c 128,-1,33
 1481 723 1481 723 1509.5 751.5 c 128,-1,26
 1538 780 1538 780 1579 780 c 128,-1,27
389 461 m 128,-1,35
 430 461 430 461 458.5 432 c 128,-1,36
 487 403 487 403 487 362.5 c 128,-1,37
 487 322 487 322 458.5 293 c 128,-1,38
 430 264 430 264 389 264 c 128,-1,39
 348 264 348 264 319.5 293 c 128,-1,40
 291 322 291 322 291 362.5 c 128,-1,41
 291 403 291 403 319.5 432 c 128,-1,34
 348 461 348 461 389 461 c 128,-1,35
1495 1100 m 128,-1,43
 1536 1100 1536 1100 1564.5 1071 c 128,-1,44
 1593 1042 1593 1042 1593 1001.5 c 128,-1,45
 1593 961 1593 961 1564.5 932 c 128,-1,46
 1536 903 1536 903 1495 903 c 128,-1,47
 1454 903 1454 903 1425.5 932 c 128,-1,48
 1397 961 1397 961 1397 1001.5 c 128,-1,49
 1397 1042 1397 1042 1425.5 1071 c 128,-1,42
 1454 1100 1454 1100 1495 1100 c 128,-1,43
1259.5 1333 m 128,-1,51
 1300 1333 1300 1333 1329 1304.5 c 128,-1,52
 1358 1276 1358 1276 1358 1235 c 128,-1,53
 1358 1194 1358 1194 1329 1165.5 c 128,-1,54
 1300 1137 1300 1137 1259.5 1137 c 128,-1,55
 1219 1137 1219 1137 1190 1165.5 c 128,-1,56
 1161 1194 1161 1194 1161 1235 c 128,-1,57
 1161 1276 1161 1276 1190 1304.5 c 128,-1,50
 1219 1333 1219 1333 1259.5 1333 c 128,-1,51
623 229 m 128,-1,59
 664 229 664 229 692.5 200.5 c 128,-1,60
 721 172 721 172 721 131 c 128,-1,61
 721 90 721 90 692.5 60.5 c 128,-1,62
 664 31 664 31 623 31 c 128,-1,63
 582 31 582 31 553 60.5 c 128,-1,64
 524 90 524 90 524 131 c 128,-1,65
 524 172 524 172 553 200.5 c 128,-1,58
 582 229 582 229 623 229 c 128,-1,59
389 1100 m 128,-1,67
 430 1100 430 1100 458.5 1071 c 128,-1,68
 487 1042 487 1042 487 1001.5 c 128,-1,69
 487 961 487 961 458.5 932 c 128,-1,70
 430 903 430 903 389 903 c 128,-1,71
 348 903 348 903 319.5 932 c 128,-1,72
 291 961 291 961 291 1001.5 c 128,-1,73
 291 1042 291 1042 319.5 1071 c 128,-1,66
 348 1100 348 1100 389 1100 c 128,-1,67
1495 461 m 128,-1,75
 1536 461 1536 461 1564.5 432 c 128,-1,76
 1593 403 1593 403 1593 362.5 c 128,-1,77
 1593 322 1593 322 1564.5 293 c 128,-1,78
 1536 264 1536 264 1495 264 c 128,-1,79
 1454 264 1454 264 1425.5 293 c 128,-1,80
 1397 322 1397 322 1397 362.5 c 128,-1,81
 1397 403 1397 403 1425.5 432 c 128,-1,74
 1454 461 1454 461 1495 461 c 128,-1,75
623 1333 m 128,-1,83
 664 1333 664 1333 692.5 1304.5 c 128,-1,84
 721 1276 721 1276 721 1235 c 128,-1,85
 721 1194 721 1194 692.5 1165.5 c 128,-1,86
 664 1137 664 1137 623 1137 c 128,-1,87
 582 1137 582 1137 553 1165.5 c 128,-1,88
 524 1194 524 1194 524 1235 c 128,-1,89
 524 1276 524 1276 553 1304.5 c 128,-1,82
 582 1333 582 1333 623 1333 c 128,-1,83
1259.5 229 m 128,-1,91
 1300 229 1300 229 1329 200.5 c 128,-1,92
 1358 172 1358 172 1358 131 c 128,-1,93
 1358 90 1358 90 1329 60.5 c 128,-1,94
 1300 31 1300 31 1259.5 31 c 128,-1,95
 1219 31 1219 31 1190 60.5 c 128,-1,96
 1161 90 1161 90 1161 131 c 128,-1,97
 1161 172 1161 172 1190 200.5 c 128,-1,90
 1219 229 1219 229 1259.5 229 c 128,-1,91
EndSplineSet
EndChar

StartChar: e
Encoding: 513 101 257
Width: 1175
VWidth: 0
Flags: W
LayerCount: 2
Fore
SplineSet
286 639 m 1,0,1
 823 639 l 1,2,3
 805 907 805 907 567 907 c 128,-1,4
 329 907 329 907 286 639 c 1,0,1
276 494 m 1,5,6
 277 411 277 411 301 344 c 0,7,8
 338 246 338 246 418 194.5 c 128,-1,9
 498 143 498 143 604 143 c 0,10,11
 762 144 762 144 922 236 c 1,12,-1
 997 109 l 1,13,14
 797 -29 797 -29 578 -29 c 0,15,16
 360 -29 360 -29 226 113.5 c 128,-1,17
 92 256 92 256 92 522 c 0,18,19
 92 756 92 756 220.5 909.5 c 128,-1,20
 349 1063 349 1063 580 1063 c 0,21,22
 961 1063 961 1063 1014 647 c 0,23,24
 1022 580 1022 580 1022 494 c 1,25,-1
 276 494 l 1,5,6
EndSplineSet
EndChar

StartChar: ecandralongsigndeva
Encoding: 516 2389 260
Width: 0
VWidth: 0
Flags: W
AnchorPoint: "DVAnchor3" -559 1284 mark 0
LayerCount: 2
Fore
SplineSet
-901 1376 m 1,0,-1
 -901 1505 l 1,1,-1
 -180 1505 l 1,2,-1
 -180 1376 l 1,3,-1
 -901 1376 l 1,0,-1
-901 1905 m 1,4,-1
 -745 1905 l 1,5,6
 -745 1819 -745 1819 -686 1760.5 c 128,-1,7
 -627 1702 -627 1702 -541 1702 c 0,8,9
 -453 1702 -453 1702 -394.5 1760.5 c 128,-1,10
 -336 1819 -336 1819 -336 1905 c 1,11,-1
 -180 1907 l 1,12,-1
 -180 1894 l 1,13,14
 -184 1749 -184 1749 -289.5 1647.5 c 128,-1,15
 -395 1546 -395 1546 -540.5 1546 c 128,-1,16
 -686 1546 -686 1546 -791.5 1648.5 c 128,-1,17
 -897 1751 -897 1751 -901 1896 c 1,18,-1
 -901 1905 l 1,4,-1
EndSplineSet
EndChar

StartChar: ecandrasigndeva
Encoding: 517 2373 261
Width: 0
VWidth: 0
Flags: W
AnchorPoint: "DVAnchor3" -547 1325 mark 0
LayerCount: 2
Fore
SplineSet
-901 1817 m 1,0,-1
 -745 1817 l 1,1,2
 -745 1731 -745 1731 -686 1672.5 c 128,-1,3
 -627 1614 -627 1614 -541 1614 c 0,4,5
 -453 1614 -453 1614 -394.5 1672.5 c 128,-1,6
 -336 1731 -336 1731 -336 1817 c 1,7,-1
 -180 1819 l 1,8,-1
 -180 1806 l 1,9,10
 -184 1661 -184 1661 -289.5 1559.5 c 128,-1,11
 -395 1458 -395 1458 -540.5 1458 c 128,-1,12
 -686 1458 -686 1458 -791.5 1560.5 c 128,-1,13
 -897 1663 -897 1663 -901 1808 c 1,14,-1
 -901 1817 l 1,0,-1
EndSplineSet
EndChar

StartChar: edeva
Encoding: 520 2319 264
Width: 1081
VWidth: 0
Flags: W
AnchorPoint: "DVAnchor3" 543 1360 basechar 0
LayerCount: 2
Fore
SplineSet
1102 1376 m 1,0,-1
 1102 1204 l 1,1,-1
 901 1204 l 1,2,-1
 901 840 l 2,3,4
 901 676 901 676 860 581.5 c 128,-1,5
 819 487 819 487 727 438 c 1,6,-1
 608 524 l 1,7,-1
 623 537 l 2,8,9
 721 623 721 623 721 840 c 2,10,-1
 721 1204 l 1,11,-1
 270 1204 l 1,12,-1
 270 674 l 2,13,14
 270 586 270 586 322.5 519.5 c 128,-1,15
 375 453 375 453 522 375 c 0,16,17
 530 371 530 371 773 242 c 128,-1,18
 1016 113 1016 113 1063 90 c 1,19,-1
 991 -43 l 1,20,21
 844 22 844 22 461 233 c 0,22,23
 250 350 250 350 170 436 c 128,-1,24
 90 522 90 522 90 674 c 2,25,-1
 90 1204 l 1,26,-1
 -20 1204 l 1,27,-1
 -20 1376 l 1,28,-1
 1102 1376 l 1,0,-1
EndSplineSet
EndChar

StartChar: eight
Encoding: 524 56 268
Width: 1275
VWidth: 0
Flags: W
LayerCount: 2
Fore
SplineSet
322 446 m 0,0,1
 322 327 322 327 412 242.5 c 128,-1,2
 502 158 502 158 627 158 c 128,-1,3
 752 158 752 158 841 242.5 c 128,-1,4
 930 327 930 327 930 446 c 0,5,6
 930 563 930 563 841 647 c 128,-1,7
 752 731 752 731 627 731 c 128,-1,8
 502 731 502 731 412 647 c 128,-1,9
 322 563 322 563 322 446 c 0,0,1
377 1142.5 m 128,-1,11
 377 1042 377 1042 449.5 972.5 c 128,-1,12
 522 903 522 903 631 903 c 0,13,14
 733 903 733 903 807 973.5 c 128,-1,15
 881 1044 881 1044 881 1142.5 c 128,-1,16
 881 1241 881 1241 807 1311.5 c 128,-1,17
 733 1382 733 1382 631 1382 c 0,18,19
 522 1382 522 1382 449.5 1312.5 c 128,-1,10
 377 1243 377 1243 377 1142.5 c 128,-1,11
631 1544 m 0,20,21
 803 1544 803 1544 928 1427.5 c 128,-1,22
 1053 1311 1053 1311 1053 1147 c 0,23,24
 1053 1051 1053 1051 1008 968 c 128,-1,25
 963 885 963 885 885 829 c 1,26,27
 936 798 936 798 978 756.5 c 128,-1,28
 1020 715 1020 715 1049.5 666 c 128,-1,29
 1079 617 1079 617 1095.5 559.5 c 128,-1,30
 1112 502 1112 502 1112 442 c 0,31,32
 1112 254 1112 254 969.5 119 c 128,-1,33
 827 -16 827 -16 626.5 -16 c 128,-1,34
 426 -16 426 -16 282.5 119 c 128,-1,35
 139 254 139 254 139 442 c 0,36,37
 139 563 139 563 201.5 665.5 c 128,-1,38
 264 768 264 768 370 830 c 1,39,40
 319 867 319 867 282 916 c 128,-1,41
 245 965 245 965 225 1024 c 128,-1,42
 205 1083 205 1083 205 1147 c 0,43,44
 205 1311 205 1311 329 1427.5 c 128,-1,45
 453 1544 453 1544 631 1544 c 0,20,21
EndSplineSet
EndChar

StartChar: eightcombiningdigitdeva
Encoding: 525 43240 269
Width: 0
VWidth: 0
Flags: W
AnchorPoint: "DVAnchor3" -281 1395 mark 0
LayerCount: 2
Fore
SplineSet
14 1628 m 1,0,1
 51 1509 l 1,2,3
 -41 1475 -41 1475 -139 1475 c 0,4,5
 -231 1475 -231 1475 -299 1502.5 c 128,-1,6
 -367 1530 -367 1530 -397.5 1574 c 128,-1,7
 -428 1618 -428 1618 -441.5 1658 c 128,-1,8
 -455 1698 -455 1698 -455 1737 c 0,9,10
 -454 1888 -454 1888 -276 2017 c 0,11,12
 -242 2044 -242 2044 -140.5 2114.5 c 128,-1,13
 -39 2185 -39 2185 -33 2189 c 1,14,-1
 37 2087 l 1,15,16
 -180 1935 -180 1935 -203 1919 c 0,17,18
 -324 1831 -324 1831 -324 1737 c 0,19,20
 -324 1688 -324 1688 -278.5 1642.5 c 128,-1,21
 -233 1597 -233 1597 -139 1597 c 0,22,23
 -58 1597 -58 1597 14 1628 c 1,0,1
EndSplineSet
EndChar

StartChar: eightdeva
Encoding: 526 2414 270
Width: 1038
VWidth: 0
Flags: W
LayerCount: 2
Fore
SplineSet
864 309 m 1,0,1
 926 162 l 1,2,3
 762 96 762 96 598 96 c 0,4,5
 477 96 477 96 382 130 c 128,-1,6
 287 164 287 164 231.5 213 c 128,-1,7
 176 262 176 262 140 327.5 c 128,-1,8
 104 393 104 393 92 448.5 c 128,-1,9
 80 504 80 504 80 557 c 0,10,11
 80 645 80 645 107.5 726 c 128,-1,12
 135 807 135 807 187.5 872.5 c 128,-1,13
 240 938 240 938 278 976 c 128,-1,14
 316 1014 316 1014 369 1059 c 0,15,16
 402 1087 402 1087 791 1384 c 1,17,-1
 889 1257 l 1,18,19
 518 973 518 973 475 936 c 0,20,21
 434 901 434 901 405.5 872.5 c 128,-1,22
 377 844 377 844 338 793.5 c 128,-1,23
 299 743 299 743 277.5 683 c 128,-1,24
 256 623 256 623 256 557 c 0,25,26
 256 512 256 512 271.5 466 c 128,-1,27
 287 420 287 420 321.5 369.5 c 128,-1,28
 356 319 356 319 428 287.5 c 128,-1,29
 500 256 500 256 598 256 c 0,30,31
 737 256 737 256 864 309 c 1,0,1
EndSplineSet
Substitution2: "LocalizedNpFormslookup2 subtable" eightdeva.np
EndChar

StartChar: eightdeva.np
Encoding: 527 -1 271
Width: 1359
VWidth: 0
Flags: W
LayerCount: 2
Fore
SplineSet
864 299 m 1,0,1
 926 152 l 1,2,3
 762 86 762 86 598 86 c 0,4,5
 477 86 477 86 382 120 c 128,-1,6
 287 154 287 154 231.5 203 c 128,-1,7
 176 252 176 252 140 317.5 c 128,-1,8
 104 383 104 383 92 438.5 c 128,-1,9
 80 494 80 494 80 547 c 0,10,11
 80 635 80 635 107.5 716 c 128,-1,12
 135 797 135 797 187.5 862.5 c 128,-1,13
 240 928 240 928 278 966 c 128,-1,14
 316 1004 316 1004 369 1049 c 0,15,16
 429 1099 429 1099 566 1204 c 1,17,-1
 90 1204 l 1,18,-1
 90 1376 l 1,19,-1
 1307 1376 l 1,20,-1
 1307 1204 l 1,21,-1
 832 1204 l 1,22,23
 549 991 549 991 475 926 c 0,24,25
 434 891 434 891 405.5 862.5 c 128,-1,26
 377 834 377 834 338 783.5 c 128,-1,27
 299 733 299 733 277.5 673 c 128,-1,28
 256 613 256 613 256 547 c 0,29,30
 256 502 256 502 271.5 456 c 128,-1,31
 287 410 287 410 321.5 359.5 c 128,-1,32
 356 309 356 309 428 277.5 c 128,-1,33
 500 246 500 246 598 246 c 0,34,35
 737 246 737 246 864 299 c 1,0,1
EndSplineSet
EndChar

StartChar: ellipsis
Encoding: 528 8230 272
Width: 2048
VWidth: 0
Flags: W
LayerCount: 2
Fore
SplineSet
1548 122.5 m 128,-1,1
 1548 182 1548 182 1592.5 226 c 128,-1,2
 1637 270 1637 270 1696 270 c 0,3,4
 1757 270 1757 270 1801 226 c 128,-1,5
 1845 182 1845 182 1845 122.5 c 128,-1,6
 1845 63 1845 63 1801 19 c 128,-1,7
 1757 -25 1757 -25 1696 -25 c 0,8,9
 1636 -25 1636 -25 1592 19 c 128,-1,0
 1548 63 1548 63 1548 122.5 c 128,-1,1
877 122.5 m 128,-1,11
 877 182 877 182 921 226 c 128,-1,12
 965 270 965 270 1024 270 c 0,13,14
 1085 270 1085 270 1129.5 226 c 128,-1,15
 1174 182 1174 182 1174 122.5 c 128,-1,16
 1174 63 1174 63 1129.5 19 c 128,-1,17
 1085 -25 1085 -25 1024 -25 c 0,18,19
 965 -25 965 -25 921 19 c 128,-1,10
 877 63 877 63 877 122.5 c 128,-1,11
205 122.5 m 128,-1,21
 205 182 205 182 249 226 c 128,-1,22
 293 270 293 270 352 270 c 0,23,24
 414 270 414 270 458 226 c 128,-1,25
 502 182 502 182 502 122.5 c 128,-1,26
 502 63 502 63 457.5 19 c 128,-1,27
 413 -25 413 -25 352 -25 c 0,28,29
 293 -25 293 -25 249 19 c 128,-1,20
 205 63 205 63 205 122.5 c 128,-1,21
EndSplineSet
EndChar

StartChar: emdash
Encoding: 530 8212 274
Width: 2048
VWidth: 0
Flags: W
LayerCount: 2
Fore
SplineSet
0 485 m 1,0,-1
 0 647 l 1,1,-1
 2048 647 l 1,2,-1
 2048 485 l 1,3,-1
 0 485 l 1,0,-1
EndSplineSet
EndChar

StartChar: endash
Encoding: 531 8211 275
Width: 1024
VWidth: 0
Flags: W
LayerCount: 2
Fore
SplineSet
0 485 m 1,0,-1
 0 647 l 1,1,-1
 1024 647 l 1,2,-1
 1024 485 l 1,3,-1
 0 485 l 1,0,-1
EndSplineSet
EndChar

StartChar: eogonek
Encoding: 532 281 276
Width: 1118
VWidth: 0
Flags: W
LayerCount: 2
Fore
SplineSet
286 639 m 1,0,1
 823 639 l 1,2,3
 805 907 805 907 567 907 c 128,-1,4
 329 907 329 907 286 639 c 1,0,1
276 494 m 1,5,6
 277 411 277 411 301 344 c 0,7,8
 338 246 338 246 418 194.5 c 128,-1,9
 498 143 498 143 604 143 c 0,10,11
 762 144 762 144 922 236 c 1,12,-1
 997 109 l 1,13,14
 951 77 951 77 904 53 c 1,15,16
 645 -97 645 -97 645 -225 c 0,17,18
 645 -324 645 -324 774 -324 c 0,19,20
 840 -324 840 -324 897 -297 c 1,21,-1
 940 -424 l 1,22,23
 860 -471 860 -471 743 -471 c 0,24,25
 621 -471 621 -471 546 -415.5 c 128,-1,26
 471 -360 471 -360 471 -260 c 0,27,28
 471 -132 471 -132 595 -28 c 1,29,30
 587 -29 587 -29 578 -29 c 0,31,32
 360 -29 360 -29 226 113.5 c 128,-1,33
 92 256 92 256 92 522 c 0,34,35
 92 756 92 756 220.5 909.5 c 128,-1,36
 349 1063 349 1063 580 1063 c 0,37,38
 961 1063 961 1063 1014 647 c 0,39,40
 1022 580 1022 580 1022 494 c 1,41,-1
 276 494 l 1,5,6
EndSplineSet
EndChar

StartChar: eprishthamatrasigndeva
Encoding: 533 2382 277
Width: 544
VWidth: 0
Flags: W
LayerCount: 2
Fore
SplineSet
0 1241 m 1,0,-1
 0 1321 l 1,1,-1
 0 1403 l 1,2,-1
 373 1403 l 1,3,-1
 373 1241 l 1,4,-1
 180 1241 l 1,5,-1
 180 0 l 1,6,-1
 0 0 l 1,7,-1
 0 1241 l 1,0,-1
EndSplineSet
EndChar

StartChar: equal
Encoding: 534 61 278
Width: 921
VWidth: 0
Flags: W
LayerCount: 2
Fore
SplineSet
86 643 m 1,0,-1
 86 784 l 1,1,-1
 836 784 l 1,2,-1
 836 643 l 1,3,-1
 86 643 l 1,0,-1
86 305 m 1,4,-1
 86 446 l 1,5,-1
 836 446 l 1,6,-1
 836 305 l 1,7,-1
 86 305 l 1,4,-1
EndSplineSet
EndChar

StartChar: eshortsigndeva
Encoding: 536 2374 280
Width: 0
VWidth: 0
Flags: W
AnchorPoint: "DVAnchor3" -137 1352 mark 0
LayerCount: 2
Fore
SplineSet
-946 1892 m 1,0,-1
 -766 1892 l 1,1,-1
 -766 1849 l 2,2,3
 -766 1796 -766 1796 -740.5 1779.5 c 128,-1,4
 -715 1763 -715 1763 -641 1763 c 2,5,-1
 -305 1763 l 2,6,7
 -45 1763 -45 1763 -45 1505 c 2,8,-1
 -45 1290 l 1,9,-1
 -225 1290 l 1,10,-1
 -225 1483 l 2,11,12
 -225 1499 -225 1499 -227 1513.5 c 128,-1,13
 -229 1528 -229 1528 -230 1538 c 128,-1,14
 -231 1548 -231 1548 -237.5 1556.5 c 128,-1,15
 -244 1565 -244 1565 -246 1570 c 128,-1,16
 -248 1575 -248 1575 -258 1578 c 128,-1,17
 -268 1581 -268 1581 -272 1583 c 128,-1,18
 -276 1585 -276 1585 -290.5 1586 c 128,-1,19
 -305 1587 -305 1587 -310 1588 c 128,-1,20
 -315 1589 -315 1589 -333.5 1589 c 128,-1,21
 -352 1589 -352 1589 -360 1589 c 0,22,23
 -428 1591 -428 1591 -608 1591 c 0,24,25
 -946 1591 -946 1591 -946 1806 c 2,26,-1
 -946 1892 l 1,0,-1
EndSplineSet
EndChar

StartChar: esign_ra_virama.alt1
Encoding: 537 -1 281
Width: 0
VWidth: 0
Flags: W
AnchorPoint: "DVAnchor3" -395 1296 mark 0
LayerCount: 2
Fore
SplineSet
-971 1737 m 1,0,-1
 -971 1876 l 1,1,-1
 -874 1890 l 1,2,3
 -692 1890 -692 1890 -551 1708 c 1,4,-1
 -494 1633 l 1,5,6
 -454 1716 -454 1716 -363.5 1762 c 128,-1,7
 -273 1808 -273 1808 -158 1808 c 2,8,-1
 -76 1808 l 1,9,-1
 -76 1638 l 1,10,-1
 -158 1638 l 2,11,12
 -236 1638 -236 1638 -288 1599.5 c 128,-1,13
 -340 1561 -340 1561 -340 1491 c 0,14,15
 -340 1438 -340 1438 -290 1365 c 1,16,-1
 -264 1331 l 1,17,-1
 -393 1229 l 1,18,-1
 -682 1595 l 2,19,20
 -735 1663 -735 1663 -783.5 1700 c 128,-1,21
 -832 1737 -832 1737 -895 1737 c 2,22,-1
 -971 1737 l 1,0,-1
EndSplineSet
Ligature2: "AboveBaseSubstitutionslookup subtable" esigndeva radeva_viramadeva
EndChar

StartChar: esign_ra_virama_anusvara
Encoding: 538 -1 282
Width: 0
VWidth: 0
Flags: W
AnchorPoint: "DVAnchor3" -287 1352 mark 0
LayerCount: 2
Fore
SplineSet
-270 1503 m 128,-1,1
 -270 1538 -270 1538 -244.5 1563.5 c 128,-1,2
 -219 1589 -219 1589 -184.5 1589 c 128,-1,3
 -150 1589 -150 1589 -124 1563.5 c 128,-1,4
 -98 1538 -98 1538 -98 1503 c 128,-1,5
 -98 1468 -98 1468 -124 1442.5 c 128,-1,6
 -150 1417 -150 1417 -184.5 1417 c 128,-1,7
 -219 1417 -219 1417 -244.5 1442.5 c 128,-1,0
 -270 1468 -270 1468 -270 1503 c 128,-1,1
-971 1737 m 1,8,-1
 -971 1876 l 1,9,-1
 -874 1890 l 1,10,11
 -692 1890 -692 1890 -551 1708 c 1,12,-1
 -494 1633 l 1,13,14
 -454 1716 -454 1716 -363.5 1762 c 128,-1,15
 -273 1808 -273 1808 -158 1808 c 2,16,-1
 -76 1808 l 1,17,-1
 -76 1638 l 1,18,-1
 -158 1638 l 2,19,20
 -236 1638 -236 1638 -288 1599.5 c 128,-1,21
 -340 1561 -340 1561 -340 1491 c 0,22,23
 -340 1438 -340 1438 -290 1365 c 1,24,-1
 -264 1331 l 1,25,-1
 -393 1229 l 1,26,-1
 -682 1595 l 2,27,28
 -735 1663 -735 1663 -783.5 1700 c 128,-1,29
 -832 1737 -832 1737 -895 1737 c 2,30,-1
 -971 1737 l 1,8,-1
EndSplineSet
Ligature2: "AboveBaseSubstitutionslookup subtable" esigndeva radeva_viramadeva anusvaradeva
EndChar

StartChar: esigndeva
Encoding: 539 2375 283
Width: 0
VWidth: 0
Flags: W
AnchorPoint: "DVAnchor3" -305 1337 mark 0
LayerCount: 2
Fore
SplineSet
-915 1739 m 1,0,-1
 -915 1878 l 1,1,-1
 -819 1892 l 1,2,3
 -637 1892 -637 1892 -496 1710 c 1,4,-1
 -209 1333 l 1,5,-1
 -338 1231 l 1,6,-1
 -627 1597 l 2,7,8
 -680 1665 -680 1665 -728.5 1702 c 128,-1,9
 -777 1739 -777 1739 -840 1739 c 2,10,-1
 -915 1739 l 1,0,-1
EndSplineSet
EndChar

StartChar: estimated
Encoding: 541 8494 285
Width: 1671
VWidth: 0
Flags: W
LayerCount: 2
Fore
SplineSet
825 1247 m 0,0,1
 653 1247 653 1247 512 1182.5 c 128,-1,2
 371 1118 371 1118 371 1040 c 2,3,-1
 371 700 l 2,4,5
 370 668 370 668 401 668 c 2,6,-1
 1253 668 l 2,7,8
 1276 668 1276 668 1282 675 c 128,-1,9
 1288 682 1288 682 1288 700 c 2,10,-1
 1288 1040 l 2,11,12
 1288 1118 1288 1118 1137.5 1182.5 c 128,-1,13
 987 1247 987 1247 825 1247 c 0,0,1
829 -31 m 0,14,15
 516 -31 516 -31 309 151.5 c 128,-1,16
 102 334 102 334 102 633 c 0,17,18
 102 944 102 944 313 1122 c 128,-1,19
 524 1300 524 1300 825 1300 c 0,20,21
 1157 1300 1157 1300 1353 1113.5 c 128,-1,22
 1549 927 1549 927 1559 614 c 1,23,-1
 399 614 l 2,24,25
 385 614 385 614 378 608 c 128,-1,26
 371 602 371 602 371 582 c 2,27,-1
 371 244 l 2,28,29
 371 178 371 178 506 100.5 c 128,-1,30
 641 23 641 23 829 23 c 0,31,32
 971 23 971 23 1093.5 80 c 128,-1,33
 1216 137 1216 137 1292 231 c 1,34,-1
 1425 231 l 1,35,36
 1179 -31 1179 -31 829 -31 c 0,14,15
EndSplineSet
EndChar

StartChar: eth
Encoding: 542 240 286
Width: 1269
VWidth: 0
Flags: W
LayerCount: 2
Fore
SplineSet
942 653 m 1,0,1
 844 821 844 821 653 821 c 0,2,3
 497 821 497 821 391 733 c 128,-1,4
 285 645 285 645 285 487 c 0,5,6
 285 344 285 344 385 250 c 128,-1,7
 485 156 485 156 627 156 c 0,8,9
 777 156 777 156 873 245 c 128,-1,10
 969 334 969 334 969 487 c 0,11,12
 969 574 969 574 942 653 c 1,0,1
776 950 m 1,13,-1
 656 1149 l 1,14,-1
 512 1104 l 1,15,-1
 461 1268 l 1,16,-1
 566 1301 l 1,17,-1
 432 1524 l 1,18,-1
 666 1524 l 1,19,-1
 756 1360 l 1,20,-1
 930 1415 l 1,21,-1
 981 1251 l 1,22,-1
 840 1207 l 1,23,-1
 1040 844 l 1,24,25
 1157 621 1157 621 1157 489 c 0,26,27
 1157 268 1157 268 999.5 125 c 128,-1,28
 842 -18 842 -18 631 -18 c 0,29,30
 406 -18 406 -18 252 126 c 128,-1,31
 98 270 98 270 98 514 c 0,32,33
 98 715 98 715 241.5 850 c 128,-1,34
 385 985 385 985 575 985 c 0,35,36
 697 985 697 985 776 950 c 1,13,-1
EndSplineSet
EndChar

StartChar: exclam
Encoding: 543 33 287
Width: 681
VWidth: 0
Flags: W
LayerCount: 2
Fore
SplineSet
211 121 m 128,-1,1
 211 174 211 174 250 212 c 128,-1,2
 289 250 289 250 342 250 c 0,3,4
 393 250 393 250 432 211 c 128,-1,5
 471 172 471 172 471 121 c 0,6,7
 471 68 471 68 432 28 c 128,-1,8
 393 -12 393 -12 342 -12 c 0,9,10
 289 -12 289 -12 250 28 c 128,-1,0
 211 68 211 68 211 121 c 128,-1,1
252 410 m 1,11,-1
 211 1577 l 1,12,-1
 471 1577 l 1,13,-1
 430 410 l 1,14,-1
 252 410 l 1,11,-1
EndSplineSet
EndChar

StartChar: exclamdown
Encoding: 544 161 288
Width: 681
VWidth: 0
Flags: W
LayerCount: 2
Fore
SplineSet
211 1009.5 m 128,-1,1
 211 1063 211 1063 250 1101 c 128,-1,2
 289 1139 289 1139 342 1139 c 0,3,4
 393 1139 393 1139 432 1100 c 128,-1,5
 471 1061 471 1061 471 1010 c 0,6,7
 471 956 471 956 432 916.5 c 128,-1,8
 393 877 393 877 342 877 c 0,9,10
 289 877 289 877 250 916.5 c 128,-1,0
 211 956 211 956 211 1009.5 c 128,-1,1
252 696 m 1,11,-1
 430 696 l 1,12,-1
 471 -471 l 1,13,-1
 211 -471 l 1,14,-1
 252 696 l 1,11,-1
EndSplineSet
EndChar

StartChar: f
Encoding: 545 102 289
Width: 745
VWidth: 0
Flags: W
LayerCount: 2
Fore
SplineSet
442 1204 m 2,0,1
 442 1036 l 1,2,-1
 682 1036 l 1,3,-1
 682 885 l 1,4,-1
 442 885 l 1,5,-1
 442 172 l 1,6,-1
 600 172 l 1,7,-1
 600 0 l 1,8,-1
 442 0 l 1,9,-1
 256 0 l 1,10,-1
 100 0 l 1,11,-1
 100 172 l 1,12,-1
 256 172 l 1,13,-1
 256 885 l 1,14,-1
 86 885 l 1,15,-1
 86 1036 l 1,16,-1
 256 1036 l 1,17,-1
 256 1198 l 2,18,19
 256 1374 256 1374 347 1465 c 128,-1,20
 438 1556 438 1556 594 1556 c 0,21,22
 753 1556 753 1556 868 1499 c 1,23,-1
 811 1366 l 1,24,25
 734 1407 734 1407 621 1407 c 0,26,27
 537 1407 537 1407 489.5 1354.5 c 128,-1,28
 442 1302 442 1302 442 1204 c 2,0,1
EndSplineSet
EndChar

StartChar: fadeva_alt1
Encoding: 547 -1 291
Width: 1712
VWidth: 0
Flags: W
AnchorPoint: "DVAnchor0" 895 14 basechar 0
LayerCount: 2
Fore
SplineSet
360 82 m 128,-1,1
 360 117 360 117 386 142.5 c 128,-1,2
 412 168 412 168 446.5 168 c 128,-1,3
 481 168 481 168 506.5 142.5 c 128,-1,4
 532 117 532 117 532 82 c 128,-1,5
 532 47 532 47 506.5 21.5 c 128,-1,6
 481 -4 481 -4 446.5 -4 c 128,-1,7
 412 -4 412 -4 386 21.5 c 128,-1,0
 360 47 360 47 360 82 c 128,-1,1
989 1204 m 1,8,-1
 989 928 l 1,9,10
 1101 1032 1101 1032 1255 1032 c 0,11,12
 1411 1032 1411 1032 1510.5 938 c 128,-1,13
 1610 844 1610 844 1610 668 c 0,14,15
 1610 547 1610 547 1537 403.5 c 128,-1,16
 1464 260 1464 260 1376 147 c 1,17,-1
 1262 236 l 1,18,19
 1266 242 1266 242 1274 254 c 0,20,21
 1438 508 1438 508 1438 643 c 0,22,23
 1438 741 1438 741 1378.5 800.5 c 128,-1,24
 1319 860 1319 860 1223 860 c 0,25,26
 1133 860 1133 860 1061.5 781.5 c 128,-1,27
 990 703 990 703 989 596 c 2,28,-1
 989 588 l 1,29,-1
 989 0 l 1,30,-1
 809 0 l 1,31,-1
 809 447 l 1,32,33
 657 348 657 348 477 348 c 0,34,35
 338 348 338 348 236.5 454.5 c 128,-1,36
 135 561 135 561 135 735 c 2,37,-1
 135 1204 l 1,38,-1
 -20 1204 l 1,39,-1
 -20 1376 l 1,40,-1
 518 1376 l 1,41,-1
 877 1376 l 1,42,-1
 1200 1376 l 1,43,-1
 1280 1376 l 1,44,-1
 1733 1376 l 1,45,-1
 1733 1204 l 1,46,-1
 1280 1204 l 1,47,-1
 1200 1204 l 1,48,-1
 989 1204 l 1,8,-1
809 634 m 1,49,50
 809 1204 l 1,51,-1
 518 1204 l 1,52,-1
 315 1204 l 1,53,-1
 315 756 l 2,54,55
 315 678 315 678 340 624.5 c 128,-1,56
 365 571 365 571 401.5 550.5 c 128,-1,57
 438 530 438 530 463 523 c 128,-1,58
 488 516 488 516 506 516 c 0,59,60
 651 516 651 516 809 634 c 1,49,50
EndSplineSet
EndChar

StartChar: fadeva_viramadeva
Encoding: 548 -1 292
Width: 1159
VWidth: 0
Flags: W
LayerCount: 2
Fore
SplineSet
332 88 m 128,-1,1
 332 123 332 123 357.5 148.5 c 128,-1,2
 383 174 383 174 418 174 c 128,-1,3
 453 174 453 174 478.5 148.5 c 128,-1,4
 504 123 504 123 504 88 c 128,-1,5
 504 53 504 53 478.5 27.5 c 128,-1,6
 453 2 453 2 418 2 c 128,-1,7
 383 2 383 2 357.5 27.5 c 128,-1,0
 332 53 332 53 332 88 c 128,-1,1
811 0 m 1,8,-1
 655 0 l 1,9,-1
 655 172 l 1,10,-1
 811 172 l 1,11,-1
 811 448 l 1,12,13
 659 348 659 348 477 348 c 0,14,15
 338 348 338 348 236.5 454.5 c 128,-1,16
 135 561 135 561 135 735 c 2,17,-1
 135 1204 l 1,18,-1
 -20 1204 l 1,19,-1
 -20 1376 l 1,20,-1
 520 1376 l 1,21,-1
 877 1376 l 1,22,-1
 1282 1376 l 1,23,-1
 1282 1204 l 1,24,-1
 991 1204 l 1,25,-1
 991 910 l 1,26,27
 1039 961 1039 961 1105.5 996.5 c 128,-1,28
 1172 1032 1172 1032 1255 1032 c 0,29,30
 1346 1032 1346 1032 1438 991 c 1,31,-1
 1354 821 l 1,32,33
 1309 860 1309 860 1223 860 c 0,34,35
 1140 860 1140 860 1071.5 797 c 128,-1,36
 1003 734 1003 734 991 652 c 1,37,-1
 991 172 l 1,38,-1
 1147 172 l 1,39,-1
 1147 0 l 1,40,-1
 991 0 l 1,41,-1
 811 0 l 1,8,-1
811 636 m 1,42,43
 811 1204 l 1,44,-1
 520 1204 l 1,45,-1
 315 1204 l 1,46,-1
 315 756 l 2,47,48
 315 678 315 678 340 624.5 c 128,-1,49
 365 571 365 571 401.5 550.5 c 128,-1,50
 438 530 438 530 463 523 c 128,-1,51
 488 516 488 516 506 516 c 0,52,53
 582 516 582 516 659.5 548 c 128,-1,54
 737 580 737 580 811 636 c 1,42,43
EndSplineSet
Ligature2: "HalfFormslookup10 subtable" fadeva viramadeva
EndChar

StartChar: fi
Encoding: 549 64257 293
Width: 1386
VWidth: 0
Flags: W
LayerCount: 2
Fore
SplineSet
936 1403 m 128,-1,1
 936 1456 936 1456 975 1494 c 128,-1,2
 1014 1532 1014 1532 1067 1532 c 0,3,4
 1118 1532 1118 1532 1157 1493 c 128,-1,5
 1196 1454 1196 1454 1196 1403 c 0,6,7
 1196 1350 1196 1350 1157 1310 c 128,-1,8
 1118 1270 1118 1270 1067 1270 c 0,9,10
 1014 1270 1014 1270 975 1310 c 128,-1,0
 936 1350 936 1350 936 1403 c 128,-1,1
426 1204 m 2,11,12
 426 1036 l 1,13,-1
 666 1036 l 1,14,-1
 666 885 l 1,15,-1
 426 885 l 1,16,-1
 426 172 l 1,17,-1
 588 172 l 1,18,-1
 588 0 l 1,19,-1
 426 0 l 1,20,-1
 240 0 l 1,21,-1
 96 0 l 1,22,-1
 96 172 l 1,23,-1
 240 172 l 1,24,-1
 240 885 l 1,25,-1
 70 885 l 1,26,-1
 70 1036 l 1,27,-1
 240 1036 l 1,28,-1
 240 1198 l 2,29,30
 240 1374 240 1374 331 1465 c 128,-1,31
 422 1556 422 1556 578 1556 c 0,32,33
 737 1556 737 1556 852 1499 c 1,34,-1
 795 1366 l 1,35,36
 717 1407 717 1407 604 1407 c 0,37,38
 520 1407 520 1407 473 1354.5 c 128,-1,39
 426 1302 426 1302 426 1204 c 2,11,12
1159 172 m 1,40,-1
 1315 172 l 1,41,-1
 1315 0 l 1,42,-1
 1159 0 l 1,43,-1
 971 0 l 1,44,-1
 823 0 l 1,45,-1
 823 172 l 1,46,-1
 971 172 l 1,47,-1
 971 864 l 1,48,-1
 821 864 l 1,49,-1
 821 1036 l 1,50,-1
 971 1036 l 1,51,-1
 1149 1036 l 1,52,-1
 1159 1036 l 1,53,-1
 1159 172 l 1,40,-1
EndSplineSet
EndChar

StartChar: five
Encoding: 550 53 294
Width: 1138
VWidth: 0
Flags: W
LayerCount: 2
Fore
SplineSet
317 896 m 1,0,1
 431 973 431 973 567 973 c 0,2,3
 788 973 788 973 932.5 827.5 c 128,-1,4
 1077 682 1077 682 1077 475 c 0,5,6
 1077 266 1077 266 931.5 118.5 c 128,-1,7
 786 -29 786 -29 559 -29 c 0,8,9
 385 -29 385 -29 257 59.5 c 128,-1,10
 129 148 129 148 74 291 c 1,11,-1
 238 373 l 1,12,13
 270 268 270 268 358 202.5 c 128,-1,14
 446 137 446 137 559 137 c 0,15,16
 700 137 700 137 798.5 235.5 c 128,-1,17
 897 334 897 334 897 475 c 128,-1,18
 897 616 897 616 798.5 711.5 c 128,-1,19
 700 807 700 807 559 807 c 0,20,21
 397 806 397 806 299 702 c 1,22,-1
 152 725 l 1,23,-1
 152 1516 l 1,24,-1
 1006 1516 l 1,25,-1
 1006 1350 l 1,26,-1
 317 1350 l 1,27,-1
 317 896 l 1,0,1
EndSplineSet
EndChar

StartChar: fivecombiningdigitdeva
Encoding: 551 43237 295
Width: 0
VWidth: 0
Flags: W
LayerCount: 2
Fore
SplineSet
-285 1783 m 1,0,-1
 -152 1530 l 1,1,-1
 -266 1473 l 1,2,-1
 -375 1681 l 1,3,4
 -395 1670 -395 1670 -418 1663.5 c 128,-1,5
 -441 1657 -441 1657 -463.5 1654 c 128,-1,6
 -486 1651 -486 1651 -510 1651 c 0,7,8
 -602 1651 -602 1651 -678 1703 c 128,-1,9
 -754 1755 -754 1755 -754 1849 c 2,10,-1
 -754 2136 l 1,11,-1
 -623 2136 l 1,12,-1
 -623 1849 l 2,13,14
 -623 1774 -623 1774 -510 1774 c 0,15,16
 -463 1773 -463 1773 -433 1791 c 1,17,-1
 -502 1923 l 1,18,-1
 -389 1980 l 1,19,-1
 -285 1980 l 1,20,-1
 -285 1783 l 1,0,-1
EndSplineSet
EndChar

StartChar: fivedeva
Encoding: 552 2411 296
Width: 1263
VWidth: 0
Flags: W
LayerCount: 2
Fore
SplineSet
616 598 m 1,0,1
 532 537 532 537 397 537 c 0,2,3
 283 537 283 537 186.5 606.5 c 128,-1,4
 90 676 90 676 90 809 c 2,5,-1
 90 1409 l 1,6,-1
 272 1409 l 1,7,-1
 272 809 l 2,8,9
 272 752 272 752 311 724 c 128,-1,10
 350 696 350 696 397 696 c 0,11,12
 484 697 484 697 514 712 c 1,13,14
 468 736 468 736 441 781.5 c 128,-1,15
 414 827 414 827 414 881 c 0,16,17
 414 961 414 961 470 1018 c 128,-1,18
 526 1075 526 1075 606 1075 c 128,-1,19
 686 1075 686 1075 743.5 1018 c 128,-1,20
 801 961 801 961 801 881 c 0,21,22
 801 833 801 833 778 788 c 1,23,-1
 610 882 l 1,24,-1
 706 752 l 1,25,-1
 723 729 l 1,26,-1
 1219 57 l 1,27,-1
 1087 -41 l 1,28,-1
 616 598 l 1,0,1
EndSplineSet
Substitution2: "LocalizedNpFormslookup2 subtable" fivedeva.np
EndChar

StartChar: fivedeva.np
Encoding: 553 -1 297
Width: 1263
VWidth: 0
Flags: W
LayerCount: 2
Fore
SplineSet
1034 -322 m 1,0,-1
 903 -412 l 1,1,-1
 473 213 l 1,2,-1
 428 279 l 2,3,4
 427 279 427 279 426 279 c 2,5,-1
 438 127 l 1,6,7
 373 125 373 125 328 169 c 128,-1,8
 283 213 283 213 283 276.5 c 128,-1,9
 283 340 283 340 327 384 c 128,-1,10
 371 428 371 428 432 428 c 0,11,12
 502 429 502 429 547 374 c 1,13,-1
 549 375 l 1,14,15
 557 362 557 362 566 349 c 1,16,17
 612 301 612 301 666 301 c 0,18,19
 729 301 729 301 751.5 346 c 128,-1,20
 774 391 774 391 743 430 c 2,21,-1
 619 600 l 1,22,23
 589 578 589 578 553.5 563.5 c 128,-1,24
 518 549 518 549 479.5 543 c 128,-1,25
 441 537 441 537 397 537 c 0,26,27
 283 537 283 537 186.5 606.5 c 128,-1,28
 90 676 90 676 90 809 c 2,29,30
 90 1409 l 1,31,-1
 272 1409 l 1,32,-1
 272 809 l 2,33,34
 272 752 272 752 311 724 c 128,-1,35
 350 696 350 696 397 696 c 0,36,37
 484 697 484 697 514 712 c 1,38,39
 468 736 468 736 441 781.5 c 128,-1,40
 414 827 414 827 414 881 c 0,41,42
 414 961 414 961 470 1018 c 128,-1,43
 526 1075 526 1075 606 1075 c 128,-1,44
 686 1075 686 1075 743.5 1018 c 128,-1,45
 801 961 801 961 801 881 c 0,46,47
 801 833 801 833 778 788 c 1,48,-1
 619 877 l 1,49,-1
 907 473 l 2,50,51
 928 443 928 443 932 390.5 c 128,-1,52
 936 338 936 338 921 282 c 128,-1,53
 906 226 906 226 852.5 181.5 c 128,-1,54
 799 137 799 137 716 130 c 1,55,56
 762 66 762 66 821.5 -14.5 c 128,-1,57
 881 -95 881 -95 903 -127 c 2,58,-1
 1034 -322 l 1,0,-1
EndSplineSet
EndChar

StartChar: fl
Encoding: 554 64258 298
Width: 1206
VWidth: 0
Flags: W
LayerCount: 2
Fore
SplineSet
426 1204 m 2,0,1
 426 1036 l 1,2,-1
 666 1036 l 1,3,-1
 666 885 l 1,4,-1
 426 885 l 1,5,-1
 426 172 l 1,6,-1
 588 172 l 1,7,-1
 588 0 l 1,8,-1
 426 0 l 1,9,-1
 242 0 l 1,10,-1
 96 0 l 1,11,-1
 96 172 l 1,12,-1
 242 172 l 1,13,-1
 242 885 l 1,14,-1
 41 885 l 1,15,-1
 41 1036 l 1,16,-1
 242 1036 l 1,17,-1
 242 1198 l 2,18,19
 242 1374 242 1374 332 1465 c 128,-1,20
 422 1556 422 1556 578 1556 c 0,21,22
 702 1556 702 1556 793 1524 c 1,23,-1
 793 1556 l 1,24,-1
 979 1556 l 1,25,-1
 979 172 l 1,26,-1
 1135 172 l 1,27,-1
 1135 0 l 1,28,-1
 979 0 l 1,29,-1
 891 0 l 1,30,-1
 793 0 l 1,31,-1
 793 1367 l 1,32,33
 759 1384 759 1384 707.5 1395.5 c 128,-1,34
 656 1407 656 1407 604 1407 c 0,35,36
 520 1407 520 1407 473 1354.5 c 128,-1,37
 426 1302 426 1302 426 1204 c 2,0,1
EndSplineSet
EndChar

StartChar: florin
Encoding: 555 402 299
Width: 729
VWidth: 0
Flags: W
LayerCount: 2
Fore
SplineSet
635 1204 m 2,0,1
 606 1036 l 1,2,-1
 848 1036 l 1,3,-1
 821 885 l 1,4,-1
 579 885 l 1,5,-1
 406 -113 l 2,6,7
 375 -289 375 -289 268.5 -380 c 128,-1,8
 162 -471 162 -471 6 -471 c 0,9,10
 -152 -471 -152 -471 -258 -414 c 1,11,-1
 -176 -281 l 1,12,13
 -105 -322 -105 -322 6 -322 c 0,14,15
 90 -322 90 -322 146.5 -269.5 c 128,-1,16
 203 -217 203 -217 221 -119 c 2,17,-1
 396 885 l 1,18,-1
 197 885 l 1,19,-1
 223 1036 l 1,20,-1
 422 1036 l 1,21,-1
 451 1198 l 2,22,23
 481 1374 481 1374 587.5 1465 c 128,-1,24
 694 1556 694 1556 850 1556 c 0,25,26
 1008 1556 1008 1556 1114 1499 c 1,27,-1
 1032 1366 l 1,28,29
 961 1407 961 1407 850 1407 c 0,30,31
 766 1407 766 1407 709.5 1354.5 c 128,-1,32
 653 1302 653 1302 635 1204 c 2,0,1
EndSplineSet
EndChar

StartChar: four
Encoding: 556 52 300
Width: 1251
VWidth: 0
Flags: W
LayerCount: 2
Fore
SplineSet
573 0 m 1,0,-1
 573 172 l 1,1,-1
 719 172 l 1,2,-1
 719 438 l 1,3,-1
 90 438 l 1,4,-1
 92 596 l 1,5,-1
 631 1516 l 1,6,-1
 844 1516 l 1,7,-1
 332 610 l 1,8,-1
 719 610 l 1,9,-1
 719 860 l 1,10,-1
 915 874 l 1,11,-1
 915 610 l 1,12,-1
 1141 610 l 1,13,-1
 1141 438 l 1,14,-1
 915 438 l 1,15,-1
 915 172 l 1,16,-1
 1065 172 l 1,17,-1
 1065 0 l 1,18,-1
 573 0 l 1,0,-1
EndSplineSet
EndChar

StartChar: four.fract
Encoding: 557 -1 301
Width: 2805
VWidth: 0
Flags: W
LayerCount: 2
Fore
SplineSet
2073 0 m 1,0,-1
 2073 195 l 1,1,-1
 1737 195 l 1,2,-1
 1735 303 l 1,3,-1
 2015 760 l 1,4,-1
 2163 760 l 1,5,-1
 1890 305 l 1,6,-1
 2073 305 l 1,7,-1
 2073 469 l 1,8,-1
 2208 469 l 1,9,-1
 2208 305 l 1,10,-1
 2320 305 l 1,11,-1
 2320 195 l 1,12,-1
 2208 195 l 1,13,-1
 2208 0 l 1,14,-1
 2073 0 l 1,0,-1
EndSplineSet
EndChar

StartChar: fourcombiningdigitdeva
Encoding: 558 43236 302
Width: 0
VWidth: 0
Flags: W
AnchorPoint: "DVAnchor3" -391 1395 mark 0
LayerCount: 2
Fore
SplineSet
-182 2095 m 1,0,1
 -88 2177 l 1,2,-1
 -65 2140 l 2,3,4
 -41 2103 -41 2103 -32.5 2048.5 c 128,-1,5
 -24 1994 -24 1994 -53 1933 c 1,6,7
 -76 1892 -76 1892 -113.5 1863 c 128,-1,8
 -151 1834 -151 1834 -180 1822 c 128,-1,9
 -209 1810 -209 1810 -254 1797 c 1,10,11
 -168 1717 -168 1717 -168 1649 c 0,12,13
 -168 1571 -168 1571 -228.5 1515.5 c 128,-1,14
 -289 1460 -289 1460 -375 1460 c 0,15,16
 -465 1460 -465 1460 -526.5 1516.5 c 128,-1,17
 -588 1573 -588 1573 -588 1649 c 0,18,19
 -588 1713 -588 1713 -507 1792 c 1,20,21
 -655 1839 -655 1839 -702 1933 c 0,22,23
 -719 1966 -719 1966 -722 2004 c 128,-1,24
 -725 2042 -725 2042 -719 2068.5 c 128,-1,25
 -713 2095 -713 2095 -700.5 2122.5 c 128,-1,26
 -688 2150 -688 2150 -683 2159.5 c 128,-1,27
 -678 2169 -678 2169 -674 2173 c 1,28,-1
 -571 2101 l 1,29,-1
 -582 2085 l 2,30,31
 -592 2068 -592 2068 -595 2044 c 128,-1,32
 -598 2020 -598 2020 -588 1991 c 0,33,34
 -581 1977 -581 1977 -572.5 1965.5 c 128,-1,35
 -564 1954 -564 1954 -552.5 1945 c 128,-1,36
 -541 1936 -541 1936 -531.5 1928.5 c 128,-1,37
 -522 1921 -522 1921 -507 1914.5 c 128,-1,38
 -492 1908 -492 1908 -482.5 1904 c 128,-1,39
 -473 1900 -473 1900 -456.5 1895.5 c 128,-1,40
 -440 1891 -440 1891 -432.5 1889 c 128,-1,41
 -425 1887 -425 1887 -408 1883 c 128,-1,42
 -391 1879 -391 1879 -387 1878 c 1,43,44
 -376 1882 -376 1882 -338 1890.5 c 128,-1,45
 -300 1899 -300 1899 -273.5 1907.5 c 128,-1,46
 -247 1916 -247 1916 -214.5 1939 c 128,-1,47
 -182 1962 -182 1962 -164 1995 c 1,48,49
 -147 2015 -147 2015 -156.5 2043 c 128,-1,50
 -166 2071 -166 2071 -171 2080 c 128,-1,51
 -176 2089 -176 2089 -182 2095 c 1,0,1
-377 1743 m 1,52,53
 -403 1726 -403 1726 -414.5 1717.5 c 128,-1,54
 -426 1709 -426 1709 -441.5 1689 c 128,-1,55
 -457 1669 -457 1669 -457 1649 c 0,56,57
 -457 1620 -457 1620 -433.5 1601.5 c 128,-1,58
 -410 1583 -410 1583 -377 1583 c 0,59,60
 -346 1583 -346 1583 -322.5 1602.5 c 128,-1,61
 -299 1622 -299 1622 -299 1649 c 0,62,63
 -299 1696 -299 1696 -377 1743 c 1,52,53
EndSplineSet
EndChar

StartChar: fourdeva
Encoding: 559 2410 303
Width: 1359
VWidth: 0
Flags: W
LayerCount: 2
Fore
SplineSet
926 1360 m 1,0,1
 1057 1458 l 1,2,-1
 1091 1402 l 2,3,4
 1124 1346 1124 1346 1127 1252.5 c 128,-1,5
 1130 1159 1130 1159 1071 1038 c 1,6,7
 986 891 986 891 806 814 c 1,8,9
 872 747 872 747 908 669.5 c 128,-1,10
 944 592 944 592 944 514 c 0,11,12
 944 389 944 389 857 303 c 128,-1,13
 770 217 770 217 653.5 217 c 128,-1,14
 537 217 537 217 451 303 c 128,-1,15
 365 389 365 389 365 514 c 0,16,17
 364 671 364 671 500 814 c 1,18,19
 321 894 321 894 238 1040 c 0,20,21
 201 1106 201 1106 187.5 1173.5 c 128,-1,22
 174 1241 174 1241 181 1287 c 128,-1,23
 188 1333 188 1333 205.5 1378 c 128,-1,24
 223 1423 223 1423 231.5 1436.5 c 128,-1,25
 240 1450 240 1450 246 1458 c 1,26,-1
 381 1360 l 1,27,-1
 365 1329 l 2,28,29
 348 1298 348 1298 348 1238.5 c 128,-1,30
 348 1179 348 1179 381 1122 c 0,31,32
 407 1078 407 1078 439.5 1044 c 128,-1,33
 472 1010 472 1010 514.5 986.5 c 128,-1,34
 557 963 557 963 580.5 952 c 128,-1,35
 604 941 604 941 650 924 c 1,36,37
 700 943 700 943 721 952 c 128,-1,38
 742 961 742 961 787 986 c 128,-1,39
 832 1011 832 1011 865 1045 c 128,-1,40
 898 1079 898 1079 924 1124 c 0,41,42
 956 1182 956 1182 955 1243.5 c 128,-1,43
 954 1305 954 1305 944 1326.5 c 128,-1,44
 934 1348 934 1348 926 1360 c 1,0,1
653 740 m 1,45,46
 634 725 634 725 619 711 c 128,-1,47
 604 697 604 697 588.5 677 c 128,-1,48
 573 657 573 657 563 636 c 128,-1,49
 553 615 553 615 547 586.5 c 128,-1,50
 541 558 541 558 541 526 c 0,51,52
 540 377 540 377 651 377 c 0,53,54
 705 377 705 377 736.5 414 c 128,-1,55
 768 451 768 451 768 512 c 0,56,57
 768 598 768 598 737.5 649.5 c 128,-1,58
 707 701 707 701 653 740 c 1,45,46
EndSplineSet
EndChar

StartChar: foursuperior
Encoding: 560 8308 304
Width: 808
VWidth: 0
Flags: W
LayerCount: 2
Fore
SplineSet
449 846 m 1,0,-1
 449 1040 l 1,1,-1
 113 1040 l 1,2,-1
 111 1149 l 1,3,-1
 391 1585 l 1,4,-1
 539 1585 l 1,5,-1
 267 1151 l 1,6,-1
 449 1151 l 1,7,-1
 449 1315 l 1,8,-1
 584 1315 l 1,9,-1
 584 1151 l 1,10,-1
 696 1151 l 1,11,-1
 696 1040 l 1,12,-1
 584 1040 l 1,13,-1
 584 846 l 1,14,-1
 449 846 l 1,0,-1
EndSplineSet
EndChar

StartChar: fraction
Encoding: 561 8260 305
Width: 1400
VWidth: 0
Flags: W
LayerCount: 2
Fore
SplineSet
-43 -61 m 1,0,-1
 1233 1577 l 1,1,-1
 1432 1577 l 1,2,-1
 156 -61 l 1,3,-1
 -43 -61 l 1,0,-1
EndSplineSet
EndChar

StartChar: fromKa
Encoding: 562 -1 306
Width: 718
VWidth: 0
Flags: W
LayerCount: 2
Fore
SplineSet
4 588 m 1,0,1
 -33 887 l 1,2,3
 2 936 2 936 83 984 c 128,-1,4
 164 1032 164 1032 270 1032 c 0,5,6
 426 1032 426 1032 525.5 938 c 128,-1,7
 625 844 625 844 625 668 c 0,8,9
 625 547 625 547 552 403.5 c 128,-1,10
 479 260 479 260 391 147 c 1,11,12
 276 236 l 1,13,14
 280 242 280 242 288 254 c 0,15,16
 453 508 453 508 453 643 c 0,17,18
 453 741 453 741 393.5 800.5 c 128,-1,19
 334 860 334 860 238 860 c 0,20,21
 145 860 145 860 73.5 778.5 c 128,-1,22
 2 697 2 697 4 588 c 1,0,1
EndSplineSet
EndChar

StartChar: g
Encoding: 563 103 307
Width: 1208
VWidth: 0
Flags: W
LayerCount: 2
Fore
SplineSet
858 76 m 2,0,1
 858 91 l 1,2,3
 752 -23 752 -23 586 -23 c 0,4,5
 369 -23 369 -23 230.5 123.5 c 128,-1,6
 92 270 92 270 92 528 c 0,7,8
 92 768 92 768 230.5 914.5 c 128,-1,9
 369 1061 369 1061 596 1061 c 0,10,11
 752 1061 752 1061 858 983 c 1,12,-1
 858 1036 l 1,13,-1
 1047 1036 l 1,14,-1
 1047 41 l 2,15,16
 1046 -457 1046 -457 565 -457 c 0,17,18
 295 -456 295 -456 123 -313 c 1,19,-1
 223 -162 l 1,20,21
 360 -281 360 -281 559 -281 c 0,22,23
 719 -281 719 -281 788.5 -205 c 128,-1,24
 858 -129 858 -129 858 76 c 2,0,1
858 246 m 1,25,-1
 858 812 l 1,26,27
 764 897 764 897 604 897 c 0,28,29
 467 897 467 897 376 798.5 c 128,-1,30
 285 700 285 700 285 530 c 0,31,32
 285 344 285 344 374 241.5 c 128,-1,33
 463 139 463 139 610 139 c 0,34,35
 773 140 773 140 858 246 c 1,25,-1
EndSplineSet
EndChar

StartChar: gadeva
Encoding: 564 2327 308
Width: 1306
VWidth: 0
Flags: W
AnchorPoint: "DVAnchor3" 942 1360 basechar 0
LayerCount: 2
Fore
SplineSet
309 344 m 1,0,-1
 135 516 l 1,1,-1
 135 664 l 1,2,-1
 270 664 l 1,3,-1
 270 1204 l 1,4,-1
 -20 1204 l 1,5,-1
 -20 1376 l 1,6,-1
 565 1376 l 1,7,-1
 741 1376 l 1,8,-1
 1327 1376 l 1,9,-1
 1327 1204 l 1,10,-1
 1036 1204 l 1,11,-1
 1036 172 l 1,12,-1
 1192 172 l 1,13,-1
 1192 0 l 1,14,-1
 1036 0 l 1,15,-1
 856 0 l 1,16,-1
 700 0 l 1,17,-1
 700 172 l 1,18,-1
 856 172 l 1,19,-1
 856 1204 l 1,20,-1
 741 1204 l 1,21,-1
 565 1204 l 1,22,-1
 451 1204 l 1,23,-1
 451 664 l 1,24,-1
 451 635 l 1,25,-1
 451 344 l 1,26,-1
 309 344 l 1,0,-1
EndSplineSet
Substitution2: "Single Substitution lookup 36 subtable" gadeva_alt1
EndChar

StartChar: gadeva_alt1
Encoding: 565 -1 309
Width: 1306
VWidth: 0
Flags: W
AnchorPoint: "DVAnchor0" 944 7 basechar 0
LayerCount: 2
Fore
SplineSet
309 344 m 1,0,-1
 135 516 l 1,1,-1
 135 664 l 1,2,-1
 270 664 l 1,3,-1
 270 1204 l 1,4,-1
 -20 1204 l 1,5,-1
 -20 1376 l 1,6,-1
 565 1376 l 1,7,-1
 741 1376 l 1,8,-1
 1327 1376 l 1,9,-1
 1327 1204 l 1,10,-1
 1036 1204 l 1,11,-1
 1036 0 l 1,12,-1
 856 0 l 1,13,-1
 856 1204 l 1,14,-1
 741 1204 l 1,15,-1
 565 1204 l 1,16,-1
 451 1204 l 1,17,-1
 451 664 l 1,18,-1
 451 635 l 1,19,-1
 451 344 l 1,20,-1
 309 344 l 1,0,-1
EndSplineSet
EndChar

StartChar: gadeva_viramadeva
Encoding: 566 -1 310
Width: 720
VWidth: 0
Flags: W
LayerCount: 2
Fore
SplineSet
309 344 m 1,0,-1
 135 516 l 1,1,-1
 135 664 l 1,2,-1
 270 664 l 1,3,-1
 270 1204 l 1,4,-1
 -20 1204 l 1,5,-1
 -20 1376 l 1,6,-1
 741 1376 l 1,7,-1
 741 1204 l 1,8,-1
 451 1204 l 1,9,-1
 451 664 l 1,10,-1
 451 635 l 1,11,-1
 451 344 l 1,12,-1
 309 344 l 1,0,-1
EndSplineSet
Ligature2: "HalfFormslookup10 subtable" gadeva viramadeva
EndChar

StartChar: gadeva_viramadeva_nadeva
Encoding: 567 -1 311
Width: 1306
VWidth: 0
Flags: W
LayerCount: 2
Fore
SplineSet
565 6 m 1,0,-1
 354 -2 l 1,1,-1
 260 88 l 1,2,-1
 451 290 l 1,3,-1
 856 725 l 1,4,-1
 856 1204 l 1,5,-1
 741 1204 l 1,6,-1
 565 1204 l 1,7,-1
 451 1204 l 1,8,-1
 451 664 l 1,9,-1
 451 635 l 1,10,-1
 451 344 l 1,11,-1
 309 344 l 1,12,-1
 135 516 l 1,13,-1
 135 664 l 1,14,-1
 270 664 l 1,15,-1
 270 1204 l 1,16,-1
 -20 1204 l 1,17,-1
 -20 1376 l 1,18,-1
 565 1376 l 1,19,-1
 741 1376 l 1,20,-1
 1327 1376 l 1,21,-1
 1327 1204 l 1,22,-1
 1036 1204 l 1,23,-1
 1036 172 l 1,24,-1
 1192 172 l 1,25,-1
 1192 0 l 1,26,-1
 1036 0 l 1,27,-1
 856 0 l 1,28,-1
 700 0 l 1,29,-1
 700 172 l 1,30,-1
 856 172 l 1,31,-1
 856 519 l 1,32,-1
 552 194 l 1,33,-1
 653 98 l 1,34,-1
 565 6 l 1,0,-1
EndSplineSet
Ligature2: "PreBaseSubstitutionslookup1 subtable" gadeva_viramadeva nadeva
Ligature2: "LocalizedMrHalfFormslookup1 subtable" gadeva viramadeva nadeva
EndChar

StartChar: gadeva_viramadeva_radeva
Encoding: 568 -1 312
Width: 1306
VWidth: 0
Flags: W
AnchorPoint: "DVAnchor3" 942 1360 basechar 0
LayerCount: 2
Fore
SplineSet
309 344 m 1,0,-1
 135 516 l 1,1,-1
 135 664 l 1,2,-1
 270 664 l 1,3,-1
 270 1204 l 1,4,-1
 -20 1204 l 1,5,-1
 -20 1376 l 1,6,-1
 565 1376 l 1,7,-1
 741 1376 l 1,8,-1
 1327 1376 l 1,9,-1
 1327 1204 l 1,10,-1
 1036 1204 l 1,11,-1
 1036 172 l 1,12,-1
 1192 172 l 1,13,-1
 1192 0 l 1,14,-1
 1036 0 l 1,15,-1
 856 0 l 1,16,-1
 700 0 l 1,17,-1
 700 172 l 1,18,-1
 856 172 l 1,19,-1
 856 442 l 1,20,-1
 414 -2 l 1,21,-1
 301 109 l 1,22,-1
 856 667 l 1,23,-1
 856 1204 l 1,24,-1
 741 1204 l 1,25,-1
 565 1204 l 1,26,-1
 451 1204 l 1,27,-1
 451 664 l 1,28,-1
 451 635 l 1,29,-1
 451 344 l 1,30,-1
 309 344 l 1,0,-1
EndSplineSet
LCarets2: 1 0 
Ligature2: "VattuVariantslookup30 subtable" gadeva viramadeva_radeva
EndChar

StartChar: gapfillerdeva
Encoding: 569 43257 313
Width: 1452
VWidth: 0
Flags: W
AnchorPoint: "DVAnchor0" 664 115 basechar 0
AnchorPoint: "DVAnchor3" 1083 1368 basechar 0
LayerCount: 2
Fore
SplineSet
1397 768 m 0,0,1
 1397 664 1397 664 1341.5 547 c 128,-1,2
 1286 430 1286 430 1192 326.5 c 128,-1,3
 1098 223 1098 223 949.5 155.5 c 128,-1,4
 801 88 801 88 633 88 c 0,5,6
 563 88 563 88 491.5 102.5 c 128,-1,7
 420 117 420 117 346 151.5 c 128,-1,8
 272 186 272 186 216 236.5 c 128,-1,9
 160 287 160 287 124 366 c 128,-1,10
 88 445 88 445 88 541 c 0,11,12
 88 664 88 664 137 750 c 128,-1,13
 186 836 186 836 267 875.5 c 128,-1,14
 348 915 348 915 450.5 931.5 c 128,-1,15
 553 948 553 948 659 930 c 1,16,-1
 659 774 l 1,17,-1
 567 774 l 2,18,19
 520 774 520 774 485.5 771 c 128,-1,20
 451 768 451 768 406.5 754.5 c 128,-1,21
 362 741 362 741 334.5 716.5 c 128,-1,22
 307 692 307 692 287.5 647 c 128,-1,23
 268 602 268 602 268 541 c 0,24,25
 268 434 268 434 329.5 366.5 c 128,-1,26
 391 299 391 299 467 277.5 c 128,-1,27
 543 256 543 256 633 256 c 0,28,29
 791 256 791 256 918.5 319.5 c 128,-1,30
 1046 383 1046 383 1124 488 c 1,31,32
 1117 487 1117 487 1110 487 c 0,33,34
 985 487 985 487 902 568 c 128,-1,35
 819 649 819 649 819 768 c 0,36,37
 819 889 819 889 901 969 c 128,-1,38
 983 1049 983 1049 1108 1049 c 128,-1,39
 1233 1049 1233 1049 1315 969 c 128,-1,40
 1397 889 1397 889 1397 768 c 0,0,1
1221 768 m 128,-1,42
 1221 817 1221 817 1191 853 c 128,-1,43
 1161 889 1161 889 1108 889 c 128,-1,44
 1055 889 1055 889 1025 853 c 128,-1,45
 995 817 995 817 995 768 c 0,46,47
 995 717 995 717 1026 682 c 128,-1,48
 1057 647 1057 647 1110 647 c 0,49,50
 1161 647 1161 647 1191 683 c 128,-1,41
 1221 719 1221 719 1221 768 c 128,-1,42
EndSplineSet
EndChar

StartChar: germandbls
Encoding: 572 223 316
Width: 1247
VWidth: 0
Flags: W
LayerCount: 2
Fore
SplineSet
588 778 m 1,0,-1
 588 965 l 1,1,-1
 666 965 l 2,2,3
 682 965 682 965 699 964 c 1,4,5
 761 973 761 973 805.5 1026 c 128,-1,6
 850 1079 850 1079 850 1139 c 0,7,8
 850 1239 850 1239 783.5 1304.5 c 128,-1,9
 717 1370 717 1370 608 1370 c 0,10,11
 512 1370 512 1370 454.5 1305.5 c 128,-1,12
 397 1241 397 1241 397 1137 c 2,13,-1
 397 0 l 1,14,-1
 360 0 l 1,15,-1
 201 0 l 1,16,-1
 16 0 l 1,17,-1
 16 172 l 1,18,-1
 201 172 l 1,19,-1
 201 1159 l 2,20,21
 201 1313 201 1313 313.5 1434.5 c 128,-1,22
 426 1556 426 1556 610.5 1556 c 128,-1,23
 795 1556 795 1556 922 1434.5 c 128,-1,24
 1049 1313 1049 1313 1049 1143 c 0,25,26
 1048 992 1048 992 947 888 c 1,27,28
 1049 825 1049 825 1107 720.5 c 128,-1,29
 1165 616 1165 616 1165 485 c 0,30,31
 1165 266 1165 266 1021 126 c 128,-1,32
 877 -14 877 -14 666 -14 c 0,33,34
 627 -14 627 -14 588 -8 c 1,35,-1
 588 180 l 1,36,37
 633 170 633 170 666 170 c 0,38,39
 797 170 797 170 888 262 c 128,-1,40
 979 354 979 354 979 485 c 0,41,42
 979 612 979 612 887 695 c 128,-1,43
 795 778 795 778 668 778 c 2,44,-1
 588 778 l 1,0,-1
EndSplineSet
EndChar

StartChar: ggadeva
Encoding: 573 2427 317
Width: 1308
VWidth: 0
Flags: W
AnchorPoint: "DVAnchor3" 942 1360 basechar 0
LayerCount: 2
Fore
SplineSet
309 344 m 1,0,-1
 135 516 l 1,1,-1
 135 664 l 1,2,-1
 270 664 l 1,3,-1
 270 1204 l 1,4,-1
 -20 1204 l 1,5,-1
 -20 1376 l 1,6,-1
 565 1376 l 1,7,-1
 741 1376 l 1,8,-1
 1327 1376 l 1,9,-1
 1327 1204 l 1,10,-1
 1036 1204 l 1,11,-1
 1036 172 l 1,12,-1
 1192 172 l 1,13,-1
 1192 0 l 1,14,-1
 1036 0 l 1,15,-1
 977 0 l 1,16,-1
 856 0 l 1,17,-1
 700 0 l 1,18,-1
 45 0 l 1,19,-1
 45 172 l 1,20,-1
 700 172 l 1,21,-1
 856 172 l 1,22,-1
 856 1204 l 1,23,-1
 741 1204 l 1,24,-1
 565 1204 l 1,25,-1
 451 1204 l 1,26,-1
 451 664 l 1,27,-1
 451 635 l 1,28,-1
 451 344 l 1,29,-1
 309 344 l 1,0,-1
EndSplineSet
EndChar

StartChar: ghadeva
Encoding: 574 2328 318
Width: 1443
VWidth: 0
Flags: W
AnchorPoint: "DVAnchor3" 1036 1360 basechar 0
LayerCount: 2
Fore
SplineSet
719 918 m 1,0,-1
 719 766 l 1,1,-1
 510 766 l 2,2,3
 459 766 459 766 409.5 720 c 128,-1,4
 360 674 360 674 360 602 c 128,-1,5
 360 530 360 530 416.5 480 c 128,-1,6
 473 430 473 430 582 430 c 0,7,8
 671 430 671 430 782 473.5 c 128,-1,9
 893 517 893 517 991 597 c 1,10,-1
 991 1204 l 1,11,-1
 700 1204 l 1,12,-1
 315 1204 l 1,13,-1
 315 1047 l 2,14,15
 315 993 315 993 359 955.5 c 128,-1,16
 403 918 403 918 473 918 c 2,17,-1
 719 918 l 1,0,-1
135 1204 m 1,18,-1
 -20 1204 l 1,19,-1
 -20 1376 l 1,20,-1
 700 1376 l 1,21,-1
 1276 1376 l 1,22,-1
 1462 1376 l 1,23,-1
 1462 1204 l 1,24,-1
 1276 1204 l 1,25,-1
 1171 1204 l 1,26,-1
 1171 172 l 1,27,-1
 1327 172 l 1,28,-1
 1327 0 l 1,29,-1
 1171 0 l 1,30,-1
 991 0 l 1,31,-1
 836 0 l 1,32,-1
 836 172 l 1,33,-1
 991 172 l 1,34,-1
 991 406 l 1,35,36
 914 346 914 346 796 302 c 128,-1,37
 678 258 678 258 553 258 c 0,38,39
 387 258 387 258 283.5 341 c 128,-1,40
 180 424 180 424 180 569 c 0,41,42
 180 716 180 716 301 803 c 1,43,44
 135 870 135 870 135 1020 c 2,45,-1
 135 1204 l 1,18,-1
EndSplineSet
Substitution2: "Single Substitution lookup 36 subtable" ghadeva_alt1
EndChar

StartChar: ghadeva_alt1
Encoding: 575 -1 319
Width: 1443
VWidth: 0
Flags: W
AnchorPoint: "DVAnchor0" 1081 7 basechar 0
LayerCount: 2
Fore
SplineSet
719 918 m 1,0,-1
 719 766 l 1,1,-1
 510 766 l 2,2,3
 459 766 459 766 409.5 720 c 128,-1,4
 360 674 360 674 360 602 c 128,-1,5
 360 530 360 530 416.5 480 c 128,-1,6
 473 430 473 430 582 430 c 0,7,8
 671 430 671 430 782 473.5 c 128,-1,9
 893 517 893 517 991 597 c 1,10,-1
 991 1204 l 1,11,-1
 700 1204 l 1,12,-1
 315 1204 l 1,13,-1
 315 1047 l 2,14,15
 315 993 315 993 359 955.5 c 128,-1,16
 403 918 403 918 473 918 c 2,17,-1
 719 918 l 1,0,-1
135 1204 m 1,18,-1
 -20 1204 l 1,19,-1
 -20 1376 l 1,20,-1
 700 1376 l 1,21,-1
 1276 1376 l 1,22,-1
 1462 1376 l 1,23,-1
 1462 1204 l 1,24,-1
 1276 1204 l 1,25,-1
 1171 1204 l 1,26,-1
 1171 0 l 1,27,-1
 991 0 l 1,28,-1
 991 406 l 1,29,30
 914 346 914 346 796 302 c 128,-1,31
 678 258 678 258 553 258 c 0,32,33
 387 258 387 258 283.5 341 c 128,-1,34
 180 424 180 424 180 569 c 0,35,36
 180 716 180 716 301 803 c 1,37,38
 135 870 135 870 135 1020 c 2,39,-1
 135 1204 l 1,18,-1
EndSplineSet
EndChar

StartChar: ghadeva_viramadeva
Encoding: 576 -1 320
Width: 991
VWidth: 0
Flags: W
LayerCount: 2
Fore
SplineSet
1276 1376 m 1,0,-1
 1276 1204 l 1,1,-1
 315 1204 l 1,2,-1
 315 1047 l 2,3,4
 315 993 315 993 359 955.5 c 128,-1,5
 403 918 403 918 473 918 c 2,6,-1
 719 918 l 1,7,-1
 719 766 l 1,8,-1
 510 766 l 2,9,10
 459 766 459 766 409.5 720 c 128,-1,11
 360 674 360 674 360 602 c 128,-1,12
 360 530 360 530 416.5 480 c 128,-1,13
 473 430 473 430 582 430 c 0,14,15
 682 430 682 430 808 484.5 c 128,-1,16
 934 539 934 539 1036 637 c 1,17,-1
 1030 440 l 1,18,19
 967 375 967 375 832.5 316.5 c 128,-1,20
 698 258 698 258 553 258 c 0,21,22
 387 258 387 258 283.5 341 c 128,-1,23
 180 424 180 424 180 569 c 0,24,25
 180 716 180 716 301 803 c 1,26,27
 135 870 135 870 135 1020 c 2,28,-1
 135 1204 l 1,29,-1
 -20 1204 l 1,30,-1
 -20 1376 l 1,31,-1
 1276 1376 l 1,0,-1
EndSplineSet
Ligature2: "HalfFormslookup10 subtable" ghadeva viramadeva
EndChar

StartChar: ghadeva_viramadeva_radeva
Encoding: 577 -1 321
Width: 1443
VWidth: 0
Flags: W
LayerCount: 2
Fore
SplineSet
584 0 m 1,0,-1
 471 111 l 1,1,-1
 620 262 l 1,2,3
 586 258 586 258 553 258 c 0,4,5
 387 258 387 258 283.5 341 c 128,-1,6
 180 424 180 424 180 569 c 0,7,8
 180 716 180 716 301 803 c 1,9,10
 135 870 135 870 135 1020 c 2,11,-1
 135 1204 l 1,12,-1
 -20 1204 l 1,13,-1
 -20 1376 l 1,14,-1
 700 1376 l 1,15,-1
 1276 1376 l 1,16,-1
 1462 1376 l 1,17,-1
 1462 1204 l 1,18,-1
 1276 1204 l 1,19,-1
 1171 1204 l 1,20,-1
 1171 172 l 1,21,-1
 1327 172 l 1,22,-1
 1327 0 l 1,23,-1
 1171 0 l 1,24,-1
 991 0 l 1,25,-1
 836 0 l 1,26,-1
 836 172 l 1,27,-1
 991 172 l 1,28,-1
 991 405 l 1,29,-1
 971 387 l 1,30,-1
 891 307 l 1,31,-1
 584 0 l 1,0,-1
719 918 m 1,32,-1
 719 766 l 1,33,-1
 510 766 l 2,34,35
 459 766 459 766 409.5 720 c 128,-1,36
 360 674 360 674 360 602 c 128,-1,37
 360 530 360 530 416.5 480 c 128,-1,38
 473 430 473 430 582 430 c 0,39,40
 671 430 671 430 782 473.5 c 128,-1,41
 893 517 893 517 991 597 c 1,42,-1
 991 1204 l 1,43,-1
 700 1204 l 1,44,-1
 315 1204 l 1,45,-1
 315 1047 l 2,46,47
 315 993 315 993 359 955.5 c 128,-1,48
 403 918 403 918 473 918 c 2,49,-1
 719 918 l 1,32,-1
EndSplineSet
Ligature2: "VattuVariantslookup30 subtable" ghadeva viramadeva_radeva
EndChar

StartChar: glottalstopdeva
Encoding: 580 2429 324
Width: 1292
VWidth: 0
Flags: W
LayerCount: 2
Fore
SplineSet
340 1120 m 1,0,1
 209 1223 l 1,2,3
 371 1430 371 1430 625 1430 c 0,4,5
 836 1430 836 1430 976 1291.5 c 128,-1,6
 1116 1153 1116 1153 1116 946 c 0,7,8
 1116 723 1116 723 977 605 c 128,-1,9
 838 487 838 487 625 487 c 2,10,-1
 623 487 l 1,11,-1
 623 0 l 1,12,-1
 446 0 l 1,13,-1
 446 637 l 1,14,-1
 453 637 l 1,15,-1
 623 637 l 1,16,-1
 625 637 l 2,17,18
 762 637 762 637 851 718 c 128,-1,19
 940 799 940 799 940 946 c 0,20,21
 940 1081 940 1081 852 1175.5 c 128,-1,22
 764 1270 764 1270 625 1270 c 0,23,24
 457 1270 457 1270 340 1120 c 1,0,1
EndSplineSet
EndChar

StartChar: grave
Encoding: 582 96 326
Width: 593
VWidth: 0
Flags: W
LayerCount: 2
Fore
SplineSet
389 1178 m 1,0,-1
 102 1460 l 1,1,-1
 102 1477 l 1,2,-1
 350 1477 l 1,3,-1
 535 1178 l 1,4,-1
 389 1178 l 1,0,-1
EndSplineSet
EndChar

StartChar: greater
Encoding: 584 62 328
Width: 1146
VWidth: 0
Flags: W
LayerCount: 2
Fore
SplineSet
1008 764 m 1,0,-1
 1008 606 l 1,1,-1
 164 184 l 1,2,-1
 164 369 l 1,3,-1
 841 682 l 1,4,-1
 164 999 l 1,5,-1
 164 1184 l 1,6,-1
 1008 764 l 1,0,-1
EndSplineSet
EndChar

StartChar: greaterequal
Encoding: 585 8805 329
Width: 1705
VWidth: 0
Flags: W
LayerCount: 2
Fore
SplineSet
43 305 m 1,0,-1
 43 446 l 1,1,-1
 836 446 l 1,2,-1
 836 305 l 1,3,-1
 43 305 l 1,0,-1
836 797 m 1,4,-1
 45 485 l 1,5,-1
 45 627 l 1,6,-1
 664 855 l 1,7,-1
 45 1071 l 1,8,-1
 45 1214 l 1,9,-1
 836 909 l 1,10,-1
 836 797 l 1,4,-1
EndSplineSet
EndChar

StartChar: guillemotleft
Encoding: 586 171 330
Width: 1040
VWidth: 0
Flags: W
LayerCount: 2
Fore
SplineSet
709 565 m 1,0,-1
 938 172 l 1,1,-1
 745 172 l 1,2,-1
 526 565 l 1,3,-1
 745 958 l 1,4,-1
 938 958 l 1,5,-1
 709 565 l 1,0,-1
285 565 m 1,6,-1
 514 172 l 1,7,-1
 322 172 l 1,8,-1
 102 565 l 1,9,-1
 322 958 l 1,10,-1
 514 958 l 1,11,-1
 285 565 l 1,6,-1
EndSplineSet
EndChar

StartChar: guillemotright
Encoding: 587 187 331
Width: 1040
VWidth: 0
Flags: W
LayerCount: 2
Fore
SplineSet
756 565 m 1,0,-1
 526 958 l 1,1,-1
 719 958 l 1,2,-1
 938 565 l 1,3,-1
 719 172 l 1,4,-1
 526 172 l 1,5,-1
 756 565 l 1,0,-1
332 565 m 1,6,-1
 102 958 l 1,7,-1
 295 958 l 1,8,-1
 514 565 l 1,9,-1
 295 172 l 1,10,-1
 102 172 l 1,11,-1
 332 565 l 1,6,-1
EndSplineSet
EndChar

StartChar: guilsinglleft
Encoding: 588 8249 332
Width: 616
VWidth: 0
Flags: W
LayerCount: 2
Fore
SplineSet
285 565 m 1,0,-1
 514 172 l 1,1,-1
 322 172 l 1,2,-1
 102 565 l 1,3,-1
 322 958 l 1,4,-1
 514 958 l 1,5,-1
 285 565 l 1,0,-1
EndSplineSet
EndChar

StartChar: guilsinglright
Encoding: 589 8250 333
Width: 616
VWidth: 0
Flags: W
LayerCount: 2
Fore
SplineSet
332 565 m 1,0,-1
 102 958 l 1,1,-1
 295 958 l 1,2,-1
 514 565 l 1,3,-1
 295 172 l 1,4,-1
 102 172 l 1,5,-1
 332 565 l 1,0,-1
EndSplineSet
EndChar

StartChar: h
Encoding: 590 104 334
Width: 1353
VWidth: 0
Flags: W
LayerCount: 2
Fore
SplineSet
930 172 m 1,0,-1
 930 645 l 2,1,2
 930 762 930 762 869.5 824.5 c 128,-1,3
 809 887 809 887 696 887 c 0,4,5
 579 887 579 887 442 781 c 1,6,-1
 442 172 l 1,7,-1
 592 172 l 1,8,-1
 592 0 l 1,9,-1
 442 0 l 1,10,-1
 256 0 l 1,11,-1
 100 0 l 1,12,-1
 100 172 l 1,13,-1
 256 172 l 1,14,-1
 256 1384 l 1,15,-1
 115 1384 l 1,16,-1
 115 1556 l 1,17,-1
 256 1556 l 1,18,-1
 442 1556 l 1,19,-1
 442 1384 l 1,20,-1
 442 922 l 1,21,22
 604 1055 604 1055 762 1055 c 0,23,24
 934 1055 934 1055 1029 959 c 128,-1,25
 1124 863 1124 863 1124 668 c 2,26,-1
 1124 172 l 1,27,-1
 1280 172 l 1,28,-1
 1280 0 l 1,29,-1
 1124 0 l 1,30,-1
 930 0 l 1,31,-1
 788 0 l 1,32,-1
 788 172 l 1,33,-1
 930 172 l 1,0,-1
EndSplineSet
EndChar

StartChar: hadeva
Encoding: 591 2361 335
Width: 1083
VWidth: 0
Flags: W
AnchorPoint: "DVAnchor0" 805 150 basechar 0 {} {150-150 -2}
AnchorPoint: "DVAnchor3" 821 1364 basechar 0
LayerCount: 2
Fore
SplineSet
1102 1376 m 1,0,-1
 1102 1204 l 1,1,-1
 903 1204 l 1,2,-1
 903 860 l 1,3,-1
 782 860 l 1,4,-1
 723 860 l 1,5,-1
 442 860 l 2,6,7
 272 860 272 860 272 729 c 0,8,9
 273 685 273 685 297 649 c 1,10,11
 409 731 409 731 551 731 c 0,12,13
 711 731 711 731 809 636.5 c 128,-1,14
 907 542 907 542 946 395 c 1,15,-1
 809 352 l 1,16,17
 725 561 725 561 541 561 c 0,18,19
 483 561 483 561 421.5 524 c 128,-1,20
 360 487 360 487 360 399 c 0,21,22
 361 178 361 178 848 86 c 1,23,-1
 834 -43 l 1,24,25
 180 29 180 29 180 430 c 0,26,27
 180 479 180 479 196 522 c 1,28,29
 174 543 174 543 156 566 c 128,-1,30
 138 589 138 589 123 616.5 c 128,-1,31
 108 644 108 644 100 677 c 128,-1,32
 92 710 92 710 92 745 c 0,33,34
 92 897 92 897 193.5 964.5 c 128,-1,35
 295 1032 295 1032 442 1032 c 2,36,-1
 723 1032 l 1,37,-1
 723 1204 l 1,38,-1
 -23 1204 l 1,39,-1
 -23 1376 l 1,40,-1
 1102 1376 l 1,0,-1
EndSplineSet
EndChar

StartChar: hadeva_rvocalicdeva
Encoding: 592 -1 336
Width: 1126
VWidth: 0
Flags: W
LayerCount: 2
Fore
SplineSet
1001 371 m 1,0,1
 1165 305 l 1,2,3
 1145 238 1145 238 1074 179.5 c 128,-1,4
 1003 121 1003 121 901 121 c 0,5,6
 786 121 786 121 707.5 198.5 c 128,-1,7
 629 276 629 276 629 393 c 0,8,9
 629 491 629 491 691 559 c 1,10,-1
 541 559 l 2,11,12
 465 559 465 559 412.5 520 c 128,-1,13
 360 481 360 481 360 399 c 0,14,15
 361 178 361 178 848 86 c 1,16,-1
 834 -43 l 1,17,18
 182 29 182 29 182 430 c 0,19,20
 182 479 182 479 197 523 c 1,21,22
 92 617 92 617 92 745 c 0,23,24
 92 897 92 897 193.5 964.5 c 128,-1,25
 295 1032 295 1032 442 1032 c 2,26,-1
 723 1032 l 1,27,-1
 723 1204 l 1,28,-1
 -23 1204 l 1,29,-1
 -23 1376 l 1,30,-1
 983 1376 l 1,31,-1
 1012 1376 l 1,32,-1
 1147 1376 l 1,33,-1
 1147 1204 l 1,34,-1
 1012 1204 l 1,35,-1
 983 1204 l 1,36,-1
 903 1204 l 1,37,-1
 903 860 l 1,38,-1
 782 860 l 1,39,-1
 723 860 l 1,40,-1
 442 860 l 2,41,42
 272 860 272 860 272 729 c 0,43,44
 272 688 272 688 291 657 c 1,45,46
 385 731 385 731 522 731 c 2,47,-1
 901 731 l 1,48,-1
 901 688 l 1,49,-1
 901 559 l 1,50,-1
 901 512 l 1,51,52
 852 479 852 479 829.5 450.5 c 128,-1,53
 807 422 807 422 807 377 c 0,54,55
 807 344 807 344 833.5 317.5 c 128,-1,56
 860 291 860 291 897 291 c 0,57,58
 978 291 978 291 1001 371 c 1,0,1
EndSplineSet
Ligature2: "BlwsSub_Ligature_Ukaar subtable" hadeva rvocalicsigndeva
EndChar

StartChar: hadeva_viramadeva
Encoding: 593 -1 337
Width: 991
VWidth: 0
Flags: W
LayerCount: 2
Fore
SplineSet
901 731 m 1,0,-1
 901 559 l 1,1,-1
 541 559 l 2,2,3
 465 559 465 559 412.5 520 c 128,-1,4
 360 481 360 481 360 399 c 0,5,6
 361 178 361 178 848 86 c 1,7,-1
 834 -43 l 1,8,9
 182 29 182 29 182 430 c 0,10,11
 182 479 182 479 197 523 c 1,12,13
 92 617 92 617 92 745 c 0,14,15
 92 897 92 897 193.5 964.5 c 128,-1,16
 295 1032 295 1032 442 1032 c 2,17,-1
 723 1032 l 1,18,-1
 723 1204 l 1,19,-1
 -23 1204 l 1,20,-1
 -23 1376 l 1,21,-1
 1012 1376 l 1,22,-1
 1012 1204 l 1,23,-1
 903 1204 l 1,24,-1
 903 860 l 1,25,-1
 782 860 l 1,26,-1
 723 860 l 1,27,-1
 442 860 l 2,28,29
 272 860 272 860 272 729 c 0,30,31
 272 688 272 688 291 657 c 1,32,33
 385 731 385 731 522 731 c 2,34,-1
 901 731 l 1,0,-1
EndSplineSet
Ligature2: "HalfFormslookup10 subtable" hadeva viramadeva
EndChar

